<svg xmlns="http://www.w3.org/2000/svg" width="124.776" height="123.831" viewBox="0 0 124.776 123.831">
  <g id="Adocao_image" transform="translate(-20.881 -0.001)">
    <g id="Layer_3" data-name="Layer 3" transform="translate(22.244 1.34)">
      <path id="Caminho_1" data-name="Caminho 1" d="M201,40.906c3.584,1.392,7.289,2.834,10.541,5.782l-.326.357A92.45,92.45,0,0,1,221.8,44.49l1.209-.208c7.441-1.28,8.777-1.513,16.955-.753A81.946,81.946,0,0,1,255.449,47c2.924-2.7,6.2-4.074,9.4-5.407.564-.239,1.135-.474,1.7-.722l.505-.2a61.667,61.667,0,0,0-69.043-.93c.425.146.815.291,1.169.431C199.786,40.438,200.4,40.673,201,40.906Z" transform="translate(-170.817 -29.63)" fill="#e8e8e8"/>
      <path id="Caminho_2" data-name="Caminho 2" d="M135.977,187.249a22.077,22.077,0,0,0-4-4.244A35.314,35.314,0,0,1,129,180.121c-7.162-8.082-11.855-14.739-14.881-21.931a54.763,54.763,0,0,0-3.8,21.041,59.832,59.832,0,0,0,22.012,46.284,225.986,225.986,0,0,1,3.655-38.267Z" transform="translate(-110.306 -118.333)" fill="#e8e8e8"/>
      <path id="Caminho_3" data-name="Caminho 3" d="M160,93.442c-6.486-3.949-13.167-8.031-20.786-8.252-.505,4.388,1.878,12.217,3.581,16.309,3.274,7.855,6.64,12.064,12.73,18.518a102.07,102.07,0,0,1,3.072-16.14,53.11,53.11,0,0,1,3.656-9.075Q161.13,94.128,160,93.442Z" transform="translate(-131.271 -68.374)" fill="#846d57"/>
      <path id="Caminho_4" data-name="Caminho 4" d="M372.73,139.38a3.1,3.1,0,0,0-1.184-.22,3.815,3.815,0,0,0-1.376.257,1.4,1.4,0,0,0-.8.93,24.627,24.627,0,0,0-1.305,6.7c-.127,1.423-.192,2.883-.251,4.173a8.682,8.682,0,0,0,.214,3.044,3.1,3.1,0,0,0,1.845,2.024,1.016,1.016,0,0,0,.462.078,1.47,1.47,0,0,0,.667-.474c2.456-2.539,3.761-6.173,3.993-11.108a8.62,8.62,0,0,0-.288-3.181,3.649,3.649,0,0,0-1.975-2.22Z" transform="translate(-287.953 -105.202)" fill="#303030"/>
      <path id="Caminho_5" data-name="Caminho 5" d="M447.77,161c-2.818,7.131-7.158,13.728-13.753,21.739A18.587,18.587,0,0,1,430.9,185.5c-1.705,1.3-3.314,2.533-3.311,3.95a214.634,214.634,0,0,1,3.627,36.344A59.678,59.678,0,0,0,447.77,161Z" transform="translate(-329.221 -120.272)" fill="#e8e8e8"/>
      <path id="Caminho_6" data-name="Caminho 6" d="M232.355,54.736c-1.051-.068-1.811-.13-2.437-.186-2.142-.183-2.654-.229-8.47.45-.378.043-.8.1-1.24.174a72.5,72.5,0,0,0-13.641,3.6c-.574.248-1.144.49-1.718.729a30.157,30.157,0,0,0-8.451,4.65,29.787,29.787,0,0,1,3.829,1.665.676.676,0,0,1-.31,1.271.7.7,0,0,1-.31-.081c-4.467-2.415-14.739-4.976-20.263-5.491a68.714,68.714,0,0,0-7.534-.415,58.223,58.223,0,0,0-9.062,1.153l-1.215.208a88.816,88.816,0,0,0-12.711,3.265c-.71.251-1.373.505-1.978.756a.667.667,0,0,1-.884-.36.679.679,0,0,1,.36-.887c1-.419,2.17-.843,3.426-1.24-2.961-2.555-6.253-3.835-9.729-5.187-.62-.239-1.24-.477-1.86-.725a85.473,85.473,0,0,0-16.044-3.764c-6.272-.682-6.821-.62-9.14-.453-.679.056-1.507.121-2.66.189-.056.93.043,2.511.109,3.537.025.443.053.822.062,1.079.741,21.615,4.936,32.054,19.516,48.485a33.2,33.2,0,0,0,2.871,2.769,21.817,21.817,0,0,1,4.5,4.932l-.288.174.279.053a228.9,228.9,0,0,0-3.72,39.166h-.353a61.231,61.231,0,0,0,38.025,13.158h.22a62.305,62.305,0,0,0,7.382-.465,61.125,61.125,0,0,0,32.382-14.3h-.332a213.235,213.235,0,0,0-3.674-37.253h.031a3.306,3.306,0,0,1,.264-1.24c.586-1.448,2.1-2.6,3.581-3.72a17.673,17.673,0,0,0,2.889-2.545C227.606,91.424,231.506,81,232.194,59.374c0-.257.031-.639.059-1.079C232.3,57.241,232.393,55.657,232.355,54.736ZM142.045,72.06a49.705,49.705,0,0,0-3.844,9.611,109.115,109.115,0,0,0-3.038,18.093.685.685,0,0,1-.676.62h-.059a.679.679,0,0,1-.62-.738c.037-.381.071-.766.112-1.15-5.627-6.2-9.248-10.46-12.624-18.961-1.742-4.387-4.03-12.494-3.246-16.85l.1-.555h.564c7.558,0,13.979,4.117,20.2,8.092l1.922,1.222v-.025a.679.679,0,0,1,1.2.62Zm9.019,7.27a3.013,3.013,0,0,1-2.39-1.156,2.942,2.942,0,0,1-.456-1.5,7.849,7.849,0,0,1,.515-3.364,8.919,8.919,0,0,1,1.86-2.927,9.759,9.759,0,0,1,2.862-2.074,4.219,4.219,0,0,1,1.24-.363c.685-.093,1.24-.161,1.764-.211a7.5,7.5,0,0,1,4.108.508,5.1,5.1,0,0,1,.468.285,3.835,3.835,0,0,1,1.47,2.018,3.774,3.774,0,0,1,.192,1.194,3.842,3.842,0,0,1-.047.592,5.528,5.528,0,0,1-2.121,3.367,13.918,13.918,0,0,1-3.469,1.925c-.177.074-.357.146-.539.217-1.026.412-2.08.778-3.141,1.1a7.3,7.3,0,0,1-2.152.4Zm10.584,12.255a11.357,11.357,0,0,1-.35,3.382,4.2,4.2,0,0,1-2.431,2.79,2.282,2.282,0,0,1-.794.158,1.551,1.551,0,0,1-.357-.04,2.322,2.322,0,0,1-1.336-.986c-2.142-2.79-3.2-6.672-3.218-11.818a11.067,11.067,0,0,1,.425-3.534,4.793,4.793,0,0,1,2.455-2.924,3.931,3.931,0,0,1,3.311.14,2.682,2.682,0,0,1,1.327,1.767,29.173,29.173,0,0,1,.9,6.92C161.638,88.864,161.641,90.3,161.648,91.586Zm34.267,28.442c-2.285,3.159-4.871,6.743-8.656,8.737-3.658,1.931-7.856,2.1-12.193,2.114H174.4c-4.294,0-8.479-.161-12.435-1.55-4.774-1.671-8.343-5.06-9.558-9.056a.677.677,0,1,1,1.3-.394c1.088,3.587,4.34,6.641,8.709,8.172,3.72,1.3,7.689,1.47,11.8,1.476l.1-.71a27.985,27.985,0,0,0,.394-4.12,16.755,16.755,0,0,0-.09-1.727,10.083,10.083,0,0,1-3.6-.722c-.772-.533-1.352-.865-1.922-1.191a15.823,15.823,0,0,1-4.635-3.854,15.324,15.324,0,0,1-1.9-2.545c-.208-.344-.425-.713-.67-1.141-.356-.62-.685-1.24-.989-1.879a59.624,59.624,0,0,1-2.635-6.728c-.415-1.24.31-3.556.98-4.564,1.187-1.789,12.045-3.156,13.241-3.1,1.029.05,1.882.053,2.79.059h1.59a53.589,53.589,0,0,1,8.451.908l.378.062c1.959.326,4.123.722,5.01,1.324a2.614,2.614,0,0,1,1.122,1.925,9.235,9.235,0,0,1-.071,2.325c-.04.341-.081.682-.1,1-.158,2.629-1.752,6.241-2.7,8.4-.267.6-.493,1.11-.62,1.439-.347.93-2.012,2.9-5.391,6.424a8.549,8.549,0,0,1-4.5,1.922,8.3,8.3,0,0,1-.98.04c-.425,0-.93-.016-1.488-.037.05.546.071,1.07.071,1.581a28.694,28.694,0,0,1-.4,4.374l-.071.512c3.978-.031,7.8-.248,11.046-1.962,3.506-1.86,5.993-5.289,8.191-8.33a.677.677,0,0,1,1.1.794Zm2.251-33.9c-.208,5.143-1.386,8.972-3.609,11.7a2.375,2.375,0,0,1-1.367.93,2.028,2.028,0,0,1-1.138-.161,4.216,4.216,0,0,1-2.316-2.88,11.267,11.267,0,0,1-.22-3.395c.05-1.271.1-2.719.208-4.136a29.848,29.848,0,0,1,1.141-6.883,2.679,2.679,0,0,1,1.38-1.718,3.888,3.888,0,0,1,3.3-.025,4.8,4.8,0,0,1,2.328,3.01,11.116,11.116,0,0,1,.294,3.559Zm5.357-8.51a3.181,3.181,0,0,1-.5,1.389.232.232,0,0,1-.028.047,2.558,2.558,0,0,1-2.068.949H200.7a5.711,5.711,0,0,1-2.049-.642,32.63,32.63,0,0,1-3.1-1.683,12.175,12.175,0,0,1-2.874-2.276,6.654,6.654,0,0,1-1.153-1.823,5.029,5.029,0,0,1-.4-1.714,4.03,4.03,0,0,1,1.755-3.6h0a4.387,4.387,0,0,1,.446-.239,5.885,5.885,0,0,1,3.72-.105c.453.105.93.226,1.532.394a3.585,3.585,0,0,1,1.091.5,9.146,9.146,0,0,1,2.331,2.366,9.378,9.378,0,0,1,1.364,3.082A8.771,8.771,0,0,1,203.523,77.619Zm18.713,2.595c-2.874,7.8-5.856,11.322-10.789,17.16l-1,1.178h0c.059.6.115,1.2.164,1.8a.676.676,0,0,1-.62.732h-.059a.676.676,0,0,1-.673-.62c0-.109-.019-.211-.025-.31a118.218,118.218,0,0,0-2.79-17.78l-.04-.152a63.566,63.566,0,0,0-3.534-10.668.682.682,0,1,1,1.215-.62c.14.285.276.583.406.884.85-.567,1.677-1.138,2.5-1.7,3.441-2.372,6.759-4.65,10.519-6.024a20.579,20.579,0,0,1,7.066-1.271h.574l.1.564c.744,4.343-1.4,12.457-3.017,16.828Z" transform="translate(-110.297 -46.275)" fill="#faa847"/>
      <path id="Caminho_7" data-name="Caminho 7" d="M218.443,106.895c-.022.146-.053.285-.084.431-1.24,5.76,1.06,6.839-2.362,10.786-.831.958-5.853,1.86-6.836,2.48-.471.31-2.335,4.164-2.855,4.285-2.582.6-5-1.594-7.441-2.843-1.73-.88-3.581-1.308-5.323-2.17a10,10,0,0,1-2.065-1.339,8.122,8.122,0,0,1-1.522-1.724c-.344-.539-.335-.025-.422-.729-.267-2.093.905-4.508,1.082-6.607.276-3.339,2.285-6.049,2.564-9.388.264-3.141.766-3.82,1.687-6.74,1.24-3.953,1.931-.171,3.308-4.049.36-1.011,2.911-2.893,3.3-3.878,2.92-1.377,1.355-.645,3.99-1.24l1.55-1.15c3.122-.722,1.094-.62,3.069-.676.719.505.967-.9,1.414,0,1.02,2.034,2.973,3.438,2.955,5.89C214.4,97.3,220.185,98.146,218.443,106.895Z" transform="translate(-164.94 -65.789)" fill="#e8e8e8"/>
      <path id="Caminho_8" data-name="Caminho 8" d="M258.131,144.245a27.46,27.46,0,0,0-1-7.041,1.43,1.43,0,0,0-.744-1,3.506,3.506,0,0,0-1.448-.31,2.79,2.79,0,0,0-1.06.192,3.8,3.8,0,0,0-2.021,2.257,9.68,9.68,0,0,0-.412,3.314c.022,5.168,1.147,9.009,3.435,11.741a1.486,1.486,0,0,0,.639.521.967.967,0,0,0,.459-.071,3.215,3.215,0,0,0,1.888-2.055,9.846,9.846,0,0,0,.332-3.175C258.183,147.2,258.18,145.724,258.131,144.245Z" transform="translate(-207.688 -102.953)" fill="#303030"/>
      <path id="Caminho_9" data-name="Caminho 9" d="M246.883,107.248a4.716,4.716,0,0,0,1.767-2.79,2.855,2.855,0,0,0-1.132-2.744,3.463,3.463,0,0,0-.341-.211,4.992,4.992,0,0,0-2.331-.481c-.44,0-.874.034-1.29.074-.539.053-1.125.127-1.86.229a2.972,2.972,0,0,0-.93.267,9.13,9.13,0,0,0-2.66,1.972A8.342,8.342,0,0,0,236.4,106.3a7.32,7.32,0,0,0-.44,3.082,1.919,1.919,0,0,0,.239.93,1.841,1.841,0,0,0,1.435.62,6.362,6.362,0,0,0,2.034-.372c1.3-.4,2.589-.874,3.832-1.4A13.6,13.6,0,0,0,246.883,107.248Z" transform="translate(-196.986 -78.886)" fill="#303030"/>
      <path id="Caminho_10" data-name="Caminho 10" d="M285.009,221.136a7.646,7.646,0,0,0,3.928-1.64c4.1-4.356,5.2-5.891,5.394-6.427.143-.394.378-.93.679-1.631.967-2.238,2.586-5.98,2.737-8.557.022-.381.068-.781.112-1.163.186-1.6.251-2.694-.49-3.209s-3.64-1.011-4.725-1.194l-.412-.068a52.6,52.6,0,0,0-10.373-.973c-.93,0-1.9,0-3.016-.065-1.839-.1-11.859,1.631-12.733,2.7a6.174,6.174,0,0,0-.868,3.633,50.59,50.59,0,0,0,3.72,9.022,17.643,17.643,0,0,0,2.536,3.72,15.385,15.385,0,0,0,4.551,3.869c.592.347,1.265.741,2.13,1.349C278.859,220.944,283.924,221.3,285.009,221.136Z" transform="translate(-217.165 -144.563)" fill="#303030"/>
      <path id="Caminho_11" data-name="Caminho 11" d="M382.7,104.306a8.661,8.661,0,0,0-2.217-2.254,2.418,2.418,0,0,0-.766-.35c-.62-.177-1.16-.31-1.64-.422a5.189,5.189,0,0,0-3.212.022,2.813,2.813,0,0,0-.31.171,3.039,3.039,0,0,0-1.256,2.679,5.069,5.069,0,0,0,1.355,3.035,12.427,12.427,0,0,0,2.871,2.263,34.876,34.876,0,0,0,3.327,1.8,5.127,5.127,0,0,0,1.749.574,1.435,1.435,0,0,0,1.24-.45,2.122,2.122,0,0,0,.31-.93,8.343,8.343,0,0,0-.146-3.187A8.99,8.99,0,0,0,382.7,104.306Z" transform="translate(-291.759 -78.896)" fill="#303030"/>
      <path id="Caminho_12" data-name="Caminho 12" d="M421.67,121.43c5.284-6.027,8.462-9.664,11.525-17.63,1.574-4.124,3.767-11.982,3.3-16.4-6.884.2-11.928,3.552-17.739,7.418-.978.653-1.97,1.306-2.985,1.959A89.715,89.715,0,0,1,418.708,106l.044.163a109.171,109.171,0,0,1,2.738,15.462Z" transform="translate(-322.241 -69.986)" fill="#846d57"/>
      <path id="Caminho_13" data-name="Caminho 13" d="M210.24,266.362c.465.394,2.083-2.316,2.521-3.795a4.648,4.648,0,0,0,.254-1.3c-.279-.04-.738-.09-.964.124a3.863,3.863,0,0,0-.468,1.07c-.363.828-.825,1.615-1.107,2.48a5.579,5.579,0,0,0-.18.713C210.283,265.726,210.268,266.349,210.24,266.362Z" transform="translate(-179.255 -189.432)" fill="#e8e8e8"/>
      <path id="Caminho_14" data-name="Caminho 14" d="M217.985,265.124a3.53,3.53,0,0,0-.31,2.142.251.251,0,0,0,.04.093c.053.062.152.046.226.022a2.512,2.512,0,0,0,1.225-.862,4.268,4.268,0,0,0,.592-1.2,14.57,14.57,0,0,0,.657-2.685c0-.043-.372-.047-.406-.043a1.357,1.357,0,0,0-.419.127,1.424,1.424,0,0,0-.428.254,2.3,2.3,0,0,0-.31.449c-.158.254-.31.518-.446.784S218.113,264.808,217.985,265.124Z" transform="translate(-184.34 -190.364)" fill="#e8e8e8"/>
      <path id="Caminho_15" data-name="Caminho 15" d="M224.981,267.641a.311.311,0,0,0,0,.143c.062.177.326.143.493.053a3.41,3.41,0,0,0,1.383-1.516,9.924,9.924,0,0,0,.673-1.972.329.329,0,0,0,0-.31.31.31,0,0,0-.226-.087,1.264,1.264,0,0,0-.419,0c-.276.062-.341.326-.471.543s-.31.49-.446.735a8.614,8.614,0,0,0-.763,1.5A3.678,3.678,0,0,0,224.981,267.641Z" transform="translate(-189.421 -191.293)" fill="#e8e8e8"/>
      <path id="Caminho_16" data-name="Caminho 16" d="M398.12,266.1c.465.391,2.083-2.319,2.521-3.795a4.649,4.649,0,0,0,.254-1.3c-.279-.04-.738-.093-.964.124a3.869,3.869,0,0,0-.468,1.07,26.988,26.988,0,0,0-1.107,2.48,5.07,5.07,0,0,0-.18.71C398.163,265.461,398.145,266.084,398.12,266.1Z" transform="translate(-308.887 -189.25)" fill="#e8e8e8"/>
      <path id="Caminho_17" data-name="Caminho 17" d="M405.306,264.361A3.6,3.6,0,0,0,405,266.5a.192.192,0,0,0,.037.093c.056.062.152.047.229.022a2.48,2.48,0,0,0,1.225-.859,4.193,4.193,0,0,0,.589-1.206,14.513,14.513,0,0,0,.657-2.685c0-.04-.369-.043-.406-.04a1.239,1.239,0,0,0-.4.118,1.4,1.4,0,0,0-.425.251,2.351,2.351,0,0,0-.31.45c-.161.257-.31.518-.447.784S405.433,264.051,405.306,264.361Z" transform="translate(-313.599 -189.84)" fill="#e8e8e8"/>
      <path id="Caminho_18" data-name="Caminho 18" d="M390.982,267.641a.309.309,0,0,0,0,.143c.062.177.326.143.493.053a3.384,3.384,0,0,0,1.383-1.516,9.923,9.923,0,0,0,.673-1.972.328.328,0,0,0,0-.31.31.31,0,0,0-.226-.087,1.264,1.264,0,0,0-.419,0c-.276.062-.341.326-.471.543s-.31.49-.446.735a8.612,8.612,0,0,0-.763,1.5A3.678,3.678,0,0,0,390.982,267.641Z" transform="translate(-303.956 -191.293)" fill="#e8e8e8"/>
    </g>
    <g id="Layer_5" data-name="Layer 5" transform="translate(30.561 20.545)" style="mix-blend-mode: multiply;isolation: isolate">
      <path id="Caminho_19" data-name="Caminho 19" d="M364.052,286.928a61.125,61.125,0,0,1-32.382,14.3c.555-.167,1.135-.276,1.584-.425a31.866,31.866,0,0,0,4.288-1.764,34.458,34.458,0,0,0,7.729-5.27,34.82,34.82,0,0,0,6.033-7.09,32.06,32.06,0,0,0,3.829-8.464c.093-.347.189-.694.273-1.042a66.873,66.873,0,0,0,1.432-11.688q.434-6.852.862-13.7c.081-1.321.381-2.936,1.643-3.339a1.661,1.661,0,0,1,.983,0,3.3,3.3,0,0,0-.264,1.24h-.031a213.225,213.225,0,0,1,3.674,37.247Z" transform="translate(-270.355 -198.982)" fill="#edbcbc" style="mix-blend-mode: multiply;isolation: isolate"/>
      <path id="Caminho_20" data-name="Caminho 20" d="M287.215,251.781a16.747,16.747,0,0,1,.09,1.727,8.341,8.341,0,0,1-.93-.062,12.181,12.181,0,0,1-4.117-1.47,18.577,18.577,0,0,1-6.542-5.487,11.975,11.975,0,0,1-2.226-6.039c.31.62.62,1.265.989,1.879.245.428.462.8.67,1.141a15.328,15.328,0,0,0,1.9,2.545,15.826,15.826,0,0,0,4.635,3.854c.57.326,1.15.657,1.922,1.19A10.1,10.1,0,0,0,287.215,251.781Z" transform="translate(-231.213 -194.517)" fill="#edbcbc"/>
      <path id="Caminho_21" data-name="Caminho 21" d="M335.152,223.857a18.964,18.964,0,0,1-12.345,7.081c-.18.022-.366.043-.546.059,0-.512-.022-1.036-.071-1.581.549.022,1.063.037,1.488.037a8.285,8.285,0,0,0,.98-.04,8.5,8.5,0,0,0,4.5-1.922c3.379-3.522,5.044-5.5,5.391-6.424.121-.329.347-.843.62-1.439.952-2.17,2.545-5.773,2.7-8.4.019-.31.059-.66.1-1a9.237,9.237,0,0,0,.071-2.325,1.87,1.87,0,0,1,.226.217,3.7,3.7,0,0,1,.713,2.034A18.946,18.946,0,0,1,335.152,223.857Z" transform="translate(-265.814 -172.059)" fill="#edbcbc"/>
      <path id="Caminho_22" data-name="Caminho 22" d="M382.638,123.108a6.9,6.9,0,0,1-.372,1.494,1.913,1.913,0,0,1-.471.791,2.145,2.145,0,0,1-2.108.04,34.391,34.391,0,0,1-6.368-3.041,7.182,7.182,0,0,1-2.012-1.631,2.855,2.855,0,0,1-.62-2.431,1.239,1.239,0,0,1,.242-.493.854.854,0,0,1,.2-.167,6.653,6.653,0,0,0,1.153,1.823,12.176,12.176,0,0,0,2.874,2.276,32.609,32.609,0,0,0,3.1,1.683,5.71,5.71,0,0,0,2.049.642h.223a2.558,2.558,0,0,0,2.068-.949A.233.233,0,0,0,382.638,123.108Z" transform="translate(-298.235 -109.803)" fill="#edbcbc"/>
      <path id="Caminho_23" data-name="Caminho 23" d="M266.826,108.527a8.585,8.585,0,0,1-2.3,5.181,5.438,5.438,0,0,1-2.945,1.733,4.061,4.061,0,0,1-2.17-.236c.183-.071.363-.143.54-.217a13.915,13.915,0,0,0,3.469-1.925,5.584,5.584,0,0,0,2.121-3.367,3.824,3.824,0,0,0,.046-.592,3.767,3.767,0,0,0-.192-1.194,2.79,2.79,0,0,1,1.284.35.326.326,0,0,1,.127.115A.28.28,0,0,1,266.826,108.527Z" transform="translate(-221.498 -103.068)" fill="#edbcbc"/>
      <path id="Caminho_24" data-name="Caminho 24" d="M461.43,95.507c-.031-1.026-.084-7.611-.186-8.631a1.1,1.1,0,0,1,.1-.729,1.057,1.057,0,0,1,.567-.366,4.573,4.573,0,0,1,2.815-.022,1.076,1.076,0,0,1,.648.44,1.209,1.209,0,0,1,.068.657l-.347,4.188a36.947,36.947,0,0,1-1.4,8.575c-.115.347-.242.691-.378,1.032-.077.2-2.359,6.067-2.6,6.111-.62.115-1.259,2.071-1.24,1.8.062-1.705.2-1.9.065-1.473A34.13,34.13,0,0,0,461.43,95.507Z" transform="translate(-359.531 -87.64)" fill="#edbcbc" style="mix-blend-mode: multiply;isolation: isolate"/>
      <path id="Caminho_25" data-name="Caminho 25" d="M139.736,86.112a24.6,24.6,0,0,1,8.256.034,24.413,24.413,0,0,1,6.117,2.62,47.7,47.7,0,0,0-15-6.052c-.62-.136-1.411-.2-1.78.31a1.631,1.631,0,0,0-.2.93c0,.353,0,.71.019,1.063a4.212,4.212,0,0,0,.087.989c.161.508.946.264,1.321.226Z" transform="translate(-137.123 -85.617)" fill="#edbcbc" style="mix-blend-mode: multiply;isolation: isolate"/>
    </g>
    <g id="Layer_2" data-name="Layer 2" transform="translate(20.881 0.001)">
      <g id="Grupo_1" data-name="Grupo 1" transform="translate(0 0)">
        <path id="Caminho_26" data-name="Caminho 26" d="M158.667,89.772a.676.676,0,0,0-.93.279.177.177,0,0,1,0,.025q-.958-.62-1.922-1.24c-6.2-3.975-12.637-8.085-20.192-8.085h-.564l-.1.555c-.8,4.34,1.5,12.46,3.246,16.85,3.373,8.5,7,12.758,12.624,18.958-.04.384-.077.766-.112,1.15a.676.676,0,0,0,.62.735h.062a.679.679,0,0,0,.676-.62,110.757,110.757,0,0,1,3.035-18.09,50.055,50.055,0,0,1,3.847-9.611A.676.676,0,0,0,158.667,89.772ZM153.8,99.938a103.59,103.59,0,0,0-2.79,15.384c-5.531-6.151-8.588-10.163-11.561-17.65-1.55-3.9-3.72-11.362-3.252-15.545,6.92.211,13,4.1,18.878,7.865q1.023.654,2.037,1.3a52.106,52.106,0,0,0-3.311,8.65Z" transform="translate(-125.836 -63.562)" fill="#303030"/>
        <path id="Caminho_27" data-name="Caminho 27" d="M381.866,102.12a9.146,9.146,0,0,0-2.331-2.365,3.556,3.556,0,0,0-1.091-.5c-.592-.164-1.079-.288-1.532-.391a5.906,5.906,0,0,0-3.72.105,3.435,3.435,0,0,0-.447.242h0a4.03,4.03,0,0,0-1.755,3.6,5.872,5.872,0,0,0,1.55,3.537,12.4,12.4,0,0,0,2.874,2.279,32.938,32.938,0,0,0,3.1,1.683,5.748,5.748,0,0,0,2.049.639h.223a2.536,2.536,0,0,0,2.068-.949,3.151,3.151,0,0,0,.527-1.432,8.715,8.715,0,0,0-.152-3.367A9.414,9.414,0,0,0,381.866,102.12Zm.177,6.241a1.923,1.923,0,0,1-.273.831,1.3,1.3,0,0,1-1.113.4,4.6,4.6,0,0,1-1.55-.512,32.392,32.392,0,0,1-2.976-1.612,11.226,11.226,0,0,1-2.57-2.018,4.548,4.548,0,0,1-1.212-2.71,2.713,2.713,0,0,1,1.125-2.387,1.894,1.894,0,0,1,.282-.152,4.622,4.622,0,0,1,2.868-.019c.431.1.9.217,1.47.375a2.243,2.243,0,0,1,.685.31,7.791,7.791,0,0,1,1.981,2.012,8.061,8.061,0,0,1,1.166,2.638A7.421,7.421,0,0,1,382.043,108.361Z" transform="translate(-288.8 -75.886)" fill="#303030"/>
        <path id="Caminho_28" data-name="Caminho 28" d="M241.456,108.58a13.952,13.952,0,0,0,3.469-1.922,5.613,5.613,0,0,0,2.121-3.37,3.915,3.915,0,0,0-1.609-3.8h0a4.458,4.458,0,0,0-.468-.282,7.59,7.59,0,0,0-4.108-.515c-.518.053-1.079.121-1.764.214a4.22,4.22,0,0,0-1.24.363,9.819,9.819,0,0,0-2.862,2.074,8.938,8.938,0,0,0-1.86,2.924,7.821,7.821,0,0,0-.515,3.367,2.945,2.945,0,0,0,.459,1.507,3.007,3.007,0,0,0,2.387,1.153h.177a7.4,7.4,0,0,0,2.136-.388,38.046,38.046,0,0,0,3.677-1.321Zm-5.94.357a1.73,1.73,0,0,1-1.33-.574,1.692,1.692,0,0,1-.223-.834,6.43,6.43,0,0,1,.431-2.79,7.491,7.491,0,0,1,1.581-2.48,8.37,8.37,0,0,1,2.48-1.786,2.728,2.728,0,0,1,.849-.242c.667-.093,1.209-.158,1.708-.208.387-.037.79-.065,1.2-.065a4.685,4.685,0,0,1,2.17.434,2.552,2.552,0,0,1,1.367,2.676,4.262,4.262,0,0,1-1.637,2.527,12.736,12.736,0,0,1-3.134,1.724,37.683,37.683,0,0,1-3.6,1.28,6.038,6.038,0,0,1-1.86.338Z" transform="translate(-193.322 -75.894)" fill="#303030"/>
        <path id="Caminho_29" data-name="Caminho 29" d="M289.45,215.854a.679.679,0,0,0-.945.155c-2.195,3.038-4.685,6.486-8.188,8.33-3.249,1.714-7.075,1.931-11.049,1.959l.074-.508a24.194,24.194,0,0,0,.326-5.956c.555.025,1.07.037,1.491.037a8.335,8.335,0,0,0,.98-.04,8.437,8.437,0,0,0,4.492-1.925c3.382-3.516,5.047-5.5,5.395-6.418.121-.329.35-.846.62-1.445.952-2.155,2.542-5.766,2.7-8.4.019-.31.059-.66.1-1,.17-1.46.384-3.277-1.051-4.251-.887-.6-3.051-1-5.01-1.324L279,195a53.106,53.106,0,0,0-10.036-.93c-.908,0-1.764,0-2.79-.059-1.2-.062-12.051,1.3-13.241,3.1-.663,1-1.4,3.336-.977,4.561a48.31,48.31,0,0,0,3.621,8.6,17.711,17.711,0,0,0,2.57,3.689,15.785,15.785,0,0,0,4.635,3.854c.564.326,1.15.66,1.919,1.19a10.049,10.049,0,0,0,3.6.725,21.676,21.676,0,0,1-.31,5.847l-.105.707c-4.108,0-8.095-.177-11.8-1.476-4.365-1.528-7.62-4.585-8.706-8.169a.677.677,0,0,0-1.3.391c1.209,4,4.784,7.385,9.555,9.056,3.956,1.389,8.138,1.55,12.435,1.55h.663c4.34,0,8.532-.189,12.193-2.117,3.785-2,6.374-5.58,8.656-8.74A.676.676,0,0,0,289.45,215.854Zm-26,.8a14.48,14.48,0,0,1-4.306-3.587,16.149,16.149,0,0,1-2.4-3.457,46.589,46.589,0,0,1-3.516-8.371,5.753,5.753,0,0,1,.822-3.37c.828-.986,10.308-2.595,12.048-2.5,1.057.053,1.972.056,2.852.059a48.708,48.708,0,0,1,9.815.9l.388.065a18.584,18.584,0,0,1,4.471,1.107c.716.487.642,1.488.465,2.973-.04.357-.084.725-.105,1.079-.146,2.387-1.677,5.86-2.592,7.934-.282.642-.505,1.15-.642,1.513-.183.49-1.218,1.919-5.1,5.959a7.252,7.252,0,0,1-3.72,1.522c-1.029.152-5.822-.177-6.47-.586-.815-.555-1.457-.921-2.018-1.243Z" transform="translate(-202.612 -141.711)" fill="#303030"/>
        <path id="Caminho_30" data-name="Caminho 30" d="M371.782,136.207a3.888,3.888,0,0,0-3.3.022,2.663,2.663,0,0,0-1.376,1.718,29.5,29.5,0,0,0-1.144,6.883c-.105,1.417-.161,2.865-.208,4.139a11.254,11.254,0,0,0,.223,3.392,4.184,4.184,0,0,0,2.313,2.877,2.2,2.2,0,0,0,.849.186,1.47,1.47,0,0,0,.288-.025,2.343,2.343,0,0,0,1.367-.93c2.223-2.725,3.41-6.551,3.609-11.694a11.118,11.118,0,0,0-.292-3.547A4.793,4.793,0,0,0,371.782,136.207Zm1.268,6.511c-.192,4.84-1.274,8.4-3.3,10.891-.161.2-.372.434-.552.465a.707.707,0,0,1-.381-.077,2.9,2.9,0,0,1-1.528-1.981,10.081,10.081,0,0,1-.177-2.986c.05-1.265.1-2.7.208-4.092a28.43,28.43,0,0,1,1.079-6.563,1.31,1.31,0,0,1,.663-.908,2.729,2.729,0,0,1,1.141-.254,2.17,2.17,0,0,1,.98.217,3.442,3.442,0,0,1,1.634,2.17A9.9,9.9,0,0,1,373.05,142.717Z" transform="translate(-285.174 -101.58)" fill="#303030"/>
        <path id="Caminho_31" data-name="Caminho 31" d="M256.06,135.187a2.688,2.688,0,0,0-1.324-1.767,3.928,3.928,0,0,0-3.314-.14,4.793,4.793,0,0,0-2.455,2.92,10.926,10.926,0,0,0-.422,3.537c.019,5.15,1.07,9.012,3.212,11.818a2.36,2.36,0,0,0,1.339.989,1.718,1.718,0,0,0,.357.037,2.24,2.24,0,0,0,.791-.158,4.209,4.209,0,0,0,2.434-2.79,11.181,11.181,0,0,0,.347-3.385c0-1.28,0-2.734-.062-4.145A29.209,29.209,0,0,0,256.06,135.187Zm-.676,14.041a2.939,2.939,0,0,1-1.612,1.928.76.76,0,0,1-.394.065c-.183-.04-.388-.282-.546-.487-1.956-2.561-2.914-6.16-2.936-11a9.939,9.939,0,0,1,.353-3.1,3.451,3.451,0,0,1,1.727-2.114,2.232,2.232,0,0,1,.908-.183,2.734,2.734,0,0,1,1.24.31,1.312,1.312,0,0,1,.635.93,27.438,27.438,0,0,1,.853,6.6c.053,1.386.056,2.765.059,4.1a10.049,10.049,0,0,1-.288,2.958Z" transform="translate(-204.315 -99.6)" fill="#303030"/>
        <path id="Caminho_39" data-name="Caminho 39" d="M415.759,121.254h.059a.676.676,0,0,0,.62-.732q-.077-.9-.167-1.8h0l1-1.178c4.936-5.838,7.912-9.36,10.792-17.16,1.618-4.387,3.754-12.485,3.014-16.828l-.09-.558h-.57c-7.034,0-12.172,3.541-17.609,7.289-.815.564-1.649,1.135-2.5,1.7-.133-.31-.27-.6-.409-.88a.676.676,0,1,0-1.212.6,63.969,63.969,0,0,1,3.534,10.671l.04.155a117.746,117.746,0,0,1,2.824,18.1A.679.679,0,0,0,415.759,121.254Zm-2.232-19.222a87.489,87.489,0,0,0-2.691-8.761c.93-.62,1.839-1.24,2.734-1.86,5.323-3.674,9.943-6.861,16.245-7.047.425,4.195-1.584,11.657-3.026,15.56-2.79,7.577-5.717,11.031-10.556,16.741l-.161.192a108.561,108.561,0,0,0-2.508-14.683Z" transform="translate(-314.766 -65.115)" fill="#303030"/>
        <path id="Caminho_40" data-name="Caminho 40" d="M230.678,87.548a60.6,60.6,0,0,0-4.145-22.114c2.548-7.227,3.637-15.142,3.971-25.661,0-.248.028-.62.053-1.042a22.127,22.127,0,0,0,.016-4.412l-.112-.5-.518-.028c-1.333-.071-2.235-.152-2.958-.214-2.257-.2-2.79-.242-8.746.453a78.555,78.555,0,0,0-13.254,3.119.648.648,0,0,0-.167-.177,63.059,63.059,0,0,0-72.025-.722,90.471,90.471,0,0,0-13.579-2.9c-6.4-.691-6.969-.648-9.388-.453-.781.065-1.752.143-3.187.214l-.505.028-.118.493a21.282,21.282,0,0,0,0,4.424c.028.428.05.794.059,1.042.36,10.5,1.525,18.4,4.25,25.611a.08.08,0,0,1,0,.028A55.907,55.907,0,0,0,105.9,87.548c0,33.963,27.986,61.593,62.384,61.593S230.678,121.512,230.678,87.548ZM168.295,26.662A61.131,61.131,0,0,1,203.5,37.7l-.505.2c-.567.248-1.138.484-1.7.722-3.187,1.333-6.473,2.71-9.4,5.407a81.462,81.462,0,0,0-15.48-3.475c-8.178-.76-9.518-.527-16.955.753l-1.209.208a92.45,92.45,0,0,0-10.584,2.555h.628a34.219,34.219,0,0,0-10.843-6.139c-.62-.239-1.218-.474-1.832-.722-.353-.14-.744-.285-1.169-.431A61.212,61.212,0,0,1,168.295,26.662ZM107.266,87.548a54.764,54.764,0,0,1,3.8-21.042c3.029,7.193,7.723,13.849,14.881,21.931a35.315,35.315,0,0,0,2.986,2.883,22.075,22.075,0,0,1,4,4.244,225.985,225.985,0,0,0-3.658,38.267A59.839,59.839,0,0,1,107.266,87.548Zm23,47.081h.353a227.682,227.682,0,0,1,3.72-39.166l-.282-.053.288-.171a21.6,21.6,0,0,0-4.5-4.933,35.19,35.19,0,0,1-2.874-2.772c-14.571-16.456-18.772-26.879-19.516-48.494,0-.257-.031-.62-.059-1.079-.065-1.026-.164-2.62-.109-3.537,1.153-.065,1.981-.133,2.663-.186,2.316-.189,2.865-.233,9.133.446a84.927,84.927,0,0,1,16.022,3.782c.62.248,1.24.487,1.86.725,3.475,1.352,6.768,2.632,9.729,5.184-1.256.406-2.421.825-3.426,1.24a.679.679,0,1,0,.524,1.24,80.882,80.882,0,0,1,14.686-4.03l1.209-.208c7.289-1.24,8.6-1.482,16.6-.738,5.522.515,15.793,3.075,20.26,5.491a.651.651,0,0,0,.31.081.676.676,0,0,0,.31-1.271,29.287,29.287,0,0,0-3.82-1.643,29.83,29.83,0,0,1,8.454-4.65q.856-.36,1.718-.729a72.542,72.542,0,0,1,14.881-3.77c5.816-.679,6.325-.636,8.47-.45.62.056,1.383.121,2.434.186.053.93-.04,2.514-.1,3.54-.028.443-.05.825-.059,1.079-.688,21.627-4.588,32.054-18.137,48.513a17.7,17.7,0,0,1-2.893,2.548c-1.879,1.432-3.813,2.917-3.841,4.96h-.034a212.946,212.946,0,0,1,3.677,37.262h.357a61.519,61.519,0,0,1-78.009,1.6Zm78.992-2.48A214.629,214.629,0,0,0,205.634,95.8c0-1.417,1.606-2.648,3.311-3.95a18.582,18.582,0,0,0,3.116-2.762c6.594-8.011,10.935-14.618,13.753-21.739a59.718,59.718,0,0,1-16.552,64.82Z" transform="translate(-105.903 -25.311)" fill="#303030"/>
      </g>
    </g>
    <g id="Layer_4" data-name="Layer 4" transform="translate(65.983 35.285)">
      <path id="Caminho_41" data-name="Caminho 41" d="M252.524,139.852a3.029,3.029,0,0,0-1.125,2.241.31.31,0,0,0,.341.412,3.25,3.25,0,0,0,3.076-.93.976.976,0,0,0,.2-.481,1.207,1.207,0,0,0-.065-.419c-.2-.7-.62-1.46-1.349-1.55a1.445,1.445,0,0,0-1.42,1.191" transform="translate(-251.379 -139.12)" fill="#e8e8e8"/>
      <path id="Caminho_42" data-name="Caminho 42" d="M268.555,182.338l-.425,1.479a.732.732,0,0,0,.88-.167,1.861,1.861,0,0,0,.4-.874c.093-.384.112-.89-.242-1.073a.5.5,0,0,0-.648.6" transform="translate(-262.937 -168.48)" fill="#e8e8e8"/>
      <path id="Caminho_43" data-name="Caminho 43" d="M376.842,189.177a1.86,1.86,0,0,0-1.1,2.065,1.724,1.724,0,0,0,1.73-2.214.53.53,0,0,0-.549.152" transform="translate(-337.164 -173.539)" fill="#e8e8e8"/>
      <path id="Caminho_44" data-name="Caminho 44" d="M373.579,141.4a5.239,5.239,0,0,0-.573,2.328.814.814,0,0,0,.071.4.62.62,0,0,0,.394.264,1.7,1.7,0,0,0,1.8-1.166,1.774,1.774,0,0,0-.043-1.625.986.986,0,0,0-1.454-.239" transform="translate(-335.297 -140.508)" fill="#e8e8e8"/>
    </g>
  </g>
</svg>
