<svg width="120" height="99" viewBox="0 0 120 99" fill="none" xmlns="http://www.w3.org/2000/svg">
<path d="M8.352 28.06C8.22 28.06 7.914 28.06 7.434 28.06C6.966 28.048 6.576 28.036 6.264 28.024L4.356 34.036C4.116 34.096 3.852 34.132 3.564 34.144C3.276 34.168 2.988 34.18 2.7 34.18C1.992 34.18 1.368 34.096 0.828 33.928L0.72 33.748L8.838 9.412C9.138 9.364 9.504 9.328 9.936 9.304C10.368 9.28 10.746 9.268 11.07 9.268C11.37 9.268 11.736 9.28 12.168 9.304C12.6 9.328 12.948 9.37 13.212 9.43L21.294 33.766C21.018 33.934 20.676 34.054 20.268 34.126C19.872 34.21 19.47 34.252 19.062 34.252C18.45 34.252 17.976 34.114 17.64 33.838C17.304 33.562 17.016 33.022 16.776 32.218L15.444 28.024C15.132 28.036 14.73 28.048 14.238 28.06C13.746 28.06 13.434 28.06 13.302 28.06H8.352ZM9.324 18.412L7.254 24.91C7.53 24.91 7.866 24.904 8.262 24.892C8.67 24.88 8.946 24.874 9.09 24.874H12.672C12.804 24.874 13.056 24.88 13.428 24.892C13.812 24.892 14.154 24.898 14.454 24.91L12.798 19.708C12.474 18.664 12.138 17.56 11.79 16.396C11.454 15.22 11.166 14.158 10.926 13.21H10.728C10.548 14.014 10.314 14.92 10.026 15.928C9.75 16.924 9.516 17.752 9.324 18.412ZM23.3457 25.324C23.3457 23.188 23.6817 21.424 24.3537 20.032C25.0257 18.64 25.8897 17.608 26.9457 16.936C28.0017 16.252 29.1057 15.91 30.2577 15.91C31.0137 15.91 31.7277 16.024 32.3997 16.252C33.0717 16.468 33.7137 16.75 34.3257 17.098V7.756L34.5597 7.522H35.9637C36.7437 7.522 37.2717 7.714 37.5477 8.098C37.8357 8.47 37.9797 9.07 37.9797 9.898V28.942C37.9797 29.638 38.0457 30.292 38.1777 30.904C38.3217 31.516 38.5917 31.996 38.9877 32.344C38.8917 32.68 38.7057 33.04 38.4297 33.424C38.1657 33.796 37.8837 34.078 37.5837 34.27C36.8637 34.126 36.2757 33.856 35.8197 33.46C35.3637 33.064 35.0157 32.584 34.7757 32.02C34.1637 32.716 33.4077 33.298 32.5077 33.766C31.6197 34.234 30.6297 34.468 29.5377 34.468C28.1697 34.468 27.0237 34.084 26.0997 33.316C25.1877 32.536 24.4977 31.462 24.0297 30.094C23.5737 28.714 23.3457 27.124 23.3457 25.324ZM27.1437 25.342C27.1437 27.49 27.4677 29.032 28.1157 29.968C28.7637 30.904 29.5257 31.372 30.4017 31.372C31.0377 31.372 31.7097 31.186 32.4177 30.814C33.1377 30.442 33.7737 29.866 34.3257 29.086V20.194C33.7857 19.834 33.2097 19.528 32.5977 19.276C31.9977 19.024 31.3857 18.898 30.7617 18.898C29.7537 18.898 28.8957 19.426 28.1877 20.482C27.4917 21.526 27.1437 23.146 27.1437 25.342ZM57.9876 25.108C57.9876 26.956 57.6936 28.582 57.1056 29.986C56.5176 31.39 55.6476 32.488 54.4956 33.28C53.3436 34.072 51.9096 34.468 50.1936 34.468C48.4896 34.468 47.0616 34.072 45.9096 33.28C44.7576 32.476 43.8876 31.372 43.2996 29.968C42.7236 28.552 42.4356 26.932 42.4356 25.108C42.4356 23.284 42.7296 21.67 43.3176 20.266C43.9056 18.85 44.7756 17.746 45.9276 16.954C47.0796 16.162 48.5016 15.766 50.1936 15.766C51.9216 15.766 53.3616 16.168 54.5136 16.972C55.6656 17.764 56.5296 18.868 57.1056 20.284C57.6936 21.688 57.9876 23.296 57.9876 25.108ZM46.2696 25.108C46.2696 26.236 46.3836 27.298 46.6116 28.294C46.8396 29.278 47.2416 30.082 47.8176 30.706C48.3936 31.318 49.1976 31.624 50.2296 31.624C51.2496 31.624 52.0416 31.318 52.6056 30.706C53.1816 30.082 53.5836 29.278 53.8116 28.294C54.0396 27.298 54.1536 26.236 54.1536 25.108C54.1536 24.004 54.0396 22.954 53.8116 21.958C53.5836 20.962 53.1816 20.152 52.6056 19.528C52.0416 18.904 51.2496 18.592 50.2296 18.592C49.1976 18.592 48.3936 18.904 47.8176 19.528C47.2416 20.152 46.8396 20.962 46.6116 21.958C46.3836 22.954 46.2696 24.004 46.2696 25.108ZM76.1327 17.908C76.1327 16.996 75.9827 16.09 75.6827 15.19C75.3947 14.29 74.8847 13.546 74.1527 12.958C73.4207 12.358 72.4067 12.058 71.1107 12.058C69.2147 12.058 67.7807 12.892 66.8087 14.56C65.8487 16.216 65.3687 18.64 65.3687 21.832C65.3687 24.808 65.8967 27.1 66.9527 28.708C68.0087 30.316 69.4667 31.12 71.3267 31.12C72.4427 31.12 73.5347 30.886 74.6027 30.418C75.6707 29.938 76.7207 29.26 77.7527 28.384C78.1727 28.66 78.5687 29.032 78.9407 29.5C79.3127 29.968 79.5527 30.424 79.6607 30.868C78.6767 31.864 77.3927 32.716 75.8087 33.424C74.2367 34.12 72.5327 34.468 70.6967 34.468C68.9687 34.468 67.5047 34.114 66.3047 33.406C65.1167 32.698 64.1567 31.744 63.4247 30.544C62.6927 29.332 62.1587 27.976 61.8227 26.476C61.4987 24.964 61.3367 23.41 61.3367 21.814C61.3367 18.826 61.7867 16.384 62.6867 14.488C63.5987 12.592 64.7987 11.194 66.2867 10.294C67.7867 9.382 69.4187 8.926 71.1827 8.926C72.9707 8.926 74.5127 9.262 75.8087 9.934C77.1047 10.594 78.1067 11.464 78.8147 12.544C79.5227 13.612 79.8767 14.752 79.8767 15.964C79.8767 16.624 79.7087 17.152 79.3727 17.548C79.0367 17.944 78.4787 18.142 77.6987 18.142C77.4107 18.142 77.1467 18.124 76.9067 18.088C76.6787 18.052 76.4207 17.992 76.1327 17.908ZM82.6012 29.158C82.6012 27.79 82.9012 26.668 83.5012 25.792C84.1132 24.916 84.9352 24.268 85.9672 23.848C87.0112 23.416 88.1812 23.2 89.4772 23.2C89.9812 23.2 90.5332 23.218 91.1332 23.254C91.7452 23.278 92.3512 23.332 92.9512 23.416V22.03C92.9512 20.902 92.6932 20.092 92.1772 19.6C91.6612 19.108 90.9412 18.862 90.0172 18.862C89.1052 18.862 88.1632 19 87.1912 19.276C86.2312 19.54 85.2832 19.858 84.3472 20.23C84.0472 19.93 83.7952 19.522 83.5912 19.006C83.3872 18.478 83.2732 17.974 83.2492 17.494C84.2692 17.062 85.4632 16.678 86.8312 16.342C88.2112 16.006 89.5132 15.838 90.7372 15.838C92.5012 15.838 93.9232 16.33 95.0032 17.314C96.0832 18.298 96.6232 19.822 96.6232 21.886V29.266C96.6232 29.938 96.6832 30.532 96.8032 31.048C96.9352 31.552 97.2112 31.984 97.6312 32.344C97.5232 32.68 97.3372 33.04 97.0732 33.424C96.8092 33.796 96.5272 34.078 96.2272 34.27C95.4832 34.126 94.8772 33.85 94.4092 33.442C93.9532 33.034 93.6052 32.554 93.3652 32.002C92.7172 32.626 91.9372 33.196 91.0252 33.712C90.1132 34.216 89.0692 34.468 87.8932 34.468C86.7052 34.468 85.7152 34.204 84.9232 33.676C84.1432 33.148 83.5612 32.476 83.1772 31.66C82.7932 30.844 82.6012 30.01 82.6012 29.158ZM86.2912 28.906C86.2912 29.638 86.5012 30.262 86.9212 30.778C87.3412 31.282 87.9412 31.534 88.7212 31.534C89.3932 31.534 90.1072 31.348 90.8632 30.976C91.6192 30.604 92.3152 30.058 92.9512 29.338V25.936C92.4112 25.876 91.8592 25.834 91.2952 25.81C90.7432 25.786 90.2152 25.774 89.7112 25.774C88.6192 25.774 87.7732 26.05 87.1732 26.602C86.5852 27.154 86.2912 27.922 86.2912 28.906ZM88.5412 12.544C88.3972 12.472 88.2172 12.394 88.0012 12.31C87.7972 12.226 87.5812 12.184 87.3532 12.184C86.9812 12.184 86.6812 12.292 86.4532 12.508C86.2252 12.712 86.0452 12.898 85.9132 13.066L85.4992 13.588C85.1392 13.576 84.7792 13.462 84.4192 13.246C84.0712 13.03 83.8312 12.754 83.6992 12.418L84.0052 11.734C84.3652 10.942 84.8572 10.306 85.4812 9.826C86.1052 9.346 86.8072 9.106 87.5872 9.106C87.9952 9.106 88.3792 9.166 88.7392 9.286C89.0992 9.406 89.3872 9.532 89.6032 9.664L91.1692 10.474C91.3012 10.546 91.4752 10.63 91.6912 10.726C91.9072 10.81 92.1352 10.852 92.3752 10.852C92.7112 10.852 92.9872 10.756 93.2032 10.564C93.4192 10.372 93.6112 10.174 93.7792 9.97L94.1752 9.448C94.5352 9.46 94.8892 9.58 95.2372 9.808C95.5972 10.024 95.8492 10.294 95.9932 10.618L95.6692 11.302C95.2972 12.154 94.7932 12.808 94.1572 13.264C93.5332 13.72 92.8432 13.948 92.0872 13.948C91.6912 13.948 91.3192 13.888 90.9712 13.768C90.6352 13.648 90.3352 13.522 90.0712 13.39L88.5412 12.544ZM115.925 25.108C115.925 26.956 115.631 28.582 115.043 29.986C114.455 31.39 113.585 32.488 112.433 33.28C111.281 34.072 109.847 34.468 108.131 34.468C106.427 34.468 104.999 34.072 103.847 33.28C102.695 32.476 101.825 31.372 101.237 29.968C100.661 28.552 100.373 26.932 100.373 25.108C100.373 23.284 100.667 21.67 101.255 20.266C101.843 18.85 102.713 17.746 103.865 16.954C105.017 16.162 106.439 15.766 108.131 15.766C109.859 15.766 111.299 16.168 112.451 16.972C113.603 17.764 114.467 18.868 115.043 20.284C115.631 21.688 115.925 23.296 115.925 25.108ZM104.207 25.108C104.207 26.236 104.321 27.298 104.549 28.294C104.777 29.278 105.179 30.082 105.755 30.706C106.331 31.318 107.135 31.624 108.167 31.624C109.187 31.624 109.979 31.318 110.543 30.706C111.119 30.082 111.521 29.278 111.749 28.294C111.977 27.298 112.091 26.236 112.091 25.108C112.091 24.004 111.977 22.954 111.749 21.958C111.521 20.962 111.119 20.152 110.543 19.528C109.979 18.904 109.187 18.592 108.167 18.592C107.135 18.592 106.331 18.904 105.755 19.528C105.179 20.152 104.777 20.962 104.549 21.958C104.321 22.954 104.207 24.004 104.207 25.108Z" fill="#FDFFFC"/>
<path d="M111.354 67.3908C116.04 65.0676 119 60.3181 119 55.1243V53.7157C119 46.1397 112.808 40 105.168 40C99.2144 40 93.93 43.7778 92.0465 49.3773C90.6185 53.6235 89.8896 57.7 84.9604 57.7H34.0377C28.9467 57.7 28.1658 52.9911 26.9516 49.3773C25.07 43.7778 19.7837 40 13.8319 40C6.19172 40 0 46.1397 0 53.7157V55.1243C0 60.3181 2.96012 65.0676 7.64575 67.3908C9.39914 68.2592 9.39914 70.7408 7.64575 71.6093C2.96012 73.9324 0 78.6819 0 83.8757V85.2843C0 92.8603 6.19172 99 13.83 99C19.7837 99 25.0681 95.2222 26.9516 89.6227C28.3796 85.3765 29.1085 81.3 34.0377 81.3H84.9604C90.0514 81.3 90.8323 86.0089 92.0465 89.6227C93.93 95.2222 99.2162 99 105.168 99C112.806 99 118.998 92.8603 118.998 85.2843V83.8757C118.998 78.68 116.038 73.9324 111.352 71.6093C109.601 70.7408 109.601 68.2592 111.354 67.3908Z" fill="#FDFFFC"/>
</svg>
