<svg width="1440" height="1024" viewBox="0 0 1440 1024" fill="none" xmlns="http://www.w3.org/2000/svg">
<rect width="1440" height="1024" fill="#FBFFFB"/>
<path d="M118.539 178.984C120.069 175.739 119.637 171.924 117.424 169.132L116.824 168.374C113.597 164.301 107.652 163.638 103.545 166.892C100.343 169.429 99.1117 173.711 100.484 177.524C101.525 180.415 102.87 182.918 100.22 185.017L72.8409 206.71C70.1037 208.879 67.6778 206.68 65.4855 205.254C62.0884 203.045 57.6369 203.266 54.4368 205.802C50.329 209.056 49.6155 214.995 52.8429 219.068L53.4429 219.826C55.6555 222.618 59.2703 223.911 62.7793 223.164C64.0919 222.884 65.1491 224.218 64.5763 225.432C63.0467 228.677 63.4785 232.492 65.6911 235.284L66.2911 236.042C69.5185 240.115 75.463 240.778 79.5698 237.524C82.7709 234.988 84.0027 230.706 82.6301 226.893C81.589 224.001 80.2442 221.499 82.8945 219.399L110.274 197.706C113.011 195.537 115.437 197.737 117.629 199.162C121.027 201.37 125.478 201.15 128.679 198.614C132.785 195.36 133.499 189.422 130.272 185.348L129.671 184.591C127.458 181.797 123.844 180.506 120.335 181.253C119.023 181.532 117.966 180.198 118.539 178.984V178.984Z" fill="#EFFAED" fill-opacity="0.25"/>
<path d="M390.539 362.984C392.069 359.739 391.637 355.924 389.424 353.132L388.824 352.374C385.597 348.301 379.652 347.638 375.545 350.892C372.343 353.429 371.112 357.711 372.484 361.524C373.525 364.415 374.87 366.918 372.22 369.018L344.841 390.711C342.104 392.879 339.678 390.68 337.486 389.254C334.088 387.045 329.637 387.266 326.437 389.802C322.329 393.056 321.616 398.995 324.843 403.068L325.443 403.826C327.656 406.618 331.27 407.911 334.779 407.164C336.092 406.884 337.149 408.218 336.576 409.432C335.047 412.677 335.478 416.492 337.691 419.284L338.291 420.042C341.518 424.115 347.463 424.778 351.57 421.524C354.771 418.988 356.003 414.706 354.63 410.893C353.589 408.001 352.244 405.499 354.894 403.399L382.274 381.706C385.011 379.537 387.437 381.737 389.629 383.162C393.027 385.371 397.478 385.15 400.679 382.614C404.785 379.36 405.499 373.422 402.272 369.348L401.671 368.591C399.458 365.798 395.844 364.506 392.335 365.253C391.023 365.532 389.966 364.198 390.539 362.984V362.984Z" fill="#EFFAED"/>
<path d="M149.539 586.984C151.069 583.739 150.637 579.924 148.424 577.132L147.824 576.374C144.597 572.301 138.652 571.638 134.545 574.892C131.343 577.429 130.112 581.711 131.484 585.524C132.525 588.415 133.87 590.918 131.22 593.017L103.841 614.71C101.104 616.879 98.6778 614.68 96.4855 613.254C93.0884 611.045 88.6369 611.266 85.4368 613.802C81.329 617.056 80.6155 622.995 83.8429 627.068L84.4429 627.826C86.6555 630.618 90.2703 631.911 93.7793 631.164C95.0919 630.884 96.1491 632.218 95.5763 633.432C94.0467 636.677 94.4785 640.492 96.6911 643.284L97.2911 644.042C100.518 648.115 106.463 648.778 110.57 645.524C113.771 642.988 115.003 638.706 113.63 634.893C112.589 632.001 111.244 629.499 113.894 627.399L141.274 605.706C144.011 603.537 146.437 605.737 148.629 607.162C152.027 609.37 156.478 609.15 159.679 606.614C163.785 603.36 164.499 597.422 161.272 593.348L160.671 592.591C158.458 589.797 154.844 588.506 151.335 589.253C150.023 589.532 148.966 588.198 149.539 586.984V586.984Z" fill="#EFFAED" fill-opacity="0.65"/>
<path d="M503.539 619.984C505.069 616.739 504.637 612.924 502.424 610.132L501.824 609.374C498.597 605.301 492.652 604.638 488.545 607.892C485.343 610.429 484.112 614.711 485.484 618.524C486.525 621.415 487.87 623.918 485.22 626.017L457.841 647.71C455.104 649.879 452.678 647.68 450.486 646.254C447.088 644.045 442.637 644.266 439.437 646.802C435.329 650.056 434.616 655.995 437.843 660.068L438.443 660.826C440.656 663.618 444.27 664.911 447.779 664.164C449.092 663.884 450.149 665.218 449.576 666.432C448.047 669.677 448.478 673.492 450.691 676.284L451.291 677.042C454.518 681.115 460.463 681.778 464.57 678.524C467.771 675.988 469.003 671.706 467.63 667.893C466.589 665.001 465.244 662.499 467.894 660.399L495.274 638.706C498.011 636.537 500.437 638.737 502.629 640.162C506.027 642.37 510.478 642.15 513.679 639.614C517.785 636.36 518.499 630.422 515.272 626.348L514.671 625.591C512.458 622.797 508.844 621.506 505.335 622.253C504.023 622.532 502.966 621.198 503.539 619.984V619.984Z" fill="#EFFAED" fill-opacity="0.55"/>
<path d="M963.539 353.984C965.069 350.739 964.637 346.924 962.424 344.132L961.824 343.374C958.597 339.301 952.652 338.638 948.545 341.892C945.343 344.429 944.112 348.711 945.484 352.524C946.525 355.415 947.87 357.918 945.22 360.017L917.841 381.71C915.104 383.879 912.678 381.68 910.486 380.254C907.088 378.045 902.637 378.266 899.437 380.802C895.329 384.056 894.616 389.995 897.843 394.068L898.443 394.826C900.656 397.618 904.27 398.911 907.779 398.164C909.092 397.884 910.149 399.218 909.576 400.432C908.047 403.677 908.478 407.492 910.691 410.284L911.291 411.041C914.518 415.115 920.463 415.778 924.57 412.524C927.771 409.988 929.003 405.706 927.63 401.893C926.589 399.001 925.244 396.499 927.894 394.399L955.274 372.706C958.011 370.537 960.437 372.736 962.629 374.162C966.027 376.37 970.478 376.15 973.679 373.614C977.785 370.36 978.499 364.422 975.272 360.348L974.671 359.591C972.458 356.797 968.844 355.506 965.335 356.253C964.023 356.532 962.966 355.198 963.539 353.984V353.984Z" fill="#EFFAED" fill-opacity="0.55"/>
<path d="M1231.54 192.984C1233.07 189.739 1232.64 185.924 1230.42 183.132L1229.82 182.374C1226.6 178.301 1220.65 177.638 1216.54 180.892C1213.34 183.429 1212.11 187.711 1213.48 191.524C1214.53 194.415 1215.87 196.918 1213.22 199.017L1185.84 220.71C1183.1 222.879 1180.68 220.68 1178.49 219.254C1175.09 217.045 1170.64 217.266 1167.44 219.802C1163.33 223.056 1162.62 228.995 1165.84 233.068L1166.44 233.826C1168.66 236.618 1172.27 237.911 1175.78 237.164C1177.09 236.884 1178.15 238.218 1177.58 239.432C1176.05 242.677 1176.48 246.492 1178.69 249.284L1179.29 250.042C1182.52 254.115 1188.46 254.778 1192.57 251.524C1195.77 248.988 1197 244.706 1195.63 240.893C1194.59 238.001 1193.24 235.499 1195.89 233.399L1223.27 211.706C1226.01 209.537 1228.44 211.737 1230.63 213.162C1234.03 215.37 1238.48 215.15 1241.68 212.614C1245.79 209.36 1246.5 203.422 1243.27 199.348L1242.67 198.591C1240.46 195.797 1236.84 194.506 1233.34 195.253C1232.02 195.532 1230.97 194.198 1231.54 192.984V192.984Z" fill="#EFFAED" fill-opacity="0.55"/>
<path d="M1101.54 416.984C1103.07 413.739 1102.64 409.924 1100.42 407.132L1099.82 406.374C1096.6 402.301 1090.65 401.638 1086.54 404.892C1083.34 407.429 1082.11 411.711 1083.48 415.524C1084.53 418.415 1085.87 420.918 1083.22 423.017L1055.84 444.71C1053.1 446.879 1050.68 444.68 1048.49 443.254C1045.09 441.045 1040.64 441.266 1037.44 443.802C1033.33 447.056 1032.62 452.995 1035.84 457.068L1036.44 457.826C1038.66 460.618 1042.27 461.911 1045.78 461.164C1047.09 460.884 1048.15 462.218 1047.58 463.432C1046.05 466.677 1046.48 470.492 1048.69 473.284L1049.29 474.041C1052.52 478.115 1058.46 478.778 1062.57 475.524C1065.77 472.988 1067 468.706 1065.63 464.893C1064.59 462.001 1063.24 459.499 1065.89 457.399L1093.27 435.706C1096.01 433.537 1098.44 435.736 1100.63 437.162C1104.03 439.37 1108.48 439.15 1111.68 436.614C1115.79 433.36 1116.5 427.422 1113.27 423.348L1112.67 422.591C1110.46 419.797 1106.84 418.506 1103.34 419.253C1102.02 419.532 1100.97 418.198 1101.54 416.984V416.984Z" fill="#EFFAED" fill-opacity="0.76"/>
<path d="M1032.54 789.984C1034.07 786.739 1033.64 782.924 1031.42 780.132L1030.82 779.374C1027.6 775.301 1021.65 774.638 1017.54 777.892C1014.34 780.429 1013.11 784.711 1014.48 788.524C1015.53 791.415 1016.87 793.918 1014.22 796.017L986.841 817.71C984.104 819.879 981.678 817.68 979.486 816.254C976.088 814.045 971.637 814.266 968.437 816.802C964.329 820.056 963.616 825.995 966.843 830.068L967.443 830.826C969.656 833.618 973.27 834.911 976.779 834.164C978.092 833.884 979.149 835.218 978.576 836.432C977.047 839.677 977.478 843.492 979.691 846.284L980.291 847.042C983.518 851.115 989.463 851.778 993.57 848.524C996.771 845.988 998.003 841.706 996.63 837.893C995.589 835.001 994.244 832.499 996.894 830.399L1024.27 808.706C1027.01 806.537 1029.44 808.737 1031.63 810.162C1035.03 812.37 1039.48 812.15 1042.68 809.614C1046.79 806.36 1047.5 800.422 1044.27 796.348L1043.67 795.591C1041.46 792.797 1037.84 791.506 1034.34 792.253C1033.02 792.532 1031.97 791.198 1032.54 789.984V789.984Z" fill="#EFFAED"/>
<path d="M1365.54 668.984C1367.07 665.739 1366.64 661.924 1364.42 659.132L1363.82 658.374C1360.6 654.301 1354.65 653.638 1350.54 656.892C1347.34 659.429 1346.11 663.711 1347.48 667.524C1348.53 670.415 1349.87 672.918 1347.22 675.017L1319.84 696.71C1317.1 698.879 1314.68 696.68 1312.49 695.254C1309.09 693.045 1304.64 693.266 1301.44 695.802C1297.33 699.056 1296.62 704.995 1299.84 709.068L1300.44 709.826C1302.66 712.618 1306.27 713.911 1309.78 713.164C1311.09 712.884 1312.15 714.218 1311.58 715.432C1310.05 718.677 1310.48 722.492 1312.69 725.284L1313.29 726.042C1316.52 730.115 1322.46 730.778 1326.57 727.524C1329.77 724.988 1331 720.706 1329.63 716.893C1328.59 714.001 1327.24 711.499 1329.89 709.399L1357.27 687.706C1360.01 685.537 1362.44 687.737 1364.63 689.162C1368.03 691.37 1372.48 691.15 1375.68 688.614C1379.79 685.36 1380.5 679.422 1377.27 675.348L1376.67 674.591C1374.46 671.797 1370.84 670.506 1367.34 671.253C1366.02 671.532 1364.97 670.198 1365.54 668.984V668.984Z" fill="#EFFAED" fill-opacity="0.65"/>
<path d="M1235.54 892.984C1237.07 889.739 1236.64 885.924 1234.42 883.132L1233.82 882.374C1230.6 878.301 1224.65 877.638 1220.54 880.892C1217.34 883.429 1216.11 887.711 1217.48 891.524C1218.53 894.415 1219.87 896.918 1217.22 899.017L1189.84 920.71C1187.1 922.879 1184.68 920.68 1182.49 919.254C1179.09 917.045 1174.64 917.266 1171.44 919.802C1167.33 923.056 1166.62 928.995 1169.84 933.068L1170.44 933.826C1172.66 936.618 1176.27 937.911 1179.78 937.164C1181.09 936.884 1182.15 938.218 1181.58 939.432C1180.05 942.677 1180.48 946.492 1182.69 949.284L1183.29 950.041C1186.52 954.115 1192.46 954.778 1196.57 951.524C1199.77 948.988 1201 944.706 1199.63 940.893C1198.59 938.001 1197.24 935.499 1199.89 933.399L1227.27 911.706C1230.01 909.537 1232.44 911.736 1234.63 913.162C1238.03 915.37 1242.48 915.15 1245.68 912.614C1249.79 909.36 1250.5 903.422 1247.27 899.348L1246.67 898.591C1244.46 895.797 1240.84 894.506 1237.34 895.253C1236.02 895.532 1234.97 894.198 1235.54 892.984V892.984Z" fill="#EFFAED"/>
<path d="M471.539 821.984C473.069 818.739 472.637 814.924 470.424 812.132L469.824 811.374C466.597 807.301 460.652 806.638 456.545 809.892C453.343 812.429 452.112 816.711 453.484 820.524C454.525 823.415 455.87 825.918 453.22 828.017L425.841 849.71C423.104 851.879 420.678 849.68 418.486 848.254C415.088 846.045 410.637 846.266 407.437 848.802C403.329 852.056 402.616 857.995 405.843 862.068L406.443 862.826C408.656 865.618 412.27 866.911 415.779 866.164C417.092 865.884 418.149 867.218 417.576 868.432C416.047 871.677 416.478 875.492 418.691 878.284L419.291 879.041C422.518 883.115 428.463 883.778 432.57 880.524C435.771 877.988 437.003 873.706 435.63 869.893C434.589 867.001 433.244 864.499 435.894 862.399L463.274 840.706C466.011 838.537 468.437 840.736 470.629 842.162C474.027 844.37 478.478 844.15 481.679 841.614C485.785 838.36 486.499 832.422 483.272 828.348L482.671 827.591C480.458 824.797 476.844 823.506 473.335 824.253C472.023 824.532 470.966 823.198 471.539 821.984V821.984Z" fill="#EFFAED" fill-opacity="0.25"/>
<path d="M731.539 430.984C733.069 427.739 732.637 423.924 730.424 421.132L729.824 420.374C726.597 416.301 720.652 415.638 716.545 418.892C713.343 421.429 712.112 425.711 713.484 429.524C714.525 432.415 715.87 434.918 713.22 437.017L685.841 458.71C683.104 460.879 680.678 458.68 678.486 457.254C675.088 455.045 670.637 455.266 667.437 457.802C663.329 461.056 662.616 466.995 665.843 471.068L666.443 471.826C668.656 474.618 672.27 475.911 675.779 475.164C677.092 474.884 678.149 476.218 677.576 477.432C676.047 480.677 676.478 484.492 678.691 487.284L679.291 488.042C682.518 492.115 688.463 492.778 692.57 489.524C695.771 486.988 697.003 482.706 695.63 478.893C694.589 476.001 693.244 473.499 695.894 471.399L723.274 449.706C726.011 447.537 728.437 449.737 730.629 451.162C734.027 453.37 738.478 453.15 741.679 450.614C745.785 447.36 746.499 441.422 743.272 437.348L742.671 436.591C740.458 433.797 736.844 432.506 733.335 433.253C732.023 433.532 730.966 432.198 731.539 430.984V430.984Z" fill="#EFFAED" fill-opacity="0.35"/>
<path d="M609.539 884.984C611.069 881.739 610.637 877.924 608.424 875.132L607.824 874.374C604.597 870.301 598.652 869.638 594.545 872.892C591.343 875.429 590.112 879.711 591.484 883.524C592.525 886.415 593.87 888.918 591.22 891.017L563.841 912.71C561.104 914.879 558.678 912.68 556.486 911.254C553.088 909.045 548.637 909.266 545.437 911.802C541.329 915.056 540.616 920.995 543.843 925.068L544.443 925.826C546.656 928.618 550.27 929.911 553.779 929.164C555.092 928.884 556.149 930.218 555.576 931.432C554.047 934.677 554.478 938.492 556.691 941.284L557.291 942.041C560.518 946.115 566.463 946.778 570.57 943.524C573.771 940.988 575.003 936.706 573.63 932.893C572.589 930.001 571.244 927.499 573.894 925.399L601.274 903.706C604.011 901.537 606.437 903.736 608.629 905.162C612.027 907.37 616.478 907.15 619.679 904.614C623.785 901.36 624.499 895.422 621.272 891.348L620.671 890.591C618.458 887.797 614.844 886.506 611.335 887.253C610.023 887.532 608.966 886.198 609.539 884.984V884.984Z" fill="#EFFAED"/>
</svg>
