<svg xmlns="http://www.w3.org/2000/svg" width="281.378" height="276.247" viewBox="0 0 281.378 276.247">
  <g id="Dog" transform="translate(-0.014 -0.01)">
    <g id="Layer_2" data-name="Layer 2" transform="translate(1.751 1.754)">
      <g id="Grupo_14" data-name="Grupo 14">
        <path id="Caminho_50" data-name="Caminho 50" d="M922.335,539.346a9.353,9.353,0,0,0,2.71,1.947,11.892,11.892,0,0,0,5.561.567,12.439,12.439,0,0,0,4.125-.763,9.154,9.154,0,0,0,4.72-5.911,24.1,24.1,0,0,0,.546-8.348c-.07-1.114-.329-1.3-.4-1.331a1.77,1.77,0,0,0-.63,0c-1.933.266-3.824.644-5.252.945l-.742.161c-2,.427-4.034.9-6.03,1.4s-4.02,1.064-6,1.653c-.987.287-1.975.6-2.962.9l-.259.077-.21.063a17.746,17.746,0,0,0,1.807,4.636A17.548,17.548,0,0,0,922.335,539.346Z" transform="translate(-790.202 -398.961)" fill="#1d1d1e"/>
        <path id="Caminho_51" data-name="Caminho 51" d="M942.1,572.235a.875.875,0,0,1-.868.882h0a.875.875,0,0,1-.875-.868,31.877,31.877,0,0,0-2.374-11.821,10.07,10.07,0,0,1-.357,1.478,6.961,6.961,0,0,1-3.621,4.23,22.541,22.541,0,0,0,2.983,5.743c1.121,1.744,2.367,3.5,4.111,3.831a3.355,3.355,0,0,0,3.551-1.835,7.45,7.45,0,0,0,.392-2.983,79.476,79.476,0,0,0-.287-8.159,12.4,12.4,0,0,1-5.3-3.292,33.756,33.756,0,0,1,2.647,12.795Z" transform="translate(-795.144 -409.138)" fill="#ee8686"/>
        <path id="Caminho_52" data-name="Caminho 52" d="M890.45,537.444a14.125,14.125,0,0,0,2.871-.2,10.134,10.134,0,0,0,2.8-1.128,16.6,16.6,0,0,0,4.965-4.1,11.291,11.291,0,0,0,1.457-2.318,12.376,12.376,0,0,0,.7-2.255,18.041,18.041,0,0,0,.287-6.415,19.224,19.224,0,0,0-1.926-6.2,5.854,5.854,0,0,0-1.457-2.143l-.7-.742a13.405,13.405,0,0,0-2.8-1.856,24.392,24.392,0,0,0-5.2-.924,13.543,13.543,0,0,0-5.6.973c-.294.091-.581.189-.861.3a10.167,10.167,0,0,0-2.57,1.4,12.852,12.852,0,0,0-3.453,4.706,20.349,20.349,0,0,0-2.409,10.617,11.044,11.044,0,0,0,5.322,8.782C884.441,537.325,887.649,537.444,890.45,537.444Z" transform="translate(-777.912 -394.068)" fill="#1d1d1e"/>
        <path id="Caminho_53" data-name="Caminho 53" d="M993.165,459a55.043,55.043,0,0,1-4.468,12.963,21,21,0,0,1-1.247,2.248c-5.238-6.562-11.114-13.5-18.46-18.39a78.67,78.67,0,0,1,2.99-8.117,23.964,23.964,0,0,1,2.1-4.069,26.029,26.029,0,0,1,4.9-5.021c1.4,8.439,3.586,14.006,6.569,16.843.056.049.126.126.21.217a10.156,10.156,0,0,0,3.165,2.409,20.248,20.248,0,0,0,3.193.868Z" transform="translate(-805.63 -372.927)" fill="#a3a3a3"/>
        <path id="Caminho_54" data-name="Caminho 54" d="M876.634,502.557c.084-.1.161-.2.245-.287a15.152,15.152,0,0,1,1.268-1.233,19.487,19.487,0,0,1,2.864-2.031,25.921,25.921,0,0,1,3.5-1.674c.385-.154.784-.3,1.177-.448a14.238,14.238,0,0,0,4.538-2.318c1.345-1.17,2.206-3.348,1.247-4.811a4.073,4.073,0,0,0-3.5-1.506h0a10.231,10.231,0,0,0-7.192,3.4,18.837,18.837,0,0,0-4.1,7.388l-.126.385a8.543,8.543,0,0,0-.63,2.976.7.7,0,0,0,.266.448.21.21,0,0,0,.161.049,1.749,1.749,0,0,0,.287-.343Z" transform="translate(-777.738 -387.803)" fill="#919191"/>
        <path id="Caminho_55" data-name="Caminho 55" d="M877.383,470.534a.336.336,0,0,1-.063-.07,71.65,71.65,0,0,0-11.961-15.68l-.091-.084c-.126,2.262-.189,4.573-.252,6.814a120.521,120.521,0,0,1-.987,14.567,7.185,7.185,0,0,1-.756,2.584,5.694,5.694,0,0,1-1.975,1.968,15.841,15.841,0,0,1-5.546,1.961,17.163,17.163,0,0,0,3.642,3.789L863.629,490a56.1,56.1,0,0,1,13.754-19.462Z" transform="translate(-771.694 -377.749)" fill="#a3a3a3"/>
        <path id="Caminho_56" data-name="Caminho 56" d="M979.173,535.143a16.206,16.206,0,0,0-4.356-6.954c-3.418-3.207-8.18-4.846-12.382-6.3l-13.754-4.741a76.416,76.416,0,0,1-7.514,10.694l-.308.378a.882.882,0,0,1-.7.315.9.9,0,0,1-.56-.2.7.7,0,0,1-.1-.105.433.433,0,0,1-.105-.154.862.862,0,0,1,.1-.974q2.059-2.472,3.789-4.86a.253.253,0,0,0,.049-.07,51.668,51.668,0,0,0,8.278-16.261,32.247,32.247,0,0,0,1.211-8,40.535,40.535,0,0,0-.5-6.905,64.786,64.786,0,0,0-5.308-17.76.875.875,0,0,1,.427-1.163.854.854,0,0,1,1.008.217c3.2-2.423,4.6-6.751,5.659-10.666a38.517,38.517,0,0,0,1.6-8.922,38.385,38.385,0,0,1-5.6.4h-.5a56.293,56.293,0,0,1-4.678,13.691,20.244,20.244,0,0,1-1.681,2.9l.784.994a.875.875,0,0,1-.7,1.4.9.9,0,0,1-.7-.336c-6.3-8-13.5-17.074-23.026-22.312a.876.876,0,0,1,.847-1.534c.553.308,1.107.63,1.646.966a81.464,81.464,0,0,1,3-7.809,25.782,25.782,0,0,1,2.29-4.356,29.831,29.831,0,0,1,5.862-5.9.894.894,0,0,1,.175-.105q-.28-1.954-.525-4.1a.875.875,0,0,1,1.737-.2c1.275,11.338,3.586,18.691,6.884,21.857a3.706,3.706,0,0,1,.273.273,8.445,8.445,0,0,0,2.6,2.01,22.653,22.653,0,0,0,2.605.7c7.3.469,12.907-.6,18.747-3.6A15.639,15.639,0,0,0,971,443.6a2.157,2.157,0,0,0,.532-1.043,2.591,2.591,0,0,0-.343-1.057L965.076,428.6a21.84,21.84,0,0,0-2.983-5.07,14.059,14.059,0,0,0-8-4.258,38.763,38.763,0,0,0-9.559-.322,50.828,50.828,0,0,0-6.086.623A28.65,28.65,0,0,0,916.565,439.1v.049a.875.875,0,0,1-.945.8c-2.045-.168-4.111-.42-6.107-.658l-1.4-.168c-1.835-.217-3.7-.42-5.553-.553a36.383,36.383,0,0,0-12.732.959,47.057,47.057,0,0,0-4.727,1.723c-4.2,1.709-8.222,3.5-11.443,6.268a.771.771,0,0,1-.763.175.861.861,0,0,1-.567-.14,11.6,11.6,0,0,1-2.906-3.32c-.2-.287-.385-.574-.588-.847-4.671-6.632-13.054-9.9-19.784-12.522a22.36,22.36,0,0,0-5.96-1.716,16.478,16.478,0,0,0-5.7.637,44.924,44.924,0,0,0-12.1,5.294c-2.367,1.45-4.965,3.291-6.3,5.96-1.254,2.556-1.191,5.659-1.142,8.4l.364,19.126v.441c0,.7,0,1.247.28,1.457a2.41,2.41,0,0,0,.7.266,26.937,26.937,0,0,0,5.266.7,77.912,77.912,0,0,0,19.259-1.289,14.9,14.9,0,0,0,5.238-1.779,3.978,3.978,0,0,0,1.4-1.352,5.847,5.847,0,0,0,.553-1.982,119.1,119.1,0,0,0,.966-14.357c.063-2.3.133-4.664.259-7a1.82,1.82,0,0,1,.532-1.345c.7-.609,1.667-.441,2.535.413a73.755,73.755,0,0,1,12.115,15.82c.56-.483,1.135-.959,1.716-1.4a.875.875,0,1,1,1.093,1.366A54.437,54.437,0,0,0,852.871,482.4a.861.861,0,0,1-.819.574.764.764,0,0,1-.3-.056.868.868,0,0,1-.518-1.121c.1-.294.224-.581.336-.868l-4.706-3.985a17.512,17.512,0,0,1-4.328-4.769,79.605,79.605,0,0,1-9.181,1.036l10.666,11.065a77.229,77.229,0,0,0,5.645,5.477l.077.063a4.7,4.7,0,0,1,2.017,3.677,88.022,88.022,0,0,0,10.792,30.569,46.6,46.6,0,0,0,8.229,10.75l.056.056a23.511,23.511,0,0,0,9.727,5.666.869.869,0,0,1,.609,1.078.883.883,0,0,1-.84.644.932.932,0,0,1-.238-.035,24.285,24.285,0,0,1-8.922-4.72,42.81,42.81,0,0,1-2.1,12.8l-.175.476a34.814,34.814,0,0,0-1.2,3.691,5.6,5.6,0,0,0,1.169.4l.553.126c.406.084.84.154,1.268.21h.105l3,.7c4.79,1.008,9.615,1.94,14.44,2.8A19.231,19.231,0,0,1,911.488,541.9a13.578,13.578,0,0,1,4.055,1.52c4.146,2.444,6.072,7.2,7.4,11.534.455,1.471.868,2.955,1.274,4.433h0c.189.7.385,1.4.567,2.052.392,1.436.777,2.871,1.191,4.3q1.219,4.069,2.619,7.97a137.05,137.05,0,0,0,10.421,22.942,24.508,24.508,0,0,0,5.182-.9,70.51,70.51,0,0,0,8.061-2.353c0-.231.049-.455.056-.7a45.4,45.4,0,0,0-1.24-10.876l-.091-.469c-1.226-6.254-2.339-12.641-3.312-18.972a48.337,48.337,0,0,1-.7-6.471v-.392a10.2,10.2,0,0,1,.273-3.27,2.213,2.213,0,0,1,1.233-1.4c.875-.427,1.772-.819,2.647-1.2.532-.238,1.072-.469,1.6-.7,2.542-1.156,4.65-2.059,6.506-2.85a95.192,95.192,0,0,0,9.9-4.7c1.254-.7,2.612-1.5,4.139-2.444l.441-.266c1.177-.7,2.1-1.268,2.864-1.73l2.416-1.52.252-.175C979.208,535.262,979.194,535.192,979.173,535.143Zm-70.494-80.586a18.485,18.485,0,0,1,2.654-2.633l.371-.322.084-.063c1.212-1,2.675-.777,3.859-.609h.168a34.406,34.406,0,0,1,9.8,3.32,10.44,10.44,0,0,1,2.157,1.282,10.7,10.7,0,0,1,2.556,3.8c.7,1.52,1.7,3.6,1.3,5.729a1.779,1.779,0,0,1-.6,1.113,1.687,1.687,0,0,1-1.057.329h-.266a11.033,11.033,0,0,1-4.748-1.947c-.553-.336-1.071-.651-1.6-.924a19.829,19.829,0,0,0-8.7-1.807c-1.177-.035-2.36,0-3.5,0h-1.744a2.577,2.577,0,0,1-1.485-.357,2.29,2.29,0,0,1-.917-1.912,7.549,7.549,0,0,1,1.667-4.993Zm-51.943,27.165a9.932,9.932,0,0,1,.7-3.656l.126-.378a20.68,20.68,0,0,1,4.461-8.054,11.962,11.962,0,0,1,8.446-3.95,5.806,5.806,0,0,1,5.042,2.276c1.492,2.283.378,5.4-1.569,7.094a15.94,15.94,0,0,1-5.07,2.633c-.385.147-.77.287-1.156.441a23.51,23.51,0,0,0-3.235,1.555,17.288,17.288,0,0,0-2.6,1.842,12.865,12.865,0,0,0-1.128,1.093l-.168.2a2.38,2.38,0,0,1-1.24.938,1.813,1.813,0,0,1-.476.063,1.968,1.968,0,0,1-1.149-.385,2.4,2.4,0,0,1-.987-1.716Zm66.887,34.211a7.648,7.648,0,0,1-3.5,3.656,12.824,12.824,0,0,1-6.3,1.618,13.132,13.132,0,0,1-2.1-.175c.231,2.591.245,5.2.245,7.739a8.912,8.912,0,0,1-.539,3.691,5.063,5.063,0,0,1-4.566,2.934,4.624,4.624,0,0,1-.931-.1c-2.416-.483-3.915-2.535-5.238-4.587A24.2,24.2,0,0,1,897.5,524.5c-.308.049-.616.084-.9.112-.9.084-1.821.14-2.731.168h-.427a4.9,4.9,0,0,1-1.443-.182,5.863,5.863,0,0,1-1.611-.868,18.912,18.912,0,0,1-3.726-3.089,6.842,6.842,0,0,1-1.814-4.846.875.875,0,1,1,1.744.119,5.274,5.274,0,0,0,1.4,3.586,17.249,17.249,0,0,0,3.39,2.8,4.508,4.508,0,0,0,1.135.637,4.037,4.037,0,0,0,1.3.1c.875,0,1.758-.077,2.619-.161a7.256,7.256,0,0,0,1.786-.336,5.1,5.1,0,0,0,2.9-3.319,13.566,13.566,0,0,0,.392-4.979c-.077-1.212-.217-2.43-.385-3.635h-.357c-.567.035-1.156.063-1.758.063a10.218,10.218,0,0,1-4.055-.7,10.069,10.069,0,0,1-2.962-2.052,17.228,17.228,0,0,1-4.825-8.327c-.063.385-.119.77-.21,1.148a13.072,13.072,0,0,1-.8,2.465,12.049,12.049,0,0,1-1.6,2.591,17.389,17.389,0,0,1-5.217,4.342,11.268,11.268,0,0,1-3.123,1.254,14.258,14.258,0,0,1-3.088.245c-2.864,0-6.163-.133-8.957-1.667a12.24,12.24,0,0,1-5.946-9.748,21.322,21.322,0,0,1,2.451-11.044,13.963,13.963,0,0,1,3.782-5.112,11.464,11.464,0,0,1,2.857-1.569c.3-.112.6-.224.9-.322a14.357,14.357,0,0,1,5.834-1.009h0a22.585,22.585,0,0,1,5.378.945,12.878,12.878,0,0,1,3.5,2.255c.266.287.483.5.658.7a7.165,7.165,0,0,1,1.688,2.479,20.259,20.259,0,0,1,1.989,6.464,19.909,19.909,0,0,1,.1,4.027,1.645,1.645,0,0,1,.189-.2,2.668,2.668,0,0,1,1.037-.462l.175-.049c.9-.28,1.8-.546,2.7-.805,1.807-.518,3.642-1.015,5.47-1.464s3.67-.875,5.5-1.261l.7-.14c1.317-.266,3.053-.609,4.846-.854a2.8,2.8,0,0,1,1.45.1c1.317.518,1.4,2.1,1.464,2.668a21.946,21.946,0,0,1-.567,7.956,9.622,9.622,0,0,1-5.259,6.3,9.5,9.5,0,0,1-2.1.581,11.079,11.079,0,0,0,16.31,7.662,6.029,6.029,0,0,0,2.745-2.8,8.867,8.867,0,0,0,.294-3.8.875.875,0,0,1,1.744-.119,10.274,10.274,0,0,1-.427,4.58Zm14.293-21.458a17.985,17.985,0,0,1-5.413,4.335,11.662,11.662,0,0,1-3.236,1.247,14.929,14.929,0,0,1-3.166.238h0c-.819,0-1.681,0-2.549-.056a16.108,16.108,0,0,1-6.737-1.6,12.269,12.269,0,0,1-6.177-9.755,20.664,20.664,0,0,1,2.549-11.058,14,14,0,0,1,3.929-5.112c.119-.084.238-.175.364-.252a12.321,12.321,0,0,1,2.6-1.3c.308-.119.623-.224.938-.329a15.611,15.611,0,0,1,6.044-1.008h0a20.783,20.783,0,0,1,3.5.539c.5.105.973.2,1.324.259a15.11,15.11,0,0,1,4.349,2.4l.7.7A7.1,7.1,0,0,1,938.7,476.2a19.8,19.8,0,0,1,2.1,6.478,18.482,18.482,0,0,1-.315,6.751,12.6,12.6,0,0,1-.833,2.472,12.066,12.066,0,0,1-1.73,2.577Z" transform="translate(-760.327 -366.989)" fill="#dcdbdb"/>
        <path id="Caminho_57" data-name="Caminho 57" d="M948.307,474.521h3.277c3.95,0,7.956.189,11.506,2.031.588.3,1.156.651,1.709.98a9.533,9.533,0,0,0,3.992,1.7h.042c.273-1.45-.364-2.962-1.163-4.65a9.138,9.138,0,0,0-2.1-3.2,8.892,8.892,0,0,0-1.793-1.05,32.752,32.752,0,0,0-9.307-3.158h-.175c-1.2-.175-1.961-.245-2.542.259l-.35.28a17.121,17.121,0,0,0-2.4,2.374,5.883,5.883,0,0,0-1.331,3.824c0,.392.112.539.147.56A1.4,1.4,0,0,0,948.307,474.521Z" transform="translate(-799.24 -381.448)" fill="#919191"/>
        <path id="Caminho_58" data-name="Caminho 58" d="M1055.549,569.688l-.119.077c-1.849,1.156-4.468,2.836-7.094,4.51l-2.8,1.793a18.013,18.013,0,0,0-4.748-7.43A24.509,24.509,0,0,0,1034,564.3q.672-3.152,1.177-6.3c.7.322,1.4.644,2.178.966C1043.664,561.789,1050.808,564.94,1055.549,569.688Z" transform="translate(-825.112 -408.706)" fill="#ac9071"/>
        <path id="Caminho_59" data-name="Caminho 59" d="M770.233,508.283a23.2,23.2,0,0,0-2.276-7.108,8.248,8.248,0,0,0-5.343-4.2,7.213,7.213,0,0,0-5.9,1.9,11.205,11.205,0,0,0-3.354,5.484c-.105.35-.182.742-.266,1.17-.28,1.443-.637,3.249-2.311,4.111a8.009,8.009,0,0,1-4.706.343l-.791-.1a30.015,30.015,0,0,0-3.439-.266,7.13,7.13,0,0,0-3.453.7,5.459,5.459,0,0,0-2.22,3.305c-1.891,6.576,2.43,13.467,7.7,16.878,5.75,3.74,12.837,4.7,19.609,5.175,2.626.182,6.3.161,7.837-2.178a8.141,8.141,0,0,0,.91-3.957A85.926,85.926,0,0,0,770.233,508.283Z" transform="translate(-735.724 -390.399)" fill="#c54141"/>
        <path id="Caminho_60" data-name="Caminho 60" d="M1028.94,521.37a111.229,111.229,0,0,1-2.472,23.888c-1.534-.616-3.074-1.148-4.552-1.653l-7.465-2.57a45.365,45.365,0,0,0,1.625-5.1q.084-.273.147-.546c1.779-7.311,1.744-14.938,1.709-22.305a142.567,142.567,0,0,1,.42-14.357,2.633,2.633,0,0,1,.574-1.737,1.772,1.772,0,0,1,1.142-.266c2.248,0,4.594,1.618,5.974,4.041a20.749,20.749,0,0,1,2.1,7.773,109.7,109.7,0,0,1,.8,12.83Z" transform="translate(-819.253 -390.34)" fill="#dcdbdb"/>
        <path id="Caminho_61" data-name="Caminho 61" d="M1012.276,548.94c-.091.448-.2.9-.3,1.338a45.873,45.873,0,0,1-1.723,5.5l-4.342-1.5a46.777,46.777,0,0,0,2.892-6.457c.49.133.9.224,1.24.3A6.738,6.738,0,0,1,1012.276,548.94Z" transform="translate(-816.694 -405.656)" fill="#ac9071"/>
        <path id="Caminho_62" data-name="Caminho 62" d="M967.509,492.826h0a15.353,15.353,0,0,0-5.89.959c-.3.1-.6.2-.9.308h0a10.932,10.932,0,0,0-2.7,1.366,12.958,12.958,0,0,0-3.635,4.643,19.308,19.308,0,0,0-2.521,10.463,10.827,10.827,0,0,0,5.6,8.656c2.71,1.4,6.079,1.506,9.027,1.506h0a15.35,15.35,0,0,0,2.99-.21,10.9,10.9,0,0,0,2.948-1.114,17.2,17.2,0,0,0,5.217-4.048,10.775,10.775,0,0,0,1.527-2.29,11.308,11.308,0,0,0,.763-2.213,16.606,16.606,0,0,0,.3-6.3,18.294,18.294,0,0,0-2.017-6.107,5.777,5.777,0,0,0-1.527-2.1c-.2-.189-.448-.427-.756-.735a17.283,17.283,0,0,0-3.6-1.954c-.392-.063-.91-.168-1.485-.28A22.564,22.564,0,0,0,967.509,492.826Z" transform="translate(-800.48 -389.172)" fill="#1d1d1e"/>
        <path id="Caminho_63" data-name="Caminho 63" d="M946.28,364.464a6.3,6.3,0,0,1-.889,3.348,9.338,9.338,0,0,1-7.963,3.957h-.7c-3.13-.2-6.443-1.6-9.853-4.2l-.147-.112a8.075,8.075,0,0,0-2.633-1.478,5.836,5.836,0,0,0-1.653-.21,7.892,7.892,0,0,0-1.184.056,72.188,72.188,0,0,0-20.827,5.035l-1.226.511a1.744,1.744,0,0,0-1.064,1.66c.063,2.1,0,3.929-.889,5.147-1.057,1.4-3.221,1.786-5.2,2.01a20.584,20.584,0,0,1-2.1.14,5.932,5.932,0,0,1-2.6-.483c-2.059-.98-3.081-3.649-3.817-6.128a10.406,10.406,0,0,1-.623-4.293,3.011,3.011,0,0,1,1.345-2.178,4.634,4.634,0,0,0,.658-.238,1.751,1.751,0,0,0-.7-3.355,2.011,2.011,0,0,0-.406.049,4.519,4.519,0,0,0-.7.217,1.623,1.623,0,0,1-.322,0,3.4,3.4,0,0,1-2.409-1.24,11.142,11.142,0,0,1-1.912-4.538c-.7-2.7-1.191-5.736.238-7.7s4.167-2.262,6.3-2.262h.546a11.842,11.842,0,0,1,5.862,1.4,4.979,4.979,0,0,1,2.549,4.2v.413a3.663,3.663,0,0,0,3.5,4.6,47.353,47.353,0,0,0,7.129.539,48.538,48.538,0,0,0,8.173-.7,47.245,47.245,0,0,0,7.437-1.891c1.233-.413,2.458-.889,3.642-1.4a3.541,3.541,0,0,0,2.521-2.92c0-.308.063-.616.084-.91a6.812,6.812,0,0,1,.336-1.933,6.471,6.471,0,0,1,1.695-2.437,10.211,10.211,0,0,1,6.219-2.318h.637c.987,0,4.328.175,5.6,2.465a5.238,5.238,0,0,1-.077,4.517,16.507,16.507,0,0,1-3.354,4.517,1.751,1.751,0,0,0,1.261,2.962,1.866,1.866,0,0,0,.392-.042,7.926,7.926,0,0,1,1.793-.21,5.764,5.764,0,0,1,2.962.749,4.965,4.965,0,0,1,2.2,3.158,7,7,0,0,1,.161,1.527Z" transform="translate(-778.298 -344.82)" fill="#cfcfce"/>
        <path id="Caminho_64" data-name="Caminho 64" d="M1097.5,463.69a18.607,18.607,0,0,1,.995-5.6,13.171,13.171,0,0,1,2.857-4.2,22.521,22.521,0,0,1,13.306-6.653,16.808,16.808,0,0,0-3.6-7.745,19.835,19.835,0,0,0-3.747-3.109,31.768,31.768,0,0,0-4.447-1.961,39.657,39.657,0,0,0-7.332-1.149h-.14c-.931,0-1.8,0-2.633-.035s-1.471,0-2.157,0a22.152,22.152,0,0,0-4.37.35,40.949,40.949,0,0,1,2.017,9.8,14.776,14.776,0,0,1-.826,7.073,14.441,14.441,0,0,1-3.116,4.244,37.823,37.823,0,0,1-10.12,7.29,22.479,22.479,0,0,0,4.538,7.388,23.006,23.006,0,0,0,19.2,7C1096.922,472.1,1097.237,467.465,1097.5,463.69Z" transform="translate(-837.157 -371.311)" fill="#8dc63f"/>
        <path id="Caminho_65" data-name="Caminho 65" d="M1082.385,453.8a13.035,13.035,0,0,0,2.759-3.719,13.474,13.474,0,0,0,.7-6.226,39.168,39.168,0,0,0-1.975-9.51,15.778,15.778,0,0,0-3.621,1.751,17.32,17.32,0,0,0-6.093,7.346,24.406,24.406,0,0,0-1.2,17.207A36.248,36.248,0,0,0,1082.385,453.8Z" transform="translate(-836.479 -371.651)" fill="#8dc63f"/>
        <path id="Caminho_66" data-name="Caminho 66" d="M1065,603.938c.1,4.531-2.458,9.391-6.835,13-4.048,3.333-9.034,5.371-13.859,7.346l-17.585,7.2a117.584,117.584,0,0,0-10.848,4.9c-.861.469-1.73.959-2.591,1.45-1.555.889-3.172,1.8-4.8,2.549a48.969,48.969,0,0,0-1.324-11.464l-.091-.483c-1.254-6.415-2.4-12.956-3.4-19.448a47.2,47.2,0,0,1-.7-6.422v-.413a9.33,9.33,0,0,1,.2-2.8c.035-.119.07-.2.329-.329.868-.42,1.786-.812,2.661-1.2l1.674-.742c2.6-1.177,4.762-2.1,6.66-2.913a92.644,92.644,0,0,0,14.707-7.479l.427-.259c2.962-1.765,4.538-2.738,5.406-3.327l4.8-3.053c2.689-1.723,5.385-3.453,7.283-4.629h0c.427-.294,1.127-.588,2.3.231a9.137,9.137,0,0,1,2.29,2.759l8.11,12.732C1062.081,594.749,1064.911,599.224,1065,603.938Z" transform="translate(-815.804 -413.836)" fill="#c09a6e"/>
        <path id="Caminho_67" data-name="Caminho 67" d="M1022.315,643.783c-3.845,15.344-9.251,30.562-21.535,39.54a61.98,61.98,0,0,1-12.241,6.569c-13.677,5.869-19.777,7.57-35.1,11.338q-.882.224-1.681.4a44.475,44.475,0,0,1-8.628,1.359c-.911-14.875.126-30.646,1.134-45.906.623-9.517,1.219-18.579,1.4-27.312,3.369,6.884,8.033,12.228,12.606,17.424,1.695,1.933,3.446,3.936,5.077,5.967l.973,1.191c2.843,3.411,6.03,6.555,10.253,7.192.308.042.609.077.91.091.616,1.057,1.233,2.1,1.877,3.137,1.191,1.919,2.885,4.139,5.4,4.2h.154a5.981,5.981,0,0,0,4-1.835,15.237,15.237,0,0,0,4.454-9.265c.28-.119.56-.231.833-.357,1.695-.763,3.32-1.688,4.9-2.584.819-.469,1.646-.938,2.479-1.4a111.464,111.464,0,0,1,10.365-4.671Z" transform="translate(-797.775 -430.215)" fill="#c09a6e"/>
        <path id="Caminho_68" data-name="Caminho 68" d="M906.877,657.435c.6-9.1,1.162-17.753,1.345-26.115a69.292,69.292,0,0,1-6.688,10.2l-1.618,2.185-6.632,9.1c-1.261,1.723-2.8,3.866-5.14,4.9a10.294,10.294,0,0,1-4.279.8c-.7,0-1.352-.042-1.982-.091-10.028-.7-19.714-3.74-29.077-6.653l-28.965-9,4.531,12.073c2.521,6.709,5.119,13.642,9.8,19.147,3.649,4.251,8.327,7.367,12.844,10.105A164.186,164.186,0,0,0,893.7,702.3c1.9.511,7.893.861,11.107,1.05l.9.056C904.839,688.452,905.889,672.688,906.877,657.435Z" transform="translate(-762.131 -430.679)" fill="#d3ab76"/>
        <path id="Caminho_69" data-name="Caminho 69" d="M953.265,612.3c-.336-1.2-.7-2.4-1.043-3.586-1.233-4.006-2.983-8.4-6.618-10.5a11.829,11.829,0,0,0-3.544-1.324A17.508,17.508,0,0,0,920.91,612.3c5.834.987,11.653,1.842,17.375,2.542a64.943,64.943,0,0,0,14.237-2.29C952.774,612.45,953.02,612.372,953.265,612.3Z" transform="translate(-791.221 -420.24)" fill="#919191"/>
        <path id="Caminho_70" data-name="Caminho 70" d="M1113.235,461.848a11.543,11.543,0,0,0-2.5,3.663,16.855,16.855,0,0,0-.868,5.042c-.266,3.7-.574,8.25.4,12.3a20.86,20.86,0,0,0,4.846-1.576,14.514,14.514,0,0,0,3.747-2.444c2.668-2.472,3.964-6.093,4.972-9.643,1.065-3.754,2.192-8.628,1.695-13.474a20.779,20.779,0,0,0-12.291,6.128Z" transform="translate(-847.768 -378.055)" fill="#8dc63f"/>
        <path id="Caminho_71" data-name="Caminho 71" d="M871.254,643.641a11.237,11.237,0,0,0,5.413-.56c1.891-.854,3.25-2.71,4.447-4.349l6.625-9.1c.525-.7,1.072-1.45,1.625-2.192,3.144-4.2,6.674-8.943,7.956-13.607-5.392-.7-10.869-1.485-16.366-2.409v.266l-1.015-.217c-3.081-.651-5.224-1.078-7.3-1.485s-4.2-.84-7.318-1.5l-.784-.182-4.069-.868c-.427-.077-.805-.168-1.156-.266-3.228-.7-6.443-1.478-9.6-2.276-5.231-1.317-10.715-2.927-16.752-4.9-8.754-2.892-17.893-6.359-25.562-12.08-8.453,3.663-15.225,10.5-18.208,18.4-.9,2.409-2.633,8.4.7,12.227a13.834,13.834,0,0,0,5.224,3.242c5.056,2.1,10.407,3.768,15.575,5.378l31.914,9.9C851.841,639.943,861.428,642.927,871.254,643.641Z" transform="translate(-751.369 -417.67)" fill="#d3ab76"/>
        <path id="Caminho_72" data-name="Caminho 72" d="M975.745,657.217c-3.873-.791-6.793-4.069-9.678-7.661l-.07-.084c-1.639-2.031-3.369-4.02-5.049-5.939-5.007-5.722-10.169-11.632-13.467-19.56a67.022,67.022,0,0,0,13.474-2.283c.245-.063.49-.14.7-.21.105.392.217.8.329,1.191.392,1.443.784,2.885,1.2,4.328q1.723,6,3.9,11.716a138.744,138.744,0,0,0,8.663,18.5Z" transform="translate(-799.184 -427.73)" fill="#c09a6e"/>
        <path id="Caminho_73" data-name="Caminho 73" d="M840.392,590.38a11.352,11.352,0,0,1-.455-3.221,19.692,19.692,0,0,1,3.116-10.295c.063-.1.133-.182.2-.28a.578.578,0,0,1-.042-.189c-.042-2.941-.7-7-3.375-9.8-3.691-3.74-9.7-3.579-12.956-3.144a13.188,13.188,0,0,0-5.771,1.891,10.155,10.155,0,0,0-3.88,6.436,28.517,28.517,0,0,0-.189,7.29C823.969,584.28,832.3,587.578,840.392,590.38Z" transform="translate(-760.047 -410.272)" fill="#c4c03f"/>
        <path id="Caminho_74" data-name="Caminho 74" d="M993.625,676.152c1.023,1.646,2.3,3.341,3.978,3.4a4.4,4.4,0,0,0,2.9-1.4,13.082,13.082,0,0,0,3.747-7.248c-2.43.861-4.9,1.485-7.374,2.1a30.673,30.673,0,0,1-4.594.882C992.728,674.654,993.162,675.417,993.625,676.152Z" transform="translate(-812.609 -442.54)" fill="#8dc63f"/>
        <path id="Caminho_75" data-name="Caminho 75" d="M852.7,570.157a13.311,13.311,0,0,1,2.171-1.933c4.146-2.941,9.881-2.983,14.833-2.486-.371-.6-.735-1.2-1.1-1.835a88.543,88.543,0,0,1-6.947-14.987,26.2,26.2,0,0,0-6.751.28,16.1,16.1,0,0,0-3.964,1.471,21.009,21.009,0,0,0-7.886,7.108,12.565,12.565,0,0,1,5.862,3.257A14.815,14.815,0,0,1,852.7,570.157Z" transform="translate(-767.891 -405.954)" fill="#bbda86"/>
        <path id="Caminho_76" data-name="Caminho 76" d="M877.817,596.556a40.544,40.544,0,0,0,1.919-13.817,43.368,43.368,0,0,1-6.016-7.227c-4.9-.609-10.995-.875-15.064,2.01a13.5,13.5,0,0,0-3.5,3.8,18.209,18.209,0,0,0-2.836,9.384,7.7,7.7,0,0,0,.945,3.929c5.82,1.912,11.114,3.5,16.177,4.741,2.283.574,4.6,1.128,6.933,1.667a28.7,28.7,0,0,1,1.288-4.034Z" transform="translate(-770.665 -413.836)" fill="#7780be"/>
      </g>
    </g>
    <g id="Layer_6" data-name="Layer 6" transform="translate(2.809 20.464)">
      <path id="Caminho_77" data-name="Caminho 77" d="M991.388,574.86a.435.435,0,0,0,.105.154h-.2Z" transform="translate(-813.371 -432.469)" fill="#ecbfda"/>
      <path id="Caminho_78" data-name="Caminho 78" d="M1005.89,554.237a46.755,46.755,0,0,0,2.892-6.457c.49.133.9.224,1.24.3a6.738,6.738,0,0,1,2.234.819c-.091.448-.2.9-.3,1.338a45.826,45.826,0,0,1-1.723,5.5Z" transform="translate(-817.746 -424.354)" fill="#ecbfda" style="mix-blend-mode: multiply;isolation: isolate"/>
      <path id="Caminho_79" data-name="Caminho 79" d="M1014.45,551.588a45.364,45.364,0,0,0,1.625-5.1,2.031,2.031,0,0,0,.483.742,3.677,3.677,0,0,0,1.05.651,19.12,19.12,0,0,0,9.468,1.6,152.163,152.163,0,0,0,1.863-17.55,111.221,111.221,0,0,1-2.472,23.888c-1.534-.616-3.074-1.148-4.552-1.653Z" transform="translate(-820.312 -419.604)" fill="#ecbfda" opacity="0.49" style="mix-blend-mode: multiply;isolation: isolate"/>
      <path id="Caminho_80" data-name="Caminho 80" d="M1031.95,577.246a.21.21,0,0,0,.049.168l-.252.175-2.416,1.52c-.749.462-1.688,1.022-2.864,1.73l-.441.266c-1.527.945-2.885,1.744-4.139,2.444-1.3-1.611-2.521-3.242-3.964-4.734a44.058,44.058,0,0,0-10-7.7,43.1,43.1,0,0,0-6.485-2.983,6.353,6.353,0,0,0-2.745-.525c-1.765.175-3.186,1.667-4.762,2.381a76.415,76.415,0,0,0,7.515-10.694l13.754,4.7c4.2,1.45,8.964,3.088,12.382,6.3A16.206,16.206,0,0,1,1031.95,577.246Z" transform="translate(-814.162 -427.803)" fill="#ecbfda" opacity="0.39" style="mix-blend-mode: multiply;isolation: isolate"/>
      <path id="Caminho_81" data-name="Caminho 81" d="M1055.549,569.688l-.119.077c-1.849,1.156-4.468,2.836-7.094,4.51l-2.8,1.793a18.013,18.013,0,0,0-4.748-7.43A24.509,24.509,0,0,0,1034,564.3q.672-3.152,1.177-6.3c.7.322,1.4.644,2.178.966C1043.664,561.789,1050.808,564.94,1055.549,569.688Z" transform="translate(-826.171 -427.417)" fill="#ecbfda" style="mix-blend-mode: multiply;isolation: isolate"/>
      <path id="Caminho_82" data-name="Caminho 82" d="M997.939,646.174a13.7,13.7,0,0,0,.658-4.265c.336-9.629-1.737-19.161-2.458-28.769a7.194,7.194,0,0,1,.287-3.327c.427-1.043,1.576-1.4,3.242-1.744,1.149,13.74,5.231,27.088,5.6,40.878.042,1.625,0,3.4-1.043,4.671a7,7,0,0,1-2.353,1.7c-1.8.931-3.929,1.779-5.792.98-.7-.3-1.31-.826-2.017-1.156-.945-.441-2.1-.483-2.976-.994s.371-1.4.84-1.7a19.365,19.365,0,0,0,4.454-3.6A9.05,9.05,0,0,0,997.939,646.174Z" transform="translate(-813.22 -442.422)" fill="#ecbfda" opacity="0.42"/>
      <path id="Caminho_83" data-name="Caminho 83" d="M927.526,614.087A118.9,118.9,0,0,0,946.5,615.8a18.908,18.908,0,0,0,6.674-.8,1.485,1.485,0,0,1,.2,2.1,4.16,4.16,0,0,1-2.01,1.226c-5.392,1.947-11.205,3.137-16.878,2.1-1.009-.182-2.01-.434-3.011-.7l-9.966-2.521a1.848,1.848,0,0,1-1.226-.7,1.883,1.883,0,0,1-.182-.861l-.14-3.439c0-.308.105-1.113.588-.826.14.091.224.322.322.448a1.569,1.569,0,0,0,.553.455,15.791,15.791,0,0,0,3.866,1.331C926.035,613.821,926.777,613.954,927.526,614.087Z" transform="translate(-791.998 -443.397)" fill="#ecbfda" style="mix-blend-mode: multiply;isolation: isolate"/>
      <path id="Caminho_84" data-name="Caminho 84" d="M883.048,494.847a39.11,39.11,0,0,1,0,4.153,1.513,1.513,0,0,0,.4,1.163,1.491,1.491,0,0,0,.889.259,13.082,13.082,0,0,0,5.385-.6,7.129,7.129,0,0,0,4.055-3.46,8.934,8.934,0,0,0,.749-3.088,7.231,7.231,0,0,0-.322-3.264c-.959-2.4-3.957-3.5-6.492-2.99a10.6,10.6,0,0,0-4.272,2,7.214,7.214,0,0,0-1.814,1.562c-.427.658.343,1.261.651,1.786A6.014,6.014,0,0,1,883.048,494.847Z" transform="translate(-780.469 -406.108)" fill="#ecbfda" style="mix-blend-mode: multiply;isolation: isolate"/>
      <path id="Caminho_85" data-name="Caminho 85" d="M968.468,477.884c-.042,1.2-.077,2.556.749,3.425a4.384,4.384,0,0,0,2.374,1.008c1.3.266,2.857.455,3.761-.518a3.284,3.284,0,0,0,.7-1.814,10.224,10.224,0,0,0-3.186-8.81,3.549,3.549,0,0,0-.84-.6,7,7,0,0,0-1.709-.371,5.478,5.478,0,0,1-.953-.266,4.782,4.782,0,0,0-.833-.35c-.7-.126-.371.826-.322,1.24.161,1.492.259,3,.28,4.5C968.51,476.175,968.5,477.029,968.468,477.884Z" transform="translate(-806.418 -400.917)" fill="#ecbfda" style="mix-blend-mode: multiply;isolation: isolate"/>
      <path id="Caminho_86" data-name="Caminho 86" d="M991.511,460.925a5.981,5.981,0,0,0,2.668.91,3.551,3.551,0,0,0,3.5-3.824c-.245-1.975-2.1-3.284-3.544-4.615a32.173,32.173,0,0,1-6.52-9.286c-1.072-2.1-2.325-4.4-4.573-5.042a4.328,4.328,0,0,0,.042-2.6,6,6,0,0,0-1.233.847,7.908,7.908,0,0,0-.868,1.226,3.871,3.871,0,0,0-.651,1.884,20.262,20.262,0,0,0,.5,5.883,22.657,22.657,0,0,0,2.059,5.6,22.949,22.949,0,0,0,3.418,4.9,21.393,21.393,0,0,0,4.58,3.782Z" transform="translate(-810.077 -390.996)" fill="#ecbfda" style="mix-blend-mode: multiply;isolation: isolate"/>
      <path id="Caminho_87" data-name="Caminho 87" d="M862.108,480.494a5.925,5.925,0,0,0,4.09-3.537,8.663,8.663,0,0,0,.315-2.549c.133-5.68.294-11.485,2.36-16.773a7.081,7.081,0,0,0,.637-2.3c.042-1.52-1.036-2.8-2.059-3.957a2.136,2.136,0,0,0-1.254-.854c-.9-.091-1.492.91-1.744,1.779a23.356,23.356,0,0,0-.49,7.262l.252,6.765a25.7,25.7,0,0,1-.483,7.619,8.641,8.641,0,0,1-4.559,5.834,14.7,14.7,0,0,1-1.478.483c-.259.077-1.043.2-.553.525.35.238,1.036.119,1.443.112a14.964,14.964,0,0,0,1.674-.084,10.171,10.171,0,0,0,1.849-.329Z" transform="translate(-773.122 -395.208)" fill="#ecbfda" style="mix-blend-mode: multiply;isolation: isolate"/>
      <path id="Caminho_88" data-name="Caminho 88" d="M954.84,501.608a2.927,2.927,0,0,0,.56,2.892,4.161,4.161,0,0,0,1.947.9,10.6,10.6,0,0,0,3.236.42,4.489,4.489,0,0,0,2.955-1.24,3.873,3.873,0,0,0,.616-4.2,4.846,4.846,0,0,0-3.5-2.612c-1.212-.238-3.117-.161-4.083.7a4.1,4.1,0,0,0-.7,1.085A9.852,9.852,0,0,0,954.84,501.608Z" transform="translate(-802.398 -409.332)" fill="#fff"/>
      <path id="Caminho_89" data-name="Caminho 89" d="M881.606,517.924a3.712,3.712,0,0,0,0,1.275,3.5,3.5,0,0,0,.9,1.674,5.372,5.372,0,0,0,3.06,1.9,3.235,3.235,0,0,0,3.235-1.247,4.313,4.313,0,0,0,.574-2.346,5.42,5.42,0,0,0-.238-1.835c-.7-2.01-3.1-2.892-5.224-3.025a2.1,2.1,0,0,0-1.029.14c-.35.182-.357.434-.469.77A18.122,18.122,0,0,0,881.606,517.924Z" transform="translate(-780.484 -414.324)" fill="#fff"/>
      <path id="Caminho_90" data-name="Caminho 90" d="M897.988,539.508c3.5-2.1,5.967-5.427,8.355-8.7-.7,5.476-4.083,10.974-9.384,12.508a21.3,21.3,0,0,1-5.539.6,20.377,20.377,0,0,1-4.573-.273c-.5-.1-3.67-.882-3.032-1.884.224-.357,1.6,0,1.982.063.812.077,1.625.112,2.437.119a22.149,22.149,0,0,0,4.79-.5,16.618,16.618,0,0,0,4.965-1.94Z" transform="translate(-781.137 -419.268)" fill="#fff"/>
      <path id="Caminho_91" data-name="Caminho 91" d="M976.785,520.154a14.594,14.594,0,0,0,2.017-2.969,56.977,56.977,0,0,0,4.5-10.5,29.082,29.082,0,0,1,.322,9.314,8.474,8.474,0,0,1-.763,2.85,10,10,0,0,1-3.761,3.5c-2.85,1.856-6.037,3.859-9.587,3.5a6.408,6.408,0,0,1-2.479-.56c-.133-.077-.532-.3-.5-.5s.7-.273.868-.322A40.088,40.088,0,0,0,972.247,523,11.9,11.9,0,0,0,976.785,520.154Z" transform="translate(-805.953 -412.037)" fill="#fff"/>
      <path id="Caminho_92" data-name="Caminho 92" d="M938.9,564.713a2.311,2.311,0,0,0-1.961-.49c-.791.217-1.352.973-2.143,1.184a1.4,1.4,0,0,0,.868-.7l.945-1.338a9.586,9.586,0,0,0,1.246-2.1,5.262,5.262,0,0,1,.567-1.352,1.681,1.681,0,0,1,.77-.588,2.585,2.585,0,0,1,2.276.427c.665.441,1.225,1.036,1.884,1.492a4.088,4.088,0,0,1,.868.7.938.938,0,0,1,.2,1.022,10.267,10.267,0,0,0-1.352-.469,1.4,1.4,0,0,0-1.338.315,1.981,1.981,0,0,0-.4,1.078c-.084.532-.161,1.065-.252,1.6-.049.273-.147.889-.483.98s-.56-.469-.7-.7a5.145,5.145,0,0,0-.995-1.057Z" transform="translate(-796.442 -427.785)" fill="#ecbfda" style="mix-blend-mode: multiply;isolation: isolate"/>
      <path id="Caminho_93" data-name="Caminho 93" d="M852.68,564.912a5.293,5.293,0,0,0,1.043,1.345,3.984,3.984,0,0,0,1.534.7,21.711,21.711,0,0,0,6.121.7,58.962,58.962,0,0,1,6.086-.224c.987.077,2.192.5,2.311,1.478a45.78,45.78,0,0,1-10.435.952,4.286,4.286,0,0,0-1.4.105,3.9,3.9,0,0,0-1.17.7c-2.92,2.178-6.877,5.56-8.46,18.3,0,0-5.14,3.376-.7-14.055.462-1.814,0-5.3.749-8.677.385-1.744-2.612-2.4-4.258-3.088-1.036-.441-2.521-1.057-2.71-2.332a2,2,0,0,1,1.639-2.255,7.7,7.7,0,0,1,3.326.952,14.9,14.9,0,0,1,3.347,2.1,14.61,14.61,0,0,1,2.976,3.3Z" transform="translate(-768.443 -427.585)" fill="#ecbfda" style="mix-blend-mode: multiply;isolation: isolate"/>
      <path id="Caminho_94" data-name="Caminho 94" d="M737.3,525.991a4.055,4.055,0,0,0,.238,1.667,2.626,2.626,0,0,0,1.583,1.331,5.927,5.927,0,0,0,2.1.238.874.874,0,0,0,.42-.091.8.8,0,0,0,.28-.434,7.906,7.906,0,0,0,.28-2.57v-4.706a2.983,2.983,0,0,0-.161-1.169,2.059,2.059,0,0,0-1.758-1.1,2.913,2.913,0,0,0-2.64,1.254c-.6.924-.364,2.143-.357,3.193Z" transform="translate(-737.235 -415.773)" fill="#ecbfda" style="mix-blend-mode: multiply;isolation: isolate"/>
      <path id="Caminho_95" data-name="Caminho 95" d="M778.94,541.36c1.163-1.849,1.036-4.356,2.43-6.03a1.562,1.562,0,0,1,1.324-.7,9.937,9.937,0,0,1-1.793,8.4,4.524,4.524,0,0,1-2.619,1.821c-.609.105-2.1-.07-2.143-.9-.042-.42.329-.588.651-.735a5.3,5.3,0,0,0,1.134-.7A4.862,4.862,0,0,0,778.94,541.36Z" transform="translate(-748.893 -420.413)" fill="#ecbfda" style="mix-blend-mode: multiply;isolation: isolate"/>
      <path id="Caminho_96" data-name="Caminho 96" d="M1108.43,465.89l-.042,12.844a28.279,28.279,0,0,0,.469,6.394,1.415,1.415,0,0,1-1.008,1.968,5.371,5.371,0,0,1-2.8.588c-1.4-.273-1.282-1.933-1.254-3.025a45.056,45.056,0,0,1,1.954-12.165A42.193,42.193,0,0,1,1108.43,465.89Z" transform="translate(-847.082 -399.813)" fill="#ecbfda" style="mix-blend-mode: multiply;isolation: isolate"/>
      <path id="Caminho_97" data-name="Caminho 97" d="M1071.39,468.685a20.513,20.513,0,0,0,7.29-2.4,5.28,5.28,0,0,1-1.274,4.657,7.493,7.493,0,0,1-4.37,2.283,1.022,1.022,0,0,1-1.345-1.163,15.131,15.131,0,0,1-.042-2.759" transform="translate(-837.376 -399.933)" fill="#ecbfda" style="mix-blend-mode: multiply;isolation: isolate"/>
      <path id="Caminho_98" data-name="Caminho 98" d="M975.041,646.09a138.73,138.73,0,0,0,8.628,18.5c-3.873-.791-6.793-4.069-9.679-7.661l-.07-.084Q974.613,651.489,975.041,646.09Z" transform="translate(-808.166 -453.816)" fill="#ecbfda" style="mix-blend-mode: multiply;isolation: isolate"/>
      <path id="Caminho_99" data-name="Caminho 99" d="M992.149,458.947l1.016.049a55.043,55.043,0,0,1-4.468,12.963,21,21,0,0,1-1.247,2.248c-5.238-6.562-11.114-13.5-18.46-18.39a78.67,78.67,0,0,1,2.99-8.117,23.964,23.964,0,0,1,2.1-4.069,26.029,26.029,0,0,1,4.9-5.021c1.4,8.439,3.586,14.006,6.569,16.843.056.049.126.126.21.217a10.156,10.156,0,0,0,3.165,2.409A20.252,20.252,0,0,0,992.149,458.947Z" transform="translate(-806.688 -391.638)" fill="#ecbfda" style="mix-blend-mode: multiply;isolation: isolate"/>
      <path id="Caminho_101" data-name="Caminho 101" d="M953.3,461.835q-1.4-5.161-2.885-10.288-1.8-6.212-3.7-12.4l1.4.168c2,.238,4.062.49,6.107.658a.875.875,0,0,0,.945-.8v-.049a28.65,28.65,0,0,1,21.857-19.525,50.828,50.828,0,0,1,6.086-.623,38.761,38.761,0,0,1,9.559.322,14.143,14.143,0,0,1,8,4.258,21.847,21.847,0,0,1,2.983,5.07l6.114,12.893a2.592,2.592,0,0,1,.343,1.057,2.157,2.157,0,0,1-.532,1.043,15.638,15.638,0,0,1-5.245,4.034c-5.841,3-11.45,4.069-18.747,3.6a22.649,22.649,0,0,1-2.605-.7,8.447,8.447,0,0,1-2.6-2.01q-.168-.175-.273-.273c-3.3-3.165-5.6-10.5-6.884-21.857a.875.875,0,0,0-1.737.2q.245,2.15.525,4.1a.9.9,0,0,0-.175.105,29.639,29.639,0,0,0-5.862,5.9,25.767,25.767,0,0,0-2.29,4.356,81.427,81.427,0,0,0-2.906,7.837c-.539-.336-1.093-.658-1.646-.966a.876.876,0,1,0-.847,1.534c9.524,5.238,16.7,14.314,23.026,22.312a.9.9,0,0,0,.7.336.875.875,0,0,0,.7-1.4l-.791-1.029a20.227,20.227,0,0,0,1.681-2.9,56.287,56.287,0,0,0,4.678-13.691h.5a38.382,38.382,0,0,0,5.6-.4,38.516,38.516,0,0,1-1.6,8.922c-1.057,3.915-2.458,8.243-5.659,10.666a.854.854,0,0,0-1.009-.217.875.875,0,0,0-.427,1.163A64.784,64.784,0,0,1,991,491.01a40.553,40.553,0,0,1,.5,6.905,32.255,32.255,0,0,1-1.211,8,51.968,51.968,0,0,1-8.278,16.261.249.249,0,0,1-.049.07q-1.73,2.4-3.789,4.86a.861.861,0,0,0-.1.973.432.432,0,0,0,.1.154.7.7,0,0,0,.1.105.9.9,0,0,0,.56.2.882.882,0,0,0,.7-.315l.308-.378a76.416,76.416,0,0,0,7.514-10.694l13.684,4.734c4.2,1.45,8.964,3.088,12.382,6.3a16.2,16.2,0,0,1,4.37,6.94.21.21,0,0,0,.049.168l-.252.175-2.416,1.52c-.749.462-1.688,1.022-2.864,1.73l-.441.266c-1.527.945-2.885,1.744-4.139,2.444a95.205,95.205,0,0,1-9.9,4.7c-1.856.791-3.964,1.695-6.506,2.85-.525.245-1.064.476-1.6.7-.875.378-1.772.77-2.647,1.2a2.214,2.214,0,0,0-1.233,1.4,10.2,10.2,0,0,0-.273,3.27v.392a48.357,48.357,0,0,0,.7,6.471c.973,6.3,2.1,12.718,3.312,18.972l.091.469a46.489,46.489,0,0,1,1.24,10.876c0,.231-.035.455-.056.7a70.5,70.5,0,0,1-8.061,2.353,24.509,24.509,0,0,1-5.182.9,137.051,137.051,0,0,1-10.4-22.97,282.84,282.84,0,0,0-2.1-54.856q-1.232-9.363-2.955-18.628c-.1-.6-.217-1.184-.329-1.779-1.527-8.1-3.312-16.149-5.294-24.161-.147-.616-.294-1.226-.448-1.835Q954.753,467.137,953.3,461.835Z" transform="translate(-800.014 -385.709)" fill="#ecbfda" opacity="0.22" style="mix-blend-mode: multiply;isolation: isolate"/>
      <path id="Caminho_102" data-name="Caminho 102" d="M1013.719,654.871l12.438-5.091c-3.845,15.344-9.251,30.562-21.535,39.54a61.978,61.978,0,0,1-12.242,6.569c-13.677,5.869-19.777,7.57-35.1,11.338q-.882.224-1.681.4.7-1.737,1.4-3.5a198.1,198.1,0,0,0,11.107-43.819c2.843,3.411,6.03,6.555,10.253,7.192.308.042.609.077.91.091.616,1.057,1.233,2.1,1.877,3.137,1.19,1.919,2.885,4.139,5.4,4.2h.154a5.981,5.981,0,0,0,4-1.835,15.237,15.237,0,0,0,4.454-9.265c.28-.119.56-.231.833-.357,1.695-.763,3.32-1.688,4.9-2.584.819-.469,1.646-.938,2.479-1.4a111.527,111.527,0,0,1,10.351-4.615Z" transform="translate(-802.675 -454.922)" fill="#ecbfda" style="mix-blend-mode: multiply;isolation: isolate"/>
      <path id="Caminho_104" data-name="Caminho 104" d="M1064.954,604.545c.091,4.405-2.388,9.1-6.639,12.606-3.936,3.242-8.775,5.224-13.46,7.143l-17.081,7a112.784,112.784,0,0,0-10.5,4.748c-.84.455-1.681.931-2.514,1.4-1.513.861-3.081,1.751-4.671,2.479a47.436,47.436,0,0,0-1.282-11.149l-.091-.469c-1.219-6.233-2.325-12.606-3.3-18.909a46.742,46.742,0,0,1-.665-6.24v-.371a9,9,0,0,1,.2-2.7c0-.119.07-.2.322-.322.84-.406,1.73-.791,2.584-1.162l1.625-.7c2.521-1.149,4.622-2.045,6.471-2.8a89.437,89.437,0,0,0,14.273-7.269l.413-.252c2.878-1.716,4.412-2.661,5.252-3.229l4.657-2.969c2.612-1.674,5.231-3.354,7.073-4.5h0c.413-.28,1.093-.567,2.234.224a8.975,8.975,0,0,1,2.22,2.682l7.844,12.424C1062.118,595.616,1064.863,599.986,1064.954,604.545Z" transform="translate(-817.396 -432.987)" fill="#ecbfda" style="mix-blend-mode: multiply;isolation: isolate"/>
      <path id="Caminho_105" data-name="Caminho 105" d="M955.527,372.471a6.3,6.3,0,0,1-.889,3.348,9.338,9.338,0,0,1-7.963,3.957h-.7c-3.13-.2-6.443-1.6-9.854-4.2l-.147-.112a8.075,8.075,0,0,0-2.633-1.478,5.836,5.836,0,0,0-1.653-.21,7.892,7.892,0,0,0-1.184.056,72.189,72.189,0,0,0-20.827,5.035c-.518-.105-.952-.231-1.015-.385-.2-.476,1.184-1.4,1.534-1.653a18.834,18.834,0,0,1,4.2-2.451,34.611,34.611,0,0,1,9.972-2.332c1.9-.2,3.8-.315,5.7-.406a22.255,22.255,0,0,1,8,.567c3.614,1.163,6.933,4.2,10.666,3.446C951.171,375.16,953.251,373.122,955.527,372.471Z" transform="translate(-788.603 -371.537)" fill="#ecbfda" style="mix-blend-mode: multiply;isolation: isolate"/>
      <path id="Caminho_106" data-name="Caminho 106" d="M1082.395,453.865a12.717,12.717,0,0,0,2.759-3.719,13.474,13.474,0,0,0,.7-6.226,38.966,38.966,0,0,0-1.975-9.51,16.033,16.033,0,0,0-3.614,1.751,17.283,17.283,0,0,0-6.1,7.346,24.42,24.42,0,0,0-1.2,17.214A36.318,36.318,0,0,0,1082.395,453.865Z" transform="translate(-837.54 -390.379)" fill="#ecbfda" style="mix-blend-mode: multiply;isolation: isolate"/>
      <path id="Caminho_107" data-name="Caminho 107" d="M1113.25,461.924a11.507,11.507,0,0,0-2.5,3.663,17.265,17.265,0,0,0-.861,5.063c-.259,3.7-.568,8.243.4,12.3a20.537,20.537,0,0,0,4.846-1.576,14.609,14.609,0,0,0,3.754-2.437c2.661-2.479,3.964-6.1,4.965-9.643,1.064-3.754,2.2-8.635,1.695-13.481A20.807,20.807,0,0,0,1113.25,461.924Z" transform="translate(-848.835 -396.792)" fill="#ecbfda" style="mix-blend-mode: multiply;isolation: isolate"/>
      <path id="Caminho_108" data-name="Caminho 108" d="M873.013,600.617c.343-1.338.434-2.8,1.3-3.88a5.572,5.572,0,0,1,3.943-1.66,24.643,24.643,0,0,0,4.384-.357,3.7,3.7,0,0,0,2.934-2.92c.5,2.71-.084,5.5-.7,8.187l-.8,3.649c-.315,1.4-.861,3.109-2.276,3.467s-2.668-.819-4.048-1.233a14.559,14.559,0,0,0-2.409-.336,8.678,8.678,0,0,1-3.348-1.183c-.259-.161-1.31-.7-.875-1.065.182-.161.434-.252.623-.42a3.5,3.5,0,0,0,.518-.6,5.308,5.308,0,0,0,.756-1.653Z" transform="translate(-777.326 -438.246)" fill="#ecbfda" style="mix-blend-mode: multiply;isolation: isolate"/>
    </g>
    <g id="Layer_5" data-name="Layer 5" transform="translate(0.014 0.01)">
      <path id="Caminho_109" data-name="Caminho 109" d="M987.839,530.777a10.352,10.352,0,0,0-2.7-3.193,4.2,4.2,0,0,0-2.1-.819c-4.986-5.406-12.662-8.8-19.462-11.8l-2.612-1.156a112.747,112.747,0,0,0,.315-29.546,22.074,22.074,0,0,0-2.311-8.4c-1.7-3-4.566-4.9-7.465-4.9a3.445,3.445,0,0,0-2.262.644,4.1,4.1,0,0,0-1.226,2.941,144.418,144.418,0,0,0-.427,14.532c0,6.2.056,12.606-1.015,18.733a8.721,8.721,0,0,0-2.192-.7c-.315-.07-.658-.147-1.072-.252a34.411,34.411,0,0,0,1.6-9.538,42.547,42.547,0,0,0-.518-7.2,66.8,66.8,0,0,0-4.839-16.85c3.838-2.71,5.406-7.493,6.583-11.807a38.706,38.706,0,0,0,1.667-9.685,34.149,34.149,0,0,0,9.041-3.2,17.22,17.22,0,0,0,5.834-4.51,3.7,3.7,0,0,0,.911-2.045,3.965,3.965,0,0,0-.511-1.891l-6.114-12.893a23.271,23.271,0,0,0-3.242-5.469,15.865,15.865,0,0,0-8.992-4.825,40.093,40.093,0,0,0-10-.35,51.2,51.2,0,0,0-6.3.644,30.429,30.429,0,0,0-23.111,20.309c-1.779-.168-3.572-.371-5.315-.581-2.3-.273-4.678-.56-7-.7a37.972,37.972,0,0,0-13.341,1.022,47.551,47.551,0,0,0-4.9,1.786c-4.139,1.688-8.131,3.446-11.464,6.191a11.856,11.856,0,0,1-2.1-2.563c-.2-.3-.4-.6-.6-.889-4.986-7.052-13.635-10.428-20.582-13.138a23.693,23.693,0,0,0-6.436-1.828,18.79,18.79,0,0,0-6.3.7,46.642,46.642,0,0,0-12.606,5.5c-2.577,1.583-5.42,3.607-6.926,6.681-1.4,2.934-1.4,6.268-1.317,9.2l.364,19.126v.392a3.4,3.4,0,0,0,.987,2.878,3.747,3.747,0,0,0,1.324.56,28.358,28.358,0,0,0,5.6.756c1.52.091,3.046.133,4.566.133h2.1l11.7,11.989a79.625,79.625,0,0,0,5.785,5.6l.077.063a3.067,3.067,0,0,1,1.4,2.633,88.412,88.412,0,0,0,3.46,14.385,25.554,25.554,0,0,0-6.52.343,18.017,18.017,0,0,0-4.391,1.632,22.773,22.773,0,0,0-8.929,8.278,24.449,24.449,0,0,0-6.73,0,14.819,14.819,0,0,0-6.541,2.192,11.906,11.906,0,0,0-4.594,7.521,29.6,29.6,0,0,0-.238,7.563c-8.831,3.859-15.918,11.044-19.021,19.336-1.008,2.7-2.92,9.468,1.05,14.006a15.466,15.466,0,0,0,5.862,3.7c5.14,2.143,10.5,3.817,15.736,5.441l.749.231,5.035,13.348c2.451,6.534,5.231,13.929,10.148,19.665,3.817,4.454,8.852,7.788,13.264,10.47a165.975,165.975,0,0,0,43.119,18.4c2.1.56,7.942.9,11.45,1.114l1.758.105h.763a51.523,51.523,0,0,0,10.953-1.814c15.407-3.789,21.577-5.511,35.366-11.429a63.206,63.206,0,0,0,12.606-6.765c13.068-9.552,18.565-25.695,22.515-41.781l2.633-1.078c4.8-1.968,9.8-4,13.908-7.409,4.727-3.9,7.381-9.006,7.276-14.006s-2.99-9.643-5.315-13.306Zm-24.994-14.209c6.3,2.8,13.467,5.946,18.208,10.694l-.119.077h0c-1.849,1.156-4.468,2.836-7.094,4.51l-2.8,1.793a18.012,18.012,0,0,0-4.748-7.43,24.51,24.51,0,0,0-6.772-4.335q.672-3.152,1.177-6.3c.686.35,1.408.7,2.15.994Zm-13.537-27.551a142.619,142.619,0,0,1,.42-14.357,2.633,2.633,0,0,1,.574-1.737,1.772,1.772,0,0,1,1.141-.266c2.248,0,4.594,1.618,5.974,4.041a20.748,20.748,0,0,1,2.1,7.773,111.175,111.175,0,0,1-1.667,36.725c-1.534-.616-3.074-1.149-4.552-1.653l-7.472-2.57a47.467,47.467,0,0,0,1.772-5.645C949.378,504.011,949.343,496.384,949.308,489.017Zm-5.343,19.728a6.737,6.737,0,0,1,2.234.819c-.091.448-.2.9-.3,1.338a45.866,45.866,0,0,1-1.723,5.5l-4.342-1.5a46.771,46.771,0,0,0,2.892-6.457C943.215,508.57,943.621,508.668,943.964,508.745Zm-14.672,87.211,0,0a139.833,139.833,0,0,1-12.949-30.9c-.413-1.4-.8-2.864-1.191-4.3-.182-.7-.378-1.366-.567-2.052h0c-.406-1.478-.819-2.962-1.275-4.433-1.331-4.335-3.257-9.1-7.4-11.534a13.578,13.578,0,0,0-4.055-1.52A19.231,19.231,0,0,0,878.6,558.026c-4.825-.833-9.65-1.765-14.441-2.8l-3-.7h-.1c-.427-.056-.861-.126-1.268-.21l-.553-.126a5.6,5.6,0,0,1-1.169-.4,34.814,34.814,0,0,1,1.2-3.691l.175-.476a42.807,42.807,0,0,0,2.1-12.8,24.286,24.286,0,0,0,8.866,4.664.936.936,0,0,0,.238.035.882.882,0,0,0,.84-.644.869.869,0,0,0-.609-1.078,23.511,23.511,0,0,1-9.727-5.666l-.056-.056a46.605,46.605,0,0,1-8.229-10.75,88.022,88.022,0,0,1-10.792-30.569,4.7,4.7,0,0,0-2.017-3.677l-.077-.063a77.217,77.217,0,0,1-5.645-5.476L823.657,472.5a79.626,79.626,0,0,0,9.2-1.051h0a17.619,17.619,0,0,0,4.328,4.769l4.706,3.985c-.112.287-.231.574-.336.868a.868.868,0,0,0,.518,1.121.763.763,0,0,0,.3.056.861.861,0,0,0,.819-.574A54.435,54.435,0,0,1,860.444,457.8a.875.875,0,1,0-1.071-1.338c-.581.462-1.156.938-1.716,1.4a73.754,73.754,0,0,0-12.129-15.827c-.868-.854-1.863-1.022-2.535-.413a1.821,1.821,0,0,0-.532,1.345c-.126,2.332-.2,4.7-.259,7a119.1,119.1,0,0,1-.966,14.357,5.847,5.847,0,0,1-.553,1.982,3.977,3.977,0,0,1-1.4,1.352,14.9,14.9,0,0,1-5.238,1.779,77.909,77.909,0,0,1-19.259,1.289,26.932,26.932,0,0,1-5.266-.7,2.408,2.408,0,0,1-.7-.266c-.273-.21-.287-.735-.28-1.457v-.441l-.364-19.126c-.049-2.745-.112-5.848,1.141-8.4,1.3-2.668,3.9-4.51,6.3-5.96a44.928,44.928,0,0,1,12.1-5.294,16.478,16.478,0,0,1,5.7-.637,22.361,22.361,0,0,1,5.96,1.716c6.73,2.626,15.113,5.89,19.784,12.522.2.273.392.56.588.847a11.6,11.6,0,0,0,2.906,3.319.861.861,0,0,0,.567.14.77.77,0,0,0,.763-.175c3.221-2.8,7.248-4.559,11.443-6.268a47.052,47.052,0,0,1,4.727-1.723,36.382,36.382,0,0,1,12.732-.959c2.318.168,4.678.448,6.954.7,2,.238,4.062.49,6.107.658a.875.875,0,0,0,.945-.8s0-.035,0-.049a28.65,28.65,0,0,1,21.808-19.49,50.826,50.826,0,0,1,6.086-.623,38.762,38.762,0,0,1,9.559.322,14.143,14.143,0,0,1,8,4.258,21.84,21.84,0,0,1,2.983,5.07l6.114,12.893a2.591,2.591,0,0,1,.343,1.057,2.157,2.157,0,0,1-.532,1.043,15.639,15.639,0,0,1-5.245,4.034c-5.841,3-11.45,4.069-18.747,3.6a22.666,22.666,0,0,1-2.605-.7,8.446,8.446,0,0,1-2.6-2.01q-.168-.175-.273-.273c-3.3-3.165-5.6-10.5-6.884-21.857a.875.875,0,0,0-1.737.2q.245,2.15.525,4.1a.9.9,0,0,0-.175.105,29.643,29.643,0,0,0-5.862,5.9,25.771,25.771,0,0,0-2.29,4.356,81.427,81.427,0,0,0-2.906,7.837c-.539-.336-1.093-.658-1.646-.966a.876.876,0,1,0-.847,1.534c9.524,5.238,16.7,14.315,23.026,22.312a.9.9,0,0,0,.7.336.875.875,0,0,0,.7-1.4l-.791-1.029a20.227,20.227,0,0,0,1.681-2.9,56.29,56.29,0,0,0,4.678-13.691h.5a38.379,38.379,0,0,0,5.6-.4,38.519,38.519,0,0,1-1.6,8.922c-1.057,3.915-2.458,8.243-5.659,10.666a.854.854,0,0,0-1.008-.217.875.875,0,0,0-.427,1.163,64.786,64.786,0,0,1,5.308,17.76,40.547,40.547,0,0,1,.5,6.905c-.2,9.139-4.559,18.684-13.306,29.2a.868.868,0,0,0,.105,1.232.9.9,0,0,0,.56.2.882.882,0,0,0,.7-.315,77.891,77.891,0,0,0,7.823-11.072l13.663,4.734c4.2,1.45,8.964,3.088,12.382,6.3a16.2,16.2,0,0,1,4.37,6.94.21.21,0,0,0,.049.168l-.252.175-2.416,1.52c-.749.462-1.688,1.022-2.864,1.73l-.441.266a88.752,88.752,0,0,1-14.006,7.143c-1.856.791-3.964,1.695-6.506,2.85-.525.245-1.065.476-1.6.7-.875.378-1.772.77-2.647,1.2a2.213,2.213,0,0,0-1.233,1.4,10.205,10.205,0,0,0-.273,3.271v.392a48.329,48.329,0,0,0,.7,6.471c.974,6.3,2.1,12.718,3.313,18.972l.091.469a46.486,46.486,0,0,1,1.24,10.876M842.565,478.526l-4.2-3.614a17.164,17.164,0,0,1-3.642-3.789,15.84,15.84,0,0,0,5.547-1.961,5.694,5.694,0,0,0,1.975-1.968,7.183,7.183,0,0,0,.756-2.584,120.51,120.51,0,0,0,.987-14.567c.063-2.241.126-4.552.252-6.814l.091.084a71.649,71.649,0,0,1,11.961,15.68.892.892,0,0,1,.063.07,56.1,56.1,0,0,0-13.789,19.462ZM914,449.169a78.711,78.711,0,0,1,2.99-8.117,23.967,23.967,0,0,1,2.1-4.069,26.031,26.031,0,0,1,4.9-5.021c1.4,8.439,3.586,14.006,6.569,16.843.056.049.126.126.21.217a10.155,10.155,0,0,0,3.165,2.409,20.244,20.244,0,0,0,3.193.868l1.016.049a55.04,55.04,0,0,1-4.468,12.963,20.992,20.992,0,0,1-1.247,2.248C927.213,461,921.337,454.064,914,449.169Zm-16.3,111.673c-5.722-.7-11.541-1.555-17.375-2.542a17.508,17.508,0,0,1,21.15-15.407,11.83,11.83,0,0,1,3.544,1.324c3.635,2.136,5.385,6.527,6.618,10.5.364,1.184.7,2.388,1.043,3.586-.245.07-.49.147-.742.21A64.943,64.943,0,0,1,897.694,560.842Zm14.707-.6c.245-.063.49-.14.7-.21.105.392.217.8.329,1.191.392,1.443.784,2.885,1.2,4.328a141.631,141.631,0,0,0,12.529,30.219c-3.873-.791-6.793-4.069-9.678-7.661-1.66-2.059-3.417-4.076-5.119-6.023-5.007-5.722-10.169-11.632-13.467-19.56A67.01,67.01,0,0,0,912.4,560.24Zm-63.029-8.4c-5.063-1.274-10.358-2.8-16.177-4.741a7.7,7.7,0,0,1-.945-3.929,18.21,18.21,0,0,1,2.836-9.384,13.5,13.5,0,0,1,3.5-3.8c4.069-2.885,10.134-2.619,15.064-2.01a43.376,43.376,0,0,0,6.051,7.213,40.548,40.548,0,0,1-1.919,13.8l-.168.469a28.713,28.713,0,0,0-1.289,4.034c-2.332-.525-4.657-1.079-6.933-1.653Zm-15.708-40.842a16.106,16.106,0,0,1,3.964-1.471,26.2,26.2,0,0,1,6.751-.28,88.537,88.537,0,0,0,6.947,14.987c.364.63.7,1.24,1.1,1.835-4.951-.5-10.687-.455-14.833,2.486a13.311,13.311,0,0,0-2.171,1.933,14.713,14.713,0,0,0-3.782-9.1,12.562,12.562,0,0,0-5.862-3.257,21.01,21.01,0,0,1,7.907-7.129ZM807.752,527.8a10.155,10.155,0,0,1,3.88-6.436,13.187,13.187,0,0,1,5.771-1.891c3.257-.434,9.265-.6,12.956,3.144,2.71,2.752,3.333,6.835,3.375,9.8a.576.576,0,0,0,.042.189c-.063.1-.133.182-.2.28a19.694,19.694,0,0,0-3.116,10.295,11.35,11.35,0,0,0,.455,3.221c-8.04-2.822-16.366-6.121-23.3-11.345a28.52,28.52,0,0,1,.189-7.29Zm-13.383,42.628a13.832,13.832,0,0,1-5.224-3.242c-3.355-3.817-1.625-9.8-.7-12.228,2.948-7.886,9.72-14.707,18.208-18.4,7.668,5.722,16.808,9.188,25.562,12.08,6.037,1.989,11.52,3.6,16.752,4.9,3.158.8,6.373,1.548,9.6,2.276a10.594,10.594,0,0,0,1.156.266l4.069.868.784.182c3.088.658,5.238,1.085,7.318,1.5s4.2.833,7.3,1.485l1.016.217v-.266c5.5.924,10.974,1.737,16.366,2.409-1.282,4.664-4.811,9.4-7.956,13.607-.553.742-1.1,1.471-1.625,2.192l-6.625,9.1c-1.2,1.639-2.556,3.5-4.447,4.349a11.071,11.071,0,0,1-5.413.56c-9.8-.7-19.413-3.7-28.713-6.583L810,575.8c-5.168-1.632-10.519-3.292-15.575-5.4ZM882.182,637.9A164.189,164.189,0,0,1,839.5,619.7c-4.517-2.738-9.2-5.855-12.844-10.106-4.72-5.5-7.318-12.438-9.8-19.147l-4.531-12.073,28.965,9c9.363,2.913,19.049,5.925,29.077,6.653.63.049,1.3.091,1.982.091a10.294,10.294,0,0,0,4.279-.8c2.311-1.05,3.88-3.193,5.14-4.9l6.625-9.1,1.618-2.185a67.827,67.827,0,0,0,6.688-10.2c-.182,8.362-.742,17.025-1.345,26.115-1,15.253-2.038,31.017-1.135,45.948l-.9-.056c-3.193-.2-9.181-.546-11.086-1.057Zm71.4-18.488a61.98,61.98,0,0,1-12.241,6.569c-13.621,5.841-19.721,7.542-35.044,11.31a50.775,50.775,0,0,1-10.309,1.758c-.91-14.875.126-30.646,1.135-45.906.623-9.517,1.219-18.579,1.4-27.312,3.369,6.884,8.033,12.227,12.606,17.424,1.695,1.933,3.446,3.936,5.077,5.967,3.1,3.845,6.513,7.7,11.205,8.4.308.042.609.077.91.091.616,1.058,1.233,2.1,1.877,3.138,1.191,1.919,2.885,4.139,5.4,4.2h.154a5.98,5.98,0,0,0,4-1.835,15.237,15.237,0,0,0,4.454-9.265c.28-.119.56-.231.833-.357,1.695-.763,3.319-1.688,4.9-2.584.819-.469,1.646-.938,2.479-1.4a111.489,111.489,0,0,1,10.365-4.671l12.438-5.091c-3.894,15.337-9.3,30.555-21.584,39.533Zm38.973-50.206c-3.936,3.242-8.775,5.224-13.46,7.143l-17.081,7a112.712,112.712,0,0,0-10.5,4.748c-.84.455-1.681.931-2.514,1.4-1.513.861-3.081,1.751-4.671,2.479a47.436,47.436,0,0,0-1.282-11.149l-.091-.469c-1.219-6.233-2.325-12.606-3.3-18.909a46.742,46.742,0,0,1-.665-6.24v-.427a9,9,0,0,1,.2-2.7c0-.119.07-.2.322-.322.84-.406,1.73-.791,2.584-1.162l1.625-.7c2.521-1.149,4.622-2.045,6.471-2.8a89.442,89.442,0,0,0,14.273-7.269l.413-.252c2.878-1.716,4.412-2.661,5.252-3.229l4.657-2.969c2.612-1.674,5.231-3.354,7.073-4.5h0c.413-.28,1.093-.567,2.234.224a8.977,8.977,0,0,1,2.22,2.682l7.844,12.424c2.206,3.5,4.951,7.837,5.042,12.417.147,4.328-2.332,9.055-6.583,12.557Z" transform="translate(-748.893 -364.536)" fill="#1f052d"/>
      <path id="Caminho_110" data-name="Caminho 110" d="M1115.146,447.321a18.907,18.907,0,0,0-4.2-9.706,21.848,21.848,0,0,0-4.146-3.46,31.986,31.986,0,0,0-4.755-2.1,40.52,40.52,0,0,0-7.949-1.261h0c-.974,0-1.87,0-2.731-.035-4.587-.084-8.215-.154-12.816,2.8a19.027,19.027,0,0,0-6.737,8.082,26.164,26.164,0,0,0-.917,19.539h0a24.379,24.379,0,0,0,5.119,8.642,24.707,24.707,0,0,0,18,7.7,22.984,22.984,0,0,0,9.8-2.143,16.239,16.239,0,0,0,4.2-2.738c2.983-2.766,4.391-6.66,5.462-10.449,1.163-4.1,2.4-9.482,1.674-14.868Zm-41.76-4.958a17.321,17.321,0,0,1,6.093-7.346,15.774,15.774,0,0,1,3.621-1.751,39.162,39.162,0,0,1,1.975,9.51,10.479,10.479,0,0,1-3.459,9.944,36.251,36.251,0,0,1-9.447,6.849,24.406,24.406,0,0,1,1.219-17.207Zm3.908,26.269a22.481,22.481,0,0,1-4.538-7.388,37.82,37.82,0,0,0,10.12-7.29,14.44,14.44,0,0,0,3.116-4.244,14.779,14.779,0,0,0,.826-7.073,40.949,40.949,0,0,0-2.017-9.8,22.146,22.146,0,0,1,4.37-.35h2.157c.756,0,1.7.035,2.633.035h.14a39.651,39.651,0,0,1,7.332,1.149,31.757,31.757,0,0,1,4.447,1.961,19.836,19.836,0,0,1,3.747,3.109,16.807,16.807,0,0,1,3.6,7.746,22.522,22.522,0,0,0-13.306,6.653,13.173,13.173,0,0,0-2.857,4.2,18.607,18.607,0,0,0-.994,5.6c-.266,3.775-.581,8.4.413,12.69a23.005,23.005,0,0,1-19.188-7Zm34.5-6.926c-1.008,3.551-2.3,7.171-4.972,9.643a14.515,14.515,0,0,1-3.747,2.444,20.861,20.861,0,0,1-4.846,1.576c-.973-4.055-.7-8.6-.4-12.3a16.852,16.852,0,0,1,.868-5.042,11.544,11.544,0,0,1,2.5-3.663,20.778,20.778,0,0,1,12.291-6.128c.5,4.846-.63,9.72-1.695,13.5Z" transform="translate(-833.992 -368.822)" fill="#29093a"/>
      <path id="Caminho_111" data-name="Caminho 111" d="M878.333,363.108a5.112,5.112,0,0,0,3.74,1.856,3.838,3.838,0,0,0,.847-.1,4.622,4.622,0,0,0-2.465,3.572,11.836,11.836,0,0,0,.7,5.035c.84,2.85,2.059,5.946,4.741,7.22a7.7,7.7,0,0,0,3.355.651,21.209,21.209,0,0,0,2.3-.154c2.36-.266,4.9-.8,6.387-2.682,1.324-1.73,1.317-4.09,1.254-6.268a70.445,70.445,0,0,1,21.542-5.378,8.41,8.41,0,0,1,1.03-.056,4.346,4.346,0,0,1,1.169.14,7,7,0,0,1,2.206,1.31c3.165,2.381,6.849,4.272,10.8,4.524h.791c3.712,0,7.521-1.639,9.454-4.79,2.1-3.369,1.3-8.4-2.1-10.456a7.486,7.486,0,0,0-3.859-.994,9.959,9.959,0,0,0-2.185.252,17.751,17.751,0,0,0,3.7-5.028,7,7,0,0,0,0-6.065c-1.338-2.416-4.321-3.369-7.122-3.369h-.735a11.906,11.906,0,0,0-7.3,2.759,8.285,8.285,0,0,0-2.15,3.109,12.372,12.372,0,0,0-.525,3.271c-.112.91-.7,1.176-1.485,1.52q-1.723.742-3.5,1.359a46.993,46.993,0,0,1-7.171,1.821,46.123,46.123,0,0,1-14.707.154,2.584,2.584,0,0,1-1.786-.791c-.49-.658-.273-1.576-.231-2.4a6.713,6.713,0,0,0-3.376-5.764,13.691,13.691,0,0,0-6.73-1.674h-.6c-2.892,0-6.009.7-7.7,2.976-1.87,2.556-1.3,6.093-.518,9.16A11.913,11.913,0,0,0,878.333,363.108Zm-.343-13.362c1.366-1.87,4.167-2.262,6.3-2.262h.546a11.842,11.842,0,0,1,5.862,1.4,4.978,4.978,0,0,1,2.549,4.2v.413a3.663,3.663,0,0,0,3.5,4.6,47.344,47.344,0,0,0,7.129.539,48.538,48.538,0,0,0,8.173-.7,47.243,47.243,0,0,0,7.437-1.891c1.232-.413,2.458-.889,3.642-1.4a3.541,3.541,0,0,0,2.521-2.92c0-.308.063-.616.084-.91a6.817,6.817,0,0,1,.336-1.933,6.471,6.471,0,0,1,1.695-2.437,10.211,10.211,0,0,1,6.219-2.318h.637c.987,0,4.328.175,5.6,2.465a5.238,5.238,0,0,1-.077,4.517,16.5,16.5,0,0,1-3.355,4.517,1.751,1.751,0,0,0,1.261,2.962,1.868,1.868,0,0,0,.392-.042,7.93,7.93,0,0,1,1.793-.21,5.764,5.764,0,0,1,2.962.749,4.966,4.966,0,0,1,2.2,3.158,6.5,6.5,0,0,1-.7,4.9,9.338,9.338,0,0,1-7.963,3.957h-.7c-3.13-.2-6.443-1.6-9.853-4.2l-.147-.112a8.074,8.074,0,0,0-2.633-1.478,5.835,5.835,0,0,0-1.653-.21,7.9,7.9,0,0,0-1.184.056,72.014,72.014,0,0,0-22.074,5.526,1.744,1.744,0,0,0-1.065,1.66c.063,2.1,0,3.929-.889,5.147-1.057,1.4-3.221,1.786-5.2,2.01a20.585,20.585,0,0,1-2.1.14,5.932,5.932,0,0,1-2.6-.483c-2.059-.98-3.081-3.649-3.817-6.128a10.406,10.406,0,0,1-.623-4.293,3.011,3.011,0,0,1,1.345-2.178,4.636,4.636,0,0,0,.658-.238,1.751,1.751,0,0,0-.7-3.355,2.016,2.016,0,0,0-.406.049,4.515,4.515,0,0,0-.7.217,1.626,1.626,0,0,1-.322,0,3.4,3.4,0,0,1-2.409-1.24,11.144,11.144,0,0,1-1.912-4.538c-.693-2.752-1.2-5.785.231-7.739Z" transform="translate(-775.837 -342.33)" fill="#29093a"/>
      <path id="Caminho_112" data-name="Caminho 112" d="M772.046,533.8a9.434,9.434,0,0,0,1.2-4.839,90.11,90.11,0,0,0-2.017-21.752,24.641,24.641,0,0,0-2.5-7.605,9.824,9.824,0,0,0-6.541-5.021,8.915,8.915,0,0,0-7.353,2.3,12.872,12.872,0,0,0-3.894,6.3,13.451,13.451,0,0,0-.3,1.324c-.245,1.24-.476,2.416-1.4,2.892a6.955,6.955,0,0,1-3.677.161l-.581-.07h-.231c-2.493-.294-5.6-.665-7.942.644a6.98,6.98,0,0,0-3.053,4.356c-2.1,7.4,2.619,15.071,8.4,18.832,6.079,3.95,13.432,4.958,20.463,5.448.6.042,1.24.077,1.9.077C767.283,536.866,770.407,536.306,772.046,533.8Zm-9.3,1.219c-6.8-.476-13.887-1.436-19.609-5.175-5.245-3.411-9.566-10.3-7.7-16.878a5.439,5.439,0,0,1,2.22-3.305,7.129,7.129,0,0,1,3.453-.7,30.023,30.023,0,0,1,3.439.266l.791.1a8.009,8.009,0,0,0,4.706-.343c1.674-.861,2.031-2.668,2.311-4.111.084-.427.161-.819.266-1.17a11.2,11.2,0,0,1,3.354-5.483,7.213,7.213,0,0,1,5.9-1.9,8.033,8.033,0,0,1,5.343,4.2,23.194,23.194,0,0,1,2.276,7.045,87.053,87.053,0,0,1,1.982,21.325,7.822,7.822,0,0,1-.91,3.957C769.048,535.178,765.372,535.2,762.745,535.017Z" transform="translate(-733.244 -387.93)" fill="#29093a"/>
      <path id="Caminho_113" data-name="Caminho 113" d="M890.415,538.343a14.257,14.257,0,0,0,3.088-.245,11.27,11.27,0,0,0,3.123-1.254,17.388,17.388,0,0,0,5.217-4.342,12.051,12.051,0,0,0,1.6-2.591,13.068,13.068,0,0,0,.8-2.465c.091-.378.147-.763.21-1.148a17.228,17.228,0,0,0,4.825,8.327,10.07,10.07,0,0,0,2.969,2.052,10.217,10.217,0,0,0,4.055.7,16.073,16.073,0,0,0,1.758-.063h.357c.168,1.2.308,2.423.385,3.635a13.566,13.566,0,0,1-.392,4.979,5.1,5.1,0,0,1-2.9,3.319,7.253,7.253,0,0,1-1.786.336c-.861.084-1.744.14-2.619.161a4.032,4.032,0,0,1-1.3-.1,4.509,4.509,0,0,1-1.135-.637,17.252,17.252,0,0,1-3.39-2.8,5.273,5.273,0,0,1-1.4-3.586.875.875,0,1,0-1.744-.119,6.842,6.842,0,0,0,1.814,4.846,18.91,18.91,0,0,0,3.726,3.088,5.862,5.862,0,0,0,1.611.868,4.907,4.907,0,0,0,1.443.182h.427c.91,0,1.828-.084,2.731-.168a6.012,6.012,0,0,0,.9-.112,24.2,24.2,0,0,0,3.193,6.212c1.324,2.052,2.8,4.1,5.238,4.587a4.624,4.624,0,0,0,.931.1,5.063,5.063,0,0,0,4.566-2.934,8.914,8.914,0,0,0,.539-3.691c0-2.535,0-5.147-.245-7.739a13.133,13.133,0,0,0,2.1.175,12.822,12.822,0,0,0,6.3-1.618,7.647,7.647,0,0,0,3.5-3.656,10.274,10.274,0,0,0,.413-4.566.875.875,0,0,0-1.744.119,8.867,8.867,0,0,1-.294,3.8,6.03,6.03,0,0,1-2.745,2.8,11.079,11.079,0,0,1-16.31-7.661,9.5,9.5,0,0,0,2.1-.581,9.622,9.622,0,0,0,5.259-6.3,21.946,21.946,0,0,0,.567-7.956c-.035-.532-.147-2.15-1.464-2.668a2.8,2.8,0,0,0-1.45-.1c-1.793.245-3.5.588-4.846.854l-.7.14c-1.828.385-3.677.805-5.5,1.26s-3.663.945-5.469,1.464c-.9.259-1.807.525-2.7.805l-.175.049a2.668,2.668,0,0,0-1.036.462,1.635,1.635,0,0,0-.189.2,19.909,19.909,0,0,0-.1-4.027,20.257,20.257,0,0,0-1.989-6.464,7.163,7.163,0,0,0-1.688-2.479c-.175-.182-.392-.4-.658-.7a12.878,12.878,0,0,0-3.5-2.255,22.583,22.583,0,0,0-5.378-.945h0a14.357,14.357,0,0,0-5.834,1.008c-.3.1-.6.21-.9.322a11.464,11.464,0,0,0-2.857,1.569,13.965,13.965,0,0,0-3.782,5.112,21.352,21.352,0,0,0-2.451,11.044,12.309,12.309,0,0,0,5.946,9.748C884.238,538.21,887.551,538.336,890.415,538.343Zm34.848,8.138a12.506,12.506,0,0,0,1.961.8,79.492,79.492,0,0,1,.287,8.159,7.451,7.451,0,0,1-.392,2.983,3.354,3.354,0,0,1-3.551,1.835c-1.744-.357-2.99-2.1-4.111-3.831a22.544,22.544,0,0,1-3-5.743,6.961,6.961,0,0,0,3.593-4.258,10.062,10.062,0,0,0,.357-1.478,31.878,31.878,0,0,1,2.374,11.821.875.875,0,0,0,.875.868h0a.875.875,0,0,0,.868-.882,33.757,33.757,0,0,0-2.626-12.767,12.606,12.606,0,0,0,3.369,2.493Zm-18.909-20.75.238-.063q1.331-.413,2.668-.8c1.786-.511,3.607-1,5.406-1.45s3.628-.861,5.435-1.24l.7-.14c1.289-.266,2.99-.6,4.734-.833a1.571,1.571,0,0,1,.567,0c.07,0,.294.189.364,1.163a20.5,20.5,0,0,1-.5,7.325,8,8,0,0,1-4.251,5.189,11.643,11.643,0,0,1-3.719.7,11.027,11.027,0,0,1-5.014-.5,8.4,8.4,0,0,1-2.444-1.709,15.617,15.617,0,0,1-4.349-7.542Zm-29.119,1.043a19.655,19.655,0,0,1,2.283-10.134,12.4,12.4,0,0,1,3.32-4.475,9.659,9.659,0,0,1,2.43-1.324c.266-.105.539-.2.812-.287a12.606,12.606,0,0,1,5.294-.924,22.253,22.253,0,0,1,4.9.882,12.556,12.556,0,0,1,2.668,1.765l.7.7a5.8,5.8,0,0,1,1.4,2.045,18.5,18.5,0,0,1,1.814,5.911,17.381,17.381,0,0,1-.266,6.121,11.872,11.872,0,0,1-.7,2.143,10.333,10.333,0,0,1-1.4,2.213,15.647,15.647,0,0,1-4.692,3.908,9.572,9.572,0,0,1-2.647,1.072,13.135,13.135,0,0,1-2.717.2c-2.647,0-5.68-.119-8.117-1.45A10.637,10.637,0,0,1,877.235,526.773Z" transform="translate(-775.859 -391.941)" fill="#29093a"/>
      <path id="Caminho_114" data-name="Caminho 114" d="M966.726,491.657h0a15.61,15.61,0,0,0-6.044,1.009c-.315.105-.63.21-.938.329a11.906,11.906,0,0,0-2.962,1.555,14.006,14.006,0,0,0-3.929,5.112,20.677,20.677,0,0,0-2.549,11.058,12.269,12.269,0,0,0,6.177,9.755c2.892,1.527,6.3,1.653,9.286,1.653h0a14.93,14.93,0,0,0,3.165-.238,11.658,11.658,0,0,0,3.236-1.247,17.985,17.985,0,0,0,5.413-4.335,12.066,12.066,0,0,0,1.667-2.591,12.6,12.6,0,0,0,.833-2.472,18.482,18.482,0,0,0,.315-6.751,19.8,19.8,0,0,0-2.1-6.478,7.1,7.1,0,0,0-1.758-2.479l-.7-.7a15.113,15.113,0,0,0-4.349-2.4c-.35-.056-.819-.154-1.324-.259a20.788,20.788,0,0,0-3.439-.525Zm7.928,4.44.7.7a5.638,5.638,0,0,1,1.4,2.045,18.088,18.088,0,0,1,1.884,5.9,16.7,16.7,0,0,1-.28,6.114,11.374,11.374,0,0,1-.7,2.136,10.409,10.409,0,0,1-1.4,2.213,16.109,16.109,0,0,1-4.9,3.915,10.382,10.382,0,0,1-2.766,1.078,14.084,14.084,0,0,1-2.8.2h0c-2.766,0-5.932-.112-8.467-1.45a10.5,10.5,0,0,1-5.252-8.4,19,19,0,0,1,2.367-10.113,12.444,12.444,0,0,1,3.4-4.489,10.155,10.155,0,0,1,2.542-1.324h0c.28-.105.56-.2.847-.294a13.88,13.88,0,0,1,5.518-.931h0a20.524,20.524,0,0,1,3.159.5c.532.112,1.022.21,1.4.266A16.233,16.233,0,0,1,974.654,496.1Z" transform="translate(-798.274 -387.078)" fill="#29093a"/>
      <path id="Caminho_115" data-name="Caminho 115" d="M946.072,475.149a2.577,2.577,0,0,0,1.485.357H949.3c4.2,0,8.6-.056,12.234,1.828.532.273,1.05.588,1.6.924a11.032,11.032,0,0,0,4.748,1.947h.266a1.688,1.688,0,0,0,1.057-.329,1.779,1.779,0,0,0,.6-1.113c.406-2.1-.581-4.2-1.3-5.729a10.7,10.7,0,0,0-2.556-3.8,10.441,10.441,0,0,0-2.157-1.282,34.406,34.406,0,0,0-9.8-3.319h-.168c-1.212-.175-2.717-.4-3.943.7l-.371.322a18.477,18.477,0,0,0-2.654,2.633,7.549,7.549,0,0,0-1.688,4.986A2.29,2.29,0,0,0,946.072,475.149Zm2.164-5.834a17.121,17.121,0,0,1,2.416-2.367l.378-.329c.581-.5,1.345-.434,2.542-.259h.175a32.754,32.754,0,0,1,9.307,3.158,8.893,8.893,0,0,1,1.793,1.05,9.14,9.14,0,0,1,2.1,3.2c.8,1.688,1.4,3.2,1.163,4.65h-.042a9.5,9.5,0,0,1-3.992-1.7c-.553-.329-1.12-.7-1.709-.98-3.551-1.842-7.556-2.031-11.506-2.031h-3.277a1.4,1.4,0,0,1-.5-.056c-.035,0-.126-.168-.147-.56A5.883,5.883,0,0,1,948.236,469.316Z" transform="translate(-796.753 -378.94)" fill="#29093a"/>
      <path id="Caminho_116" data-name="Caminho 116" d="M876.02,503.841a2.381,2.381,0,0,0,1.24-.938l.168-.2a12.865,12.865,0,0,1,1.128-1.093,17.293,17.293,0,0,1,2.6-1.842,23.517,23.517,0,0,1,3.235-1.555c.385-.154.77-.294,1.156-.441a15.941,15.941,0,0,0,5.07-2.633c1.947-1.695,3.06-4.811,1.569-7.094a5.806,5.806,0,0,0-5.021-2.3,11.961,11.961,0,0,0-8.425,3.95,20.68,20.68,0,0,0-4.461,8.054l-.126.378a9.929,9.929,0,0,0-.7,3.656,2.4,2.4,0,0,0,.987,1.737,1.968,1.968,0,0,0,1.149.385,1.809,1.809,0,0,0,.434-.063Zm-.6-1.744a.7.7,0,0,1-.266-.448,8.546,8.546,0,0,1,.63-2.976l.126-.385a18.837,18.837,0,0,1,4.069-7.388,10.232,10.232,0,0,1,7.164-3.4h0a4.037,4.037,0,0,1,3.5,1.506c.959,1.464.1,3.642-1.247,4.811a14.237,14.237,0,0,1-4.538,2.318c-.392.147-.791.294-1.177.448a25.913,25.913,0,0,0-3.5,1.674,19.488,19.488,0,0,0-2.864,2.031,15.124,15.124,0,0,0-1.268,1.233c-.084.091-.161.189-.245.287a1.744,1.744,0,0,1-.315.343A.211.211,0,0,1,875.418,502.1Z" transform="translate(-775.261 -385.305)" fill="#29093a"/>
    </g>
  </g>
</svg>
