<svg id="DogRun" xmlns="http://www.w3.org/2000/svg" xmlns:xlink="http://www.w3.org/1999/xlink" width="195.085" height="106.09" viewBox="0 0 195.085 106.09">
  <defs>
    <clipPath id="clip-path">
      <rect id="Retângulo_2" data-name="Retângulo 2" width="195.085" height="106.09" fill="none"/>
    </clipPath>
    <clipPath id="clip-path-3">
      <rect id="Retângulo_3" data-name="Retângulo 3" width="0.281" height="0.248" fill="none"/>
    </clipPath>
    <clipPath id="clip-path-4">
      <rect id="Retângulo_4" data-name="Retângulo 4" width="70.79" height="25.756" fill="none" opacity="0.52" style="mix-blend-mode: multiply;isolation: isolate"/>
    </clipPath>
    <clipPath id="clip-path-5">
      <rect id="Retângulo_5" data-name="Retângulo 5" width="22.774" height="6.312" fill="none" opacity="0.46" style="mix-blend-mode: multiply;isolation: isolate"/>
    </clipPath>
    <clipPath id="clip-path-6">
      <rect id="Retângulo_6" data-name="Retângulo 6" width="32.163" height="19.261" fill="none"/>
    </clipPath>
    <clipPath id="clip-path-7">
      <rect id="Retângulo_7" data-name="Retângulo 7" width="3.419" height="9.735" fill="none"/>
    </clipPath>
    <clipPath id="clip-path-8">
      <rect id="Retângulo_8" data-name="Retângulo 8" width="39.046" height="10.853" fill="none"/>
    </clipPath>
    <clipPath id="clip-path-9">
      <rect id="Retângulo_9" data-name="Retângulo 9" width="15.018" height="16.445" fill="none"/>
    </clipPath>
    <clipPath id="clip-path-10">
      <rect id="Retângulo_10" data-name="Retângulo 10" width="25.295" height="7.004" fill="none"/>
    </clipPath>
    <clipPath id="clip-path-11">
      <rect id="Retângulo_12" data-name="Retângulo 12" width="3.511" height="2.674" fill="none"/>
    </clipPath>
    <clipPath id="clip-path-12">
      <rect id="Retângulo_13" data-name="Retângulo 13" width="8.477" height="3.789" fill="none"/>
    </clipPath>
  </defs>
  <g id="Grupo_56" data-name="Grupo 56">
    <g id="Grupo_16" data-name="Grupo 16">
      <g id="Grupo_15" data-name="Grupo 15" clip-path="url(#clip-path)">
        <path id="Caminho_117" data-name="Caminho 117" d="M126.772,51.429a3.947,3.947,0,0,1,2.815.562,7.246,7.246,0,0,1,1.459,1.338l.076.083a4.251,4.251,0,0,1,.818,1.249,25.254,25.254,0,0,0,10.34-4.071,41.024,41.024,0,0,0,9.533-9.917l.121-.166c1.427-1.963,3.16-4.348,5.338-5.614q-.663-.529-1.39-1a15.518,15.518,0,0,1-2.584.244,7.145,7.145,0,0,1-4.518-1.367,10.168,10.168,0,0,1-2.57-3.607l-4.258-8.412a.766.766,0,0,1,1.366-.692l4.258,8.412a9.02,9.02,0,0,0,2.151,3.1c1.335,1.05,3.3,1.293,6.188.767a34.435,34.435,0,0,0,7.558-2.3,5.641,5.641,0,0,0,2.365-1.589,5.315,5.315,0,0,0,.668-3.34,8.688,8.688,0,0,0-.382-2.373,11.3,11.3,0,0,0-2.475-3.623,24.842,24.842,0,0,0-4.142-3.989,12.149,12.149,0,0,0-12.073-.9c.6.684,1.176,1.387,1.742,2.095a.766.766,0,1,1-1.2.955c-3.021-3.786-6.429-7.424-10.863-8.411a16.744,16.744,0,0,0-5.206-.19c-5.089.449-9.147,1.924-12.06,4.384a.766.766,0,0,1-.988-1.17,21.761,21.761,0,0,1,11.379-4.56,7.312,7.312,0,0,0,.023-1.939,2.808,2.808,0,0,0-1.214-2.049,4.685,4.685,0,0,0-2.626-.284c-1.79.132-3.82.281-5.338,1.317a9.791,9.791,0,0,0-1.747,1.664c-2.094,2.373-4.791,5.934-4.453,9.717a4.581,4.581,0,0,1,3.007.72,4.8,4.8,0,0,1,1.83,2.963,12.619,12.619,0,0,1,.162,3.175,11.183,11.183,0,0,1-.472,3.332,4.8,4.8,0,0,1-1.284,1.988q1.268.151,2.522.376a.765.765,0,1,1-.273,1.506,41.618,41.618,0,0,0-17.911.708,3.679,3.679,0,0,0-1.7.779,3.493,3.493,0,0,0-.688,1.448,16.937,16.937,0,0,0-.652,7.525,11.474,11.474,0,0,0,.306,1.308.761.761,0,0,1,.11.183c.488,1.195,1.224,1.459,2.69,1.987l.182.066a16.453,16.453,0,0,0,4.424.743,32.75,32.75,0,0,1-.882-5.865,14.868,14.868,0,0,1-1.888-.357c-2.056-.541-3.383-1.694-3.641-3.163A3.38,3.38,0,0,1,102.037,32a7.423,7.423,0,0,1,4.3-1.277l.383-.011a9.627,9.627,0,0,1,5.29.86,7.049,7.049,0,0,1,.779.521,5.369,5.369,0,0,1,1.806,2.194,3.286,3.286,0,0,1-.235,3.091c-.911,1.319-2.582,1.5-4.1,1.5h-.222c-.732,0-1.48-.01-2.233-.052a31.177,31.177,0,0,0,.933,5.835l2.97.2a25.653,25.653,0,0,0,6.619-.115,8.193,8.193,0,0,0,5.227-3.107A12.1,12.1,0,0,0,125.09,36.2a.766.766,0,1,1,1.521.176,13.327,13.327,0,0,1-1.787,6.122,9.508,9.508,0,0,1-6.2,3.752,18.006,18.006,0,0,1-3.467.3c-1.195,0-2.382-.081-3.55-.161l-4.2-.287a18.871,18.871,0,0,1-5.213-.856l-.18-.065c-.209-.076-.414-.15-.615-.226a8.49,8.49,0,0,0,1.554,1.608,17.319,17.319,0,0,0,3.932,2.076q1.019.431,2,.853a87.077,87.077,0,0,0,14.342,5.151A4.886,4.886,0,0,1,126.772,51.429Zm-.387-23.821a11.126,11.126,0,0,1-.006-2.4l.05-.5a7.059,7.059,0,0,1,.775-2.969l.146-.294a9.746,9.746,0,0,1,1.1-1.893,3.9,3.9,0,0,1,1.874-1.16,7.185,7.185,0,0,1,2.231-.161,6.025,6.025,0,0,1,3.866,1.185,4.373,4.373,0,0,1,1.178,3.4,15.026,15.026,0,0,1-1.32,6.246,3.707,3.707,0,0,1-1.472,1.808,5.067,5.067,0,0,1-2.516.471h-.357a10.969,10.969,0,0,1-2.278-.181,4.269,4.269,0,0,1-2.5-1.4,4.13,4.13,0,0,1-.771-2.16" transform="translate(-48.595 -1.469)" fill="#dcdbdb"/>
        <path id="Caminho_118" data-name="Caminho 118" d="M155.339,43.5a2.7,2.7,0,0,0,.45,1.38,2.808,2.808,0,0,0,1.612.848,11.161,11.161,0,0,0,2.313.147,3.883,3.883,0,0,0,1.762-.268,2.326,2.326,0,0,0,.84-1.114,13.5,13.5,0,0,0,1.183-5.614,2.858,2.858,0,0,0-.683-2.269,4.783,4.783,0,0,0-2.9-.784c-.2-.009-.411-.017-.618-.017a4.324,4.324,0,0,0-1.138.126,2.353,2.353,0,0,0-1.131.7,10.244,10.244,0,0,0-.872,1.556L156,38.5a5.549,5.549,0,0,0-.616,2.423l-.051.51a9.6,9.6,0,0,0,0,2.069Z" transform="translate(-76.028 -17.534)" fill="#e5e5e4"/>
        <path id="Caminho_119" data-name="Caminho 119" d="M126.325,41.04a2.8,2.8,0,0,0,.851-.143,2.834,2.834,0,0,0,1.57-1.8,9.872,9.872,0,0,0,.386-2.881,11.267,11.267,0,0,0-.127-2.792,3.287,3.287,0,0,0-1.211-2.035,2.894,2.894,0,0,0-1.661-.468,4.115,4.115,0,0,0-.789.078,9.511,9.511,0,0,0-2.693,1.111,2.848,2.848,0,0,0-.822.581,3.984,3.984,0,0,0-.534,2.646c.019.2.054.4.088.6s.065.386.089.58a6.316,6.316,0,0,0,.316,1.492,4.635,4.635,0,0,0,.834,1.411,4.8,4.8,0,0,0,3.7,1.613" transform="translate(-59.375 -15.141)" fill="#e5e5e4"/>
        <path id="Caminho_120" data-name="Caminho 120" d="M184.979,73.039l-.121.166a42.472,42.472,0,0,1-9.908,10.281,26.789,26.789,0,0,1-10.735,4.288,13.137,13.137,0,0,1,.339,2.968c5.254-.866,11-2.21,15.237-5.875a35.258,35.258,0,0,0,3.926-4.241c.7-.839,1.415-1.707,2.17-2.527a19.108,19.108,0,0,1,8.159-5.267,18.917,18.917,0,0,0-3.732-5.225c-2.1.984-3.887,3.44-5.334,5.432" transform="translate(-80.402 -33.101)" fill="#c54141"/>
        <path id="Caminho_121" data-name="Caminho 121" d="M309.178,172.353c-3.314-3.252-6.445-6.324-10.606-7.663a16.7,16.7,0,0,0-5.928-.708,27.4,27.4,0,0,1,3.133,2.244c.363.286.767.6,1.234.964a67.894,67.894,0,0,1,9.672,8.517c.581.658,1.142,1.347,1.686,2.014a26.628,26.628,0,0,0,4.229,4.453,13.181,13.181,0,0,0,11.224,2.25,2.59,2.59,0,0,0,.387-2.237,35.51,35.51,0,0,1-8.613-4.2,51.282,51.282,0,0,1-6.417-5.632" transform="translate(-143.283 -80.276)" fill="#dcdbdb"/>
        <path id="Caminho_122" data-name="Caminho 122" d="M248.254,123.017A73.955,73.955,0,0,1,232.6,108.263a20.726,20.726,0,0,1-3.335-5.438,23.682,23.682,0,0,1-1.054-4.508c-.505-3.062-1.078-6.532-.363-9.858a26.376,26.376,0,0,1,1.44-4.275c.2-.5.4-.991.586-1.49a34.576,34.576,0,0,0-1.743-27.857,2.831,2.831,0,0,0-.543-.735c-.057,8.017-2.014,14.123-5.824,18.157-3.259,3.451-8.223,5.729-14.753,6.771a52,52,0,0,1-27.45-3.048,11.566,11.566,0,0,1-4.634-2.9,12.746,12.746,0,0,1-2.068-3.934c-.137-.358-.274-.716-.42-1.068-.063-.153-.129-.3-.193-.449-2.755.617-5.861,2.908-7.686,4.893-.729.793-1.435,1.645-2.119,2.469a36.437,36.437,0,0,1-4.1,4.422c-4.648,4.017-10.829,5.4-16.4,6.295a3.219,3.219,0,0,1-.482,1.064,3.807,3.807,0,0,1-2.069,1.355,6.013,6.013,0,0,1-1.751.265q-.252,0-.5-.023a16.333,16.333,0,0,1-1.462,1.5c-1.548,1.409-3.2,2.736-4.8,4.02a70.815,70.815,0,0,0-6.506,5.675c-2.768,2.846-6.058,7.348-6.015,12.626a4.887,4.887,0,0,0,1.022,3.354c.963,1.037,2.583,1.269,4.3,1.432a2.979,2.979,0,0,0,1.28-.052c.7-.279,1.016-1.323,1.295-2.244l.015-.052A23.571,23.571,0,0,1,134.946,103a4.362,4.362,0,0,1,1.287-3.294,4.81,4.81,0,0,1,2.832-.937,22.028,22.028,0,0,1,8.167.926c1.055.329,2.1.742,3.1,1.141a19.623,19.623,0,0,0,6.113,1.71,3,3,0,0,0,1.52-.211c1.053-.533,1.284-2.094,1.369-3.551a.766.766,0,0,1,1.529.091c-.067,1.144-.226,3.824-2.207,4.827a4.578,4.578,0,0,1-2.294.374,21.066,21.066,0,0,1-6.6-1.816c-.979-.388-1.992-.791-2.991-1.1a20.465,20.465,0,0,0-7.594-.861,3.448,3.448,0,0,0-1.956.576c-.773.658-.785,1.987-.736,3.181a6.768,6.768,0,0,0,.507,2.8c.655,1.249,2.193,1.932,3.582,2.476,5.68,2.22,11.66,3.937,17.443,5.6,2.292.657,5.144,1.476,7.618.67a8.522,8.522,0,0,0,4.971-5.2,27.13,27.13,0,0,0,1.415-7.72.766.766,0,0,1,1.526.131,28.286,28.286,0,0,1-1.517,8.154,12.77,12.77,0,0,1-.89,1.81c1.849,1.07,3.865.941,6.326.778.493-.033,1-.066,1.512-.09a75.272,75.272,0,0,0,12.205-1.346c1.758-.376,3.571-.869,5.323-1.347,5.673-1.544,11.539-3.141,17.2-1.321,4.505,1.449,7.913,4.794,11.209,8.027a50.183,50.183,0,0,0,6.22,5.468c4.143,2.884,9.1,4.368,13.892,5.8a10.054,10.054,0,0,0,3.832.636,2.934,2.934,0,0,0,2.556-1.785c.391-1.343-.613-2.8-3.16-4.577" transform="translate(-57.947 -26.489)" fill="#dcdbdb"/>
        <path id="Caminho_123" data-name="Caminho 123" d="M151.466,109.577a4.356,4.356,0,0,0,2.262-.069,2.347,2.347,0,0,0,1.269-.779,2.9,2.9,0,0,0,.362-1.612,11.56,11.56,0,0,0-.335-2.9l-.075.01-.046-.44c-.071-.233-.148-.46-.236-.672a2.779,2.779,0,0,0-.538-.807l-.077-.085a6.014,6.014,0,0,0-1.139-1.068,2.419,2.419,0,0,0-1.71-.355,3.5,3.5,0,0,0-2.544,2.78,6.633,6.633,0,0,0,.761,4.225,4.474,4.474,0,0,0,.617.957,2.746,2.746,0,0,0,1.249.774c.011-.018.026-.034.037-.052Z" transform="translate(-72.737 -49.335)" fill="#c54141"/>
        <path id="Caminho_124" data-name="Caminho 124" d="M117.016,64.449a1.573,1.573,0,0,0,.088-1.6,3.977,3.977,0,0,0-1.45-1.53,5.982,5.982,0,0,0-.668-.4,10.191,10.191,0,0,0-4.932-.647l-.425.01a7.155,7.155,0,0,0-3.726.932,1.742,1.742,0,0,0-.818,1.667c.241,1.224,2.182,1.77,2.771,1.908a26.714,26.714,0,0,0,6.041.488c1.228,0,2.56-.1,3.12-.825" transform="translate(-51.44 -28.888)" fill="#160c22"/>
        <path id="Caminho_125" data-name="Caminho 125" d="M126.694,42.057a2.038,2.038,0,0,0,.733-.149,2.832,2.832,0,0,0,1.353-1.872,12.291,12.291,0,0,0,.333-3A14.206,14.206,0,0,0,129,34.119,3.606,3.606,0,0,0,127.961,32a2.187,2.187,0,0,0-1.431-.488,3,3,0,0,0-.68.081,7.5,7.5,0,0,0-2.32,1.159,2.524,2.524,0,0,0-.708.606,4.886,4.886,0,0,0-.46,2.759c.016.211.046.42.076.629s.057.4.077.605a7.776,7.776,0,0,0,.272,1.556,5.12,5.12,0,0,0,.719,1.471,3.847,3.847,0,0,0,3.189,1.682" transform="translate(-59.899 -15.427)" fill="#160c22"/>
        <path id="Caminho_126" data-name="Caminho 126" d="M158.733,46.411a2.327,2.327,0,0,1-.78-.2,2.894,2.894,0,0,1-1.332-1.986,11.74,11.74,0,0,1-.159-3.058,13.521,13.521,0,0,1,.311-2.932,3.571,3.571,0,0,1,1.265-2.069,2.461,2.461,0,0,1,1.574-.391,3.417,3.417,0,0,1,.727.13,8.313,8.313,0,0,1,2.421,1.334,2.689,2.689,0,0,1,.722.663,4.676,4.676,0,0,1,.312,2.818c-.032.211-.078.42-.124.629s-.088.4-.122.606a7.469,7.469,0,0,1-.4,1.552,5.059,5.059,0,0,1-.872,1.434,4.239,4.239,0,0,1-3.546,1.472" transform="translate(-76.593 -17.511)" fill="#160c22"/>
        <path id="Caminho_127" data-name="Caminho 127" d="M122.355,38.419a1.647,1.647,0,0,0,.815.308,1.738,1.738,0,0,0,1.279-.135,1.183,1.183,0,0,0,.442-1.1,2.493,2.493,0,0,0-.553-1.205,1.532,1.532,0,0,0-.984-.694c-.741-.056-1.3,1.018-1.361,1.623a1.38,1.38,0,0,0,.361,1.2" transform="translate(-59.724 -17.426)" fill="#e5e5e4"/>
        <path id="Caminho_128" data-name="Caminho 128" d="M158.984,37.759a1.424,1.424,0,0,0-.165,1.438,2.063,2.063,0,0,0,.632.963,1.235,1.235,0,0,0,1.094.251,1.308,1.308,0,0,0,.8-1.469,2.58,2.58,0,0,0-.982-1.494c-.192-.159-.516-.363-.772-.224-.1.053-.161.167-.244.24-.117.1-.252.182-.36.3" transform="translate(-77.704 -18.203)" fill="#e5e5e4"/>
        <path id="Caminho_129" data-name="Caminho 129" d="M164.793,52.212c.022-.081-.132-.031-.143.053a.6.6,0,0,0,.409.593,1.752,1.752,0,0,0,.77.057,1.244,1.244,0,0,0,.551-.128.426.426,0,0,0,.215-.48.627.627,0,0,0-.312-.29,1.745,1.745,0,0,0-.782-.289.888.888,0,0,0-.783.44" transform="translate(-80.613 -25.327)" fill="#e5e5e4"/>
        <path id="Caminho_130" data-name="Caminho 130" d="M132.383,46.57a.637.637,0,0,0-.772.733,2.058,2.058,0,0,0,.791-.144.594.594,0,0,0,.409-.389c.036-.194-.21-.4-.359-.275" transform="translate(-64.43 -22.745)" fill="#e5e5e4"/>
        <path id="Caminho_131" data-name="Caminho 131" d="M139.074,82.349c-.195,1.441,1.107,2.7,2.485,3.091a17.387,17.387,0,0,0,4.267.206,2.67,2.67,0,0,0,1.3-.16,1.7,1.7,0,0,0,.755-1.726,5,5,0,0,0-.759-1.844l-2.082-3.59" transform="translate(-68.083 -38.35)" fill="#d34348"/>
        <path id="Caminho_132" data-name="Caminho 132" d="M146.407,85.662a4.8,4.8,0,0,0-.232-3.081c-.058-.178-.181-.392-.364-.359a.335.335,0,0,0-.18.118c-.17.187-.192.442-.349.63a.4.4,0,0,0-.1.486,6.056,6.056,0,0,0,.683,1.478c.081.128.168.253.258.374a2.637,2.637,0,0,1,.287.353" transform="translate(-71.062 -40.256)" fill="#482022"/>
        <path id="Caminho_133" data-name="Caminho 133" d="M7.052,98.772c-3.484,2.084-6.977,5.39-6.641,9.435,2.093,3.35,8.823.571,13.234.857,6.423.415,12.932.827,19.25-.406s12.529-4.319,16.194-9.611a4.45,4.45,0,0,0,.975-2.435c0-2.164-2.542-3.3-4.663-3.726A38.93,38.93,0,0,0,30.245,92.7c-2.357.457-4.8.3-7.178.6a41.363,41.363,0,0,0-7.805,1.741,40.621,40.621,0,0,0-8.21,3.735" transform="translate(-0.19 -45.065)" fill="#fff"/>
      </g>
    </g>
    <g id="Grupo_51" data-name="Grupo 51">
      <g id="Grupo_50" data-name="Grupo 50" clip-path="url(#clip-path)">
        <g id="Grupo_19" data-name="Grupo 19" transform="translate(111.486 86.153)" style="mix-blend-mode: multiply;isolation: isolate">
          <g id="Grupo_18" data-name="Grupo 18">
            <g id="Grupo_17" data-name="Grupo 17" clip-path="url(#clip-path-3)">
              <path id="Caminho_134" data-name="Caminho 134" d="M218.715,168.929c-.189.153-.306.179-.276-.046.02-.148.133-.077.276.046" transform="translate(-218.434 -168.8)" fill="#f28b8e"/>
            </g>
          </g>
        </g>
        <g id="Grupo_22" data-name="Grupo 22" transform="translate(111.766 80.335)" style="mix-blend-mode: multiply;isolation: isolate">
          <g id="Grupo_21" data-name="Grupo 21">
            <g id="Grupo_20" data-name="Grupo 20" clip-path="url(#clip-path-4)">
              <path id="Caminho_135" data-name="Caminho 135" d="M289.774,179.746a4.067,4.067,0,0,1-1.011,2.648l-.148.164-.209.061a14.135,14.135,0,0,1-3.889.536,14.728,14.728,0,0,1-8.916-2.981,28.081,28.081,0,0,1-4.486-4.7c-.531-.653-1.087-1.332-1.648-1.965a66.553,66.553,0,0,0-9.457-8.32c-.47-.367-.878-.683-1.245-.974a23.075,23.075,0,0,0-4.889-3.17,48.355,48.355,0,0,0-4.833,1.016c-4.073-.077-12.1,1.873-14.847,2.292-3,.459-4.129.189-7.135.643-4.155.633-3.481-.046-7.523-1.215a2.05,2.05,0,0,1-.551-.434,8.326,8.326,0,0,0,1.245-1.444c.342-.51.1-1.48.1-2.241v0a1.626,1.626,0,0,1,.112-.664,1.153,1.153,0,0,1,.117-.209,1.213,1.213,0,0,1,.965-.567,2.772,2.772,0,0,1,.709.036c.378.051.755.158,1.118.225a21.686,21.686,0,0,0,2.695.322c6.114.4,12.219-.7,18.328-1.194,5.67-.449,11.591-.311,16.771,1.945q.612.26,1.21.567c6.752,3.466,11.157,10.448,17.874,13.99,3.3,1.74,7.263,2.756,9.549,5.64" transform="translate(-218.984 -157.4)" fill="#f28b8e" opacity="0.41" style="mix-blend-mode: multiply;isolation: isolate"/>
            </g>
          </g>
        </g>
        <g id="Grupo_25" data-name="Grupo 25" transform="translate(79.475 70.882)" style="mix-blend-mode: multiply;isolation: isolate">
          <g id="Grupo_24" data-name="Grupo 24">
            <g id="Grupo_23" data-name="Grupo 23" clip-path="url(#clip-path-5)">
              <path id="Caminho_136" data-name="Caminho 136" d="M157.579,139.319c3.223-.622,5.942-.744,8.88.719a14.565,14.565,0,0,0,3.2.671,3.56,3.56,0,0,0,2.767-.413,4.241,4.241,0,0,1,2.546-.612c1.144.038,2.941.016,3.521,1l-1.312,2.622a4.261,4.261,0,0,1-.779,1.2,2.956,2.956,0,0,1-2.576.623,10.6,10.6,0,0,1-2.563-.985,32.928,32.928,0,0,0-11.093-2.98q-.968-.084-1.94-.112a12.879,12.879,0,0,1-1.883-.015c-.5-.093-.858-.6-.449-1.017a3.28,3.28,0,0,1,1.685-.7" transform="translate(-155.716 -138.88)" fill="#f28b8e" opacity="0.53" style="mix-blend-mode: multiply;isolation: isolate"/>
            </g>
          </g>
        </g>
        <g id="Grupo_28" data-name="Grupo 28" transform="translate(83.085 39.521)" style="mix-blend-mode: multiply;isolation: isolate">
          <g id="Grupo_27" data-name="Grupo 27">
            <g id="Grupo_26" data-name="Grupo 26" clip-path="url(#clip-path-6)">
              <path id="Caminho_137" data-name="Caminho 137" d="M169.859,96.342a16.962,16.962,0,0,0,2.311-.434,21.629,21.629,0,0,0,6.78-3.8,34.259,34.259,0,0,0,3.076-2.433c2.121-1.958,3.736-4.438,6-6.225a26.956,26.956,0,0,1,4.314-2.593,4.616,4.616,0,0,0,2.549-2.33.755.755,0,0,0-.043-.685.833.833,0,0,0-.484-.251,6.1,6.1,0,0,0-4.934.971c-.892.645-1.319.447-2,1.309s-1.741,1.222-2.579,2.323c-1.2,1.57-1.357,2.181-1.87,2.772-4.76,5.5-11.139,9.385-18.4,9.872a2.1,2.1,0,0,0-1.647.576c-.324.443-.066.871.38,1.082a4.412,4.412,0,0,0,1.915.171q1.077-.014,2.153-.086,1.242-.084,2.477-.244" transform="translate(-162.788 -77.433)" fill="#f28b8e"/>
            </g>
          </g>
        </g>
        <g id="Grupo_31" data-name="Grupo 31" transform="translate(79.516 50.927)" style="mix-blend-mode: multiply;isolation: isolate">
          <g id="Grupo_30" data-name="Grupo 30">
            <g id="Grupo_29" data-name="Grupo 29" clip-path="url(#clip-path-7)">
              <path id="Caminho_138" data-name="Caminho 138" d="M156.419,101.574a12.581,12.581,0,0,1-.119,7.905,2.388,2.388,0,0,0,2.4-1.194,4.406,4.406,0,0,0,.471-2.769,11.36,11.36,0,0,0-1.882-4.782,2.6,2.6,0,0,0-.651-.759c-.219-.152-.7-.35-.825.012a.446.446,0,0,0,.086.4,4.048,4.048,0,0,1,.283.545c.09.209.165.425.235.642" transform="translate(-155.795 -99.781)" fill="#f28b8e"/>
            </g>
          </g>
        </g>
        <g id="Grupo_34" data-name="Grupo 34" transform="translate(4.206 47.765)" style="mix-blend-mode: multiply;isolation: isolate">
          <g id="Grupo_33" data-name="Grupo 33">
            <g id="Grupo_32" data-name="Grupo 32" clip-path="url(#clip-path-8)">
              <path id="Caminho_139" data-name="Caminho 139" d="M22.133,104.412l10.032.028a48.371,48.371,0,0,0,6.529-.277c2.779-.372,5.685-1.373,7.236-3.6a9.867,9.867,0,0,0,1.355-5.89.647.647,0,0,0-.127-.455.718.718,0,0,0-.376-.161c-3.748-.783-7.642-.426-11.461-.064A144.562,144.562,0,0,0,19.371,96.1q-3.349.7-6.614,1.712c-1.29.4-2.687.932-3.3,2.083-.214.4-.332.833-.518,1.243a2.391,2.391,0,0,1-.341.576c-.1.112-.4.274-.345.426s.618.315.756.378q.377.172.766.325c.524.206,1.06.385,1.6.54a29.234,29.234,0,0,0,6.84.963c1.306.054,2.613.062,3.92.066" transform="translate(-8.242 -93.587)" fill="#f28b8e"/>
            </g>
          </g>
        </g>
        <g id="Grupo_37" data-name="Grupo 37" transform="translate(93.762 19.445)" style="mix-blend-mode: multiply;isolation: isolate">
          <g id="Grupo_36" data-name="Grupo 36">
            <g id="Grupo_35" data-name="Grupo 35" clip-path="url(#clip-path-9)">
              <path id="Caminho_140" data-name="Caminho 140" d="M191.277,51.593A21.443,21.443,0,0,1,188,48.53a50.574,50.574,0,0,1-2.454-4.508,15.281,15.281,0,0,1-1.3-2.875c-.563-1.67-.692-1.19-.348-3,.491-.236.9.45,1.013.981a18.046,18.046,0,0,0,2.443,5.938c1.65,2.716,4.415,5.242,7.588,5.436a8.714,8.714,0,0,1,2.688.324c.667.263,1.288.963,1.041,1.636-.274.745-1.283.8-1.993,1.154a2.088,2.088,0,0,0-.6.459c-.107.117-.269.5-.437.468-.249-.041-.632-1.123-.773-1.35-.571-.923-2.713-.959-3.591-1.6" transform="translate(-183.708 -38.099)" fill="#f28b8e"/>
            </g>
          </g>
        </g>
        <g id="Grupo_40" data-name="Grupo 40" transform="translate(52.474 41.882)" style="mix-blend-mode: multiply;isolation: isolate">
          <g id="Grupo_39" data-name="Grupo 39">
            <g id="Grupo_38" data-name="Grupo 38" clip-path="url(#clip-path-10)">
              <path id="Caminho_141" data-name="Caminho 141" d="M104.11,85.053a7.8,7.8,0,0,0,2.672-.019c2.352-.163,4.66.663,7.014.8,2.045.117,4.239-.259,6.033.726.689.378,1.265.935,1.944,1.331a9.728,9.728,0,0,0,2.7.927,4.8,4.8,0,0,0,2.312.16,1.649,1.649,0,0,0,1.311-1.685c-2.1-.019-4.381-.1-5.991-1.448-.309-.259-.585-.559-.918-.787a5.336,5.336,0,0,0-2.708-.671l-4.068-.265a5.338,5.338,0,0,1-2.634-.636c-.654-.431-1.125-1.153-1.871-1.391a.446.446,0,0,0-.257-.022c-.222.063-.254.359-.243.589.037.734-.058,1.68-.763,1.887-.5.147-.994-.192-1.479-.383a5.394,5.394,0,0,0-1.075-.262,21.209,21.209,0,0,0-2.537-.42c-.2-.01-.555-.022-.687.171-.159.231.109.57.252.742a2.042,2.042,0,0,0,1,.657" transform="translate(-102.813 -82.06)" fill="#f28b8e"/>
            </g>
          </g>
        </g>
        <g id="Grupo_46" data-name="Grupo 46" transform="translate(68.685 24.822)" style="mix-blend-mode: multiply;isolation: isolate">
          <g id="Grupo_45" data-name="Grupo 45">
            <g id="Grupo_44" data-name="Grupo 44" clip-path="url(#clip-path-11)">
              <path id="Caminho_143" data-name="Caminho 143" d="M135.612,48.632a4.734,4.734,0,0,1,1.875.852c.383.289.749.78.535,1.209a1.191,1.191,0,0,1-.909.487,3.239,3.239,0,0,1-1.738.008,1.116,1.116,0,0,1-.728-1.389c.2-.437.78-.663.855-1.139" transform="translate(-134.574 -48.633)" fill="#f28b8e"/>
            </g>
          </g>
        </g>
        <path id="Caminho_144" data-name="Caminho 144" d="M158.667,24.411a1.778,1.778,0,0,0-1.3.872,1.5,1.5,0,0,0,.638,1.729,5.1,5.1,0,0,0,2.02.762,28.245,28.245,0,0,0,5.9.6c.276,0,.606-.035.726-.25.167-.3-.192-.664-.37-.9-.236-.309-.485-.611-.74-.909a8.226,8.226,0,0,0-1.012-1.078,5.388,5.388,0,0,0-3.01-.759,10.527,10.527,0,0,0-2.849-.068" transform="translate(-77.004 -11.912)" fill="#160c22"/>
        <path id="Caminho_145" data-name="Caminho 145" d="M128.926,22.912a1.451,1.451,0,0,1,.9.9,1.248,1.248,0,0,1-.769,1.311,4.1,4.1,0,0,1-1.727.318,22.557,22.557,0,0,1-4.8-.393c-.22-.042-.478-.118-.542-.312-.088-.268.253-.511.43-.675.235-.216.479-.424.727-.629a6.759,6.759,0,0,1,.97-.726,4.313,4.313,0,0,1,2.517-.168,8.419,8.419,0,0,1,2.285.37" transform="translate(-59.725 -10.986)" fill="#160c22"/>
        <g id="Grupo_49" data-name="Grupo 49" transform="translate(80.323 12.959)" style="mix-blend-mode: multiply;isolation: isolate">
          <g id="Grupo_48" data-name="Grupo 48">
            <g id="Grupo_47" data-name="Grupo 47" clip-path="url(#clip-path-12)">
              <path id="Caminho_146" data-name="Caminho 146" d="M159.368,28.877a4.445,4.445,0,0,0,1.91.3,31.671,31.671,0,0,0,3.4-.1c.453-.046.992-.188,1.144-.69a1.152,1.152,0,0,0-.272-1.035,2.6,2.6,0,0,0-2.254-.612l-2.091.118a3.383,3.383,0,0,1-2.266-.41c-.292-.213-.531-.514-.81-.751-.153-.13-.628-.522-.728-.155a2,2,0,0,0,.185.973,4.719,4.719,0,0,0,.966,1.746,2.713,2.713,0,0,0,.82.616" transform="translate(-157.378 -25.39)" fill="#f28b8e"/>
            </g>
          </g>
        </g>
      </g>
    </g>
    <g id="Grupo_53" data-name="Grupo 53">
      <g id="Grupo_52" data-name="Grupo 52" clip-path="url(#clip-path)">
        <path id="Caminho_147" data-name="Caminho 147" d="M162.383,34.017a5.99,5.99,0,0,0-3.869-1.185,7.037,7.037,0,0,0-2.23.158,3.917,3.917,0,0,0-1.873,1.159,9.981,9.981,0,0,0-1.1,1.894l-.148.3a7,7,0,0,0-.771,2.97l-.051.5a11.089,11.089,0,0,0,.005,2.4,4.151,4.151,0,0,0,.771,2.164,4.258,4.258,0,0,0,2.5,1.393,10.848,10.848,0,0,0,2.281.179h.357a5.036,5.036,0,0,0,2.516-.47,3.722,3.722,0,0,0,1.47-1.807,15,15,0,0,0,1.322-6.247,4.389,4.389,0,0,0-1.179-3.4m-1.536,9.008a2.35,2.35,0,0,1-.837,1.118,3.9,3.9,0,0,1-1.766.265,10.813,10.813,0,0,1-2.312-.148,2.812,2.812,0,0,1-1.613-.847,2.711,2.711,0,0,1-.449-1.378,9.022,9.022,0,0,1-.056-1.052,9.661,9.661,0,0,1,.051-1.016l.051-.51a5.529,5.529,0,0,1,.618-2.424l.153-.311a10.513,10.513,0,0,1,.873-1.556,2.369,2.369,0,0,1,1.133-.7,4.351,4.351,0,0,1,1.138-.122c.2,0,.413.005.618.016a4.778,4.778,0,0,1,2.9.786,2.859,2.859,0,0,1,.684,2.266,13.5,13.5,0,0,1-1.184,5.614" transform="translate(-74.559 -16.065)" fill="#160c22"/>
        <path id="Caminho_148" data-name="Caminho 148" d="M238.309,95.275a72.412,72.412,0,0,1-15.327-14.454,19.329,19.329,0,0,1-3.1-5.022,22.235,22.235,0,0,1-.975-4.221c-.51-3.067-1.031-6.247-.378-9.283a24.478,24.478,0,0,1,1.363-4.027c.2-.5.408-1.015.6-1.526a36.125,36.125,0,0,0-1.822-29.107c-.771-1.47-1.98-2.108-3.011-1.592l-.424.219.005.475c.082,8.049-1.735,14.1-5.4,17.981-3.021,3.2-7.692,5.323-13.882,6.313A50.492,50.492,0,0,1,169.3,48.07a10,10,0,0,1-4.042-2.481,11.571,11.571,0,0,1-1.8-3.48c-.138-.373-.281-.74-.434-1.1a20.985,20.985,0,0,0-6.564-9,36.09,36.09,0,0,0,6.145-2.036,6.987,6.987,0,0,0,2.991-2.088,6.678,6.678,0,0,0,.96-4.318,10.174,10.174,0,0,0-.459-2.8,12.671,12.671,0,0,0-2.782-4.144,25.888,25.888,0,0,0-4.41-4.227,13.692,13.692,0,0,0-14.015-.821c-2.526-2.674-5.395-4.9-8.922-5.681a18.2,18.2,0,0,0-5.645-.224,8.093,8.093,0,0,0-.026-1.985,4.277,4.277,0,0,0-1.96-3.144A6.06,6.06,0,0,0,124.84.053c-1.883.137-4.231.311-6.089,1.577a11.221,11.221,0,0,0-2.031,1.919c-2.317,2.624-5.3,6.61-4.813,11.05a13.388,13.388,0,0,0-2.241,1.03,4.087,4.087,0,0,0-1.266.95,5.526,5.526,0,0,0-.878,3.767c.02.239.061.474.1.715q.046.253.077.505a7.805,7.805,0,0,0,.4,1.847,6.051,6.051,0,0,0,2.072,2.766,42.842,42.842,0,0,0-9.57,1.384A4.952,4.952,0,0,0,98.2,28.757a4.922,4.922,0,0,0-1.057,2.082,18.554,18.554,0,0,0-.694,8.207,11.647,11.647,0,0,0,4.1,7.263,18.469,18.469,0,0,0,4.277,2.276c.679.286,1.342.572,2,.847a87.566,87.566,0,0,0,14.623,5.241,8.517,8.517,0,0,0,1.005,4.486,5.806,5.806,0,0,0,.842,1.292,4.278,4.278,0,0,0,1.368.99c-.3.306-.592.586-.832.806-1.516,1.378-3.149,2.69-4.731,3.961a73.087,73.087,0,0,0-6.645,5.8c-2.965,3.053-6.492,7.911-6.446,13.709a6.318,6.318,0,0,0,1.434,4.379c1.327,1.434,3.333,1.73,5.272,1.914a8.1,8.1,0,0,0,.812.051,3.175,3.175,0,0,0,1.184-.2c1.383-.551,1.832-2.032,2.19-3.221l.015-.051a21.854,21.854,0,0,1,7.268-10.2,6.536,6.536,0,0,0,.643,2.685c.9,1.714,2.736,2.546,4.379,3.19,5.747,2.251,11.764,3.976,17.578,5.645a21.306,21.306,0,0,0,5.762,1.066,8.389,8.389,0,0,0,6.916-3.425c2.281,1.368,4.726,1.21,7.293,1.041.485-.03.98-.066,1.485-.086a76.954,76.954,0,0,0,12.453-1.383c1.8-.383,3.629-.883,5.4-1.363.949-.26,1.9-.521,2.858-.761a48.5,48.5,0,0,1,4.833-1.016,23.075,23.075,0,0,1,4.889,3.17c.367.29.776.607,1.245.974a66.549,66.549,0,0,1,9.457,8.32c.561.632,1.118,1.311,1.649,1.965a28.078,28.078,0,0,0,4.486,4.7,14.728,14.728,0,0,0,8.916,2.981,14.135,14.135,0,0,0,3.889-.536l.209-.061.148-.164a4.068,4.068,0,0,0,1.011-2.648c0-.077,0-.148-.005-.225,1.363.445,2.731.858,4.088,1.266a13.264,13.264,0,0,0,3.762.725,5.935,5.935,0,0,0,.669-.036,4.417,4.417,0,0,0,3.869-2.878c.786-2.711-1.766-4.869-3.756-6.257M157.04,34.5a19.013,19.013,0,0,1,3.731,5.226A19.137,19.137,0,0,0,152.61,45c-.755.822-1.47,1.69-2.169,2.527a34.754,34.754,0,0,1-3.925,4.241c-4.241,3.665-9.983,5.011-15.235,5.875a13.421,13.421,0,0,0-.342-2.966,26.784,26.784,0,0,0,10.733-4.287A42.429,42.429,0,0,0,151.584,40.1l.117-.163c1.449-2,3.241-4.451,5.339-5.436m-47.5-11.627a6.366,6.366,0,0,1-.316-1.495c-.02-.194-.056-.388-.087-.582a5.886,5.886,0,0,1-.087-.6,3.977,3.977,0,0,1,.531-2.643,2.894,2.894,0,0,1,.822-.582,9.746,9.746,0,0,1,2.695-1.113,4.278,4.278,0,0,1,.791-.076,2.9,2.9,0,0,1,1.659.47,3.27,3.27,0,0,1,1.21,2.036,11.061,11.061,0,0,1,.128,2.792,9.8,9.8,0,0,1-.388,2.879,2.826,2.826,0,0,1-1.567,1.8,2.71,2.71,0,0,1-.852.142,4.8,4.8,0,0,1-3.7-1.613,4.6,4.6,0,0,1-.837-1.409m12.224,30.3a87.822,87.822,0,0,1-14.342-5.15c-.653-.281-1.322-.567-2-.852a17.594,17.594,0,0,1-3.935-2.077,8.6,8.6,0,0,1-1.552-1.608c.2.077.4.148.612.225l.184.066a18.835,18.835,0,0,0,5.211.858l4.2.286c1.169.082,2.358.158,3.552.158a17.631,17.631,0,0,0,3.466-.3,9.5,9.5,0,0,0,6.2-3.751,13.307,13.307,0,0,0,1.786-6.12.765.765,0,1,0-1.521-.174,12.059,12.059,0,0,1-1.531,5.436,8.2,8.2,0,0,1-5.231,3.108,25.6,25.6,0,0,1-6.615.117l-2.97-.2a30.938,30.938,0,0,1-.934-5.839c.75.045,1.5.056,2.23.056h.225c1.511-.006,3.185-.189,4.093-1.506a3.279,3.279,0,0,0,.235-3.093,5.343,5.343,0,0,0-1.807-2.195,7.435,7.435,0,0,0-.776-.52,9.683,9.683,0,0,0-5.293-.858l-.383.011a7.431,7.431,0,0,0-4.3,1.276A3.4,3.4,0,0,0,99.259,33.7c.26,1.47,1.587,2.623,3.644,3.164a15.1,15.1,0,0,0,1.888.357,32.928,32.928,0,0,0,.878,5.864,16.371,16.371,0,0,1-4.42-.74l-.184-.067c-1.465-.531-2.2-.8-2.69-1.99a.7.7,0,0,0-.112-.184,11.876,11.876,0,0,1-.306-1.306,16.945,16.945,0,0,1,.653-7.523,3.545,3.545,0,0,1,.689-1.449,3.74,3.74,0,0,1,1.7-.781,41.592,41.592,0,0,1,17.909-.7.768.768,0,0,0,.888-.618.759.759,0,0,0-.618-.889c-.832-.153-1.674-.276-2.521-.378a4.822,4.822,0,0,0,1.286-1.99,11.218,11.218,0,0,0,.47-3.328,12.512,12.512,0,0,0-.163-3.174A4.794,4.794,0,0,0,116.424,15a4.564,4.564,0,0,0-3.006-.72c-.337-3.782,2.358-7.345,4.451-9.718A9.885,9.885,0,0,1,119.614,2.9c1.521-1.036,3.547-1.184,5.339-1.317a4.721,4.721,0,0,1,2.628.281A2.834,2.834,0,0,1,128.8,3.911a7.5,7.5,0,0,1-.026,1.94,21.762,21.762,0,0,0-11.376,4.558.766.766,0,0,0,.985,1.174c2.914-2.465,6.972-3.935,12.06-4.384a16.663,16.663,0,0,1,5.206.189c4.435.985,7.845,4.624,10.866,8.411a.764.764,0,0,0,1.194-.954c-.567-.709-1.143-1.413-1.74-2.1a12.141,12.141,0,0,1,12.071.9,24.884,24.884,0,0,1,4.144,3.987,11.375,11.375,0,0,1,2.475,3.624,8.944,8.944,0,0,1,.383,2.373,5.376,5.376,0,0,1-.669,3.343A5.674,5.674,0,0,1,162,28.563a34.363,34.363,0,0,1-7.554,2.3c-2.889.531-4.854.286-6.191-.766A8.974,8.974,0,0,1,146.108,27l-4.257-8.417a.775.775,0,0,0-1.031-.336.766.766,0,0,0-.337,1.031l4.257,8.411a10.188,10.188,0,0,0,2.572,3.608,7.154,7.154,0,0,0,4.517,1.368,15.519,15.519,0,0,0,2.583-.245c.485.316.949.648,1.393,1-2.179,1.266-3.915,3.654-5.339,5.614l-.123.168a40.947,40.947,0,0,1-9.534,9.916,25.321,25.321,0,0,1-10.34,4.073,4.136,4.136,0,0,0-.817-1.25l-.077-.082a6.956,6.956,0,0,0-1.46-1.338,3.936,3.936,0,0,0-2.812-.566,4.419,4.419,0,0,0-2.144,1.1,5.333,5.333,0,0,0-1.4,2.119m-18.471-17.8c-.536-.143-2.3-.7-2.521-1.944a1.864,1.864,0,0,1,.745-1.7,5.973,5.973,0,0,1,3.389-.949l.388-.011a8.381,8.381,0,0,1,4.486.658,5.073,5.073,0,0,1,.607.409,3.891,3.891,0,0,1,1.322,1.562,1.751,1.751,0,0,1-.082,1.633c-.505.74-1.72.842-2.838.847a21.867,21.867,0,0,1-5.5-.5m21.135,24.045a4.653,4.653,0,0,1-.618-.954,6.656,6.656,0,0,1-.76-4.227,3.5,3.5,0,0,1,2.547-2.782,2.413,2.413,0,0,1,1.71.353,6.017,6.017,0,0,1,1.138,1.071l.077.082a2.914,2.914,0,0,1,.536.807c.087.214.163.439.235.674l.046.438a.437.437,0,0,0,.077-.01,11.741,11.741,0,0,1,.337,2.9,2.933,2.933,0,0,1-.362,1.612,2.354,2.354,0,0,1-1.271.776,4.333,4.333,0,0,1-2.261.071l-.143-.091a.431.431,0,0,0-.036.051,2.771,2.771,0,0,1-1.25-.775m103.241,44.72a13.188,13.188,0,0,1-11.228-2.251,26.632,26.632,0,0,1-4.226-4.451c-.546-.669-1.108-1.358-1.684-2.016a68.123,68.123,0,0,0-9.677-8.519c-.464-.357-.868-.673-1.23-.959a27.63,27.63,0,0,0-3.134-2.246,16.659,16.659,0,0,1,5.931.709c4.16,1.337,7.288,4.409,10.606,7.661a51.525,51.525,0,0,0,6.416,5.635,35.715,35.715,0,0,0,8.61,4.2,2.584,2.584,0,0,1-.383,2.235M240.6,101.1a2.944,2.944,0,0,1-2.557,1.786,10.082,10.082,0,0,1-3.833-.638c-4.793-1.435-9.748-2.92-13.893-5.8a49.9,49.9,0,0,1-6.216-5.466c-3.3-3.236-6.706-6.579-11.213-8.029a15.927,15.927,0,0,0-1.832-.469c-5.083-1.005-10.3.419-15.363,1.791-1.751.48-3.568.97-5.323,1.348a75.566,75.566,0,0,1-12.2,1.347c-.516.025-1.021.056-1.516.086-2.46.164-4.476.3-6.324-.775a12.7,12.7,0,0,0,.888-1.812,17.873,17.873,0,0,0,.929-3.282,46.893,46.893,0,0,0,.592-4.869.766.766,0,1,0-1.526-.132,39.588,39.588,0,0,1-.74,5.533c-.071.3-.143.587-.23.872V82.6c-.128.444-.276.883-.444,1.312a8.548,8.548,0,0,1-4.971,5.2c-2.475.806-5.328-.015-7.62-.668-5.783-1.664-11.764-3.379-17.44-5.6-1.393-.546-2.93-1.225-3.583-2.476a6.764,6.764,0,0,1-.51-2.8c-.046-1.194-.036-2.522.74-3.18a3.422,3.422,0,0,1,1.955-.576,20.457,20.457,0,0,1,7.595.863c1,.311,2.011.714,2.991,1.1a21.134,21.134,0,0,0,6.594,1.817,4.6,4.6,0,0,0,2.3-.378c1.98-1,2.139-3.68,2.2-4.823a.764.764,0,1,0-1.526-.091c-.087,1.455-.316,3.016-1.373,3.552a3.046,3.046,0,0,1-1.521.209,19.654,19.654,0,0,1-6.109-1.71c-1.005-.4-2.047-.812-3.1-1.143a22.115,22.115,0,0,0-8.166-.924,4.789,4.789,0,0,0-2.833.94,4.355,4.355,0,0,0-1.286,3.291,23.576,23.576,0,0,0-8.682,11.627l-.015.051c-.281.919-.6,1.965-1.3,2.246a3.015,3.015,0,0,1-1.276.051c-1.72-.163-3.338-.392-4.3-1.434a4.9,4.9,0,0,1-1.021-3.354c-.041-5.277,3.246-9.778,6.017-12.626a71.315,71.315,0,0,1,6.5-5.675c1.6-1.282,3.251-2.608,4.8-4.017a15.949,15.949,0,0,0,1.465-1.5c.163.016.332.02.5.02a6.025,6.025,0,0,0,1.751-.265,3.793,3.793,0,0,0,2.067-1.353,3.241,3.241,0,0,0,.485-1.067c5.568-.893,11.749-2.276,16.4-6.293a36.726,36.726,0,0,0,4.1-4.42c.684-.827,1.388-1.679,2.118-2.47,1.827-1.985,4.935-4.277,7.686-4.895.066.148.133.3.194.449.148.352.281.709.419,1.066a12.822,12.822,0,0,0,2.067,3.935,11.641,11.641,0,0,0,4.634,2.9,52,52,0,0,0,27.454,3.047c6.528-1.041,11.494-3.318,14.75-6.773,3.813-4.032,5.767-10.136,5.824-18.154a2.869,2.869,0,0,1,.546.734,34.574,34.574,0,0,1,1.74,27.857c-.184.5-.388,1-.587,1.49a26.826,26.826,0,0,0-1.439,4.278c-.715,3.323-.138,6.793.367,9.856a23.717,23.717,0,0,0,1.051,4.507,20.845,20.845,0,0,0,3.338,5.441,73.873,73.873,0,0,0,15.648,14.75c2.552,1.782,3.552,3.236,3.164,4.579" transform="translate(-47.127 0)" fill="#160c22"/>
        <path id="Caminho_149" data-name="Caminho 149" d="M141.91,84.484a3.406,3.406,0,0,1-.557-.046,12.057,12.057,0,0,1-2.966-1.319,5.331,5.331,0,0,1-1.771-3.008l1.508-.265a4.277,4.277,0,0,0,1.043,1.957,10.451,10.451,0,0,0,2.429,1.124,2.122,2.122,0,0,0,1.116-.137,5.017,5.017,0,0,1,1.346-.269,1.862,1.862,0,0,0,1-.233c.356-.28.357-.979.325-1.37-.149-1.852-1.944-5.549-2.534-6.764l1.378-.669c1.077,2.22,2.528,5.393,2.682,7.311a2.891,2.891,0,0,1-.9,2.694,3.133,3.133,0,0,1-1.875.56,3.552,3.552,0,0,0-.962.2,3.975,3.975,0,0,1-1.26.234" transform="translate(-66.889 -35.979)" fill="#160c22"/>
        <path id="Caminho_150" data-name="Caminho 150" d="M7.341,110.358A9.862,9.862,0,0,1,2.8,109.6l-.228-.133c-2.294-1.336-3.183-1.988-2.131-4.746.947-2.486,5.618-7.674,8.4-8.867a34.2,34.2,0,0,1,8.326-2.039c2.315-.353,4.66-.687,6.973-.99,2.869-.377,5.791-.688,8.616-.989,1.244-.133,2.488-.264,3.732-.4,3.635-.4,8.542-.55,11.278,1.045A4.316,4.316,0,0,1,50.058,95.2c.371,1.658-.6,3.367-1.7,4.966a19.769,19.769,0,0,1-4.608,4.477c-.459.3-.9.592-1.342.883a19.907,19.907,0,0,1-6.954,3.39c-.31.069-.629.142-.955.217A31.354,31.354,0,0,1,28,110.151l-16.055.062c-.458,0-1.039.028-1.712.059-.917.042-1.914.086-2.889.086M17.4,95.332a32.483,32.483,0,0,0-7.953,1.933c-2.332,1-6.768,5.895-7.573,8.005-.631,1.653-.631,1.653,1.471,2.877l.231.134c1.206.7,4.446.558,6.59.46.69-.031,1.286-.058,1.775-.06l16.054-.062a30.3,30.3,0,0,0,6.171-.98c.329-.075.651-.149.964-.218a18.471,18.471,0,0,0,6.438-3.171c.444-.3.9-.6,1.363-.9A18.589,18.589,0,0,0,47.1,99.3c1.22-1.773,1.657-2.9,1.463-3.763a2.913,2.913,0,0,0-1.569-1.729c-1.853-1.08-5.525-1.381-10.339-.846q-1.87.207-3.74.4c-2.816.3-5.728.609-8.579.984-2.3.3-4.637.634-6.94.986" transform="translate(0 -44.638)" fill="#160c22"/>
        <path id="Caminho_151" data-name="Caminho 151" d="M18.431,104.276a26.832,26.832,0,0,1-9.686-1.565A3,3,0,0,1,7.023,101.4l1.361-.7a1.751,1.751,0,0,0,.911.582c5.387,2.069,11.527,1.487,16.946.975,1.28-.121,2.6-.246,3.88-.472a40.959,40.959,0,0,0,7.4-2.233,13.468,13.468,0,0,0,4.9-2.745c1.085-1.1,1.938-3.007,1.25-4.616l1.408-.6c.973,2.272-.087,4.8-1.569,6.3a14.7,14.7,0,0,1-5.436,3.1,42.274,42.274,0,0,1-7.682,2.311c-1.337.237-2.693.365-4,.489-2.54.24-5.233.5-7.953.5" transform="translate(-3.439 -44.843)" fill="#160c22"/>
      </g>
    </g>
  </g>
</svg>
