<svg xmlns="http://www.w3.org/2000/svg" width="37.691" height="37.698" viewBox="0 0 37.691 37.698">
  <g id="icons8-github" transform="translate(-2.014 -2)">
    <path id="Caminho_189" data-name="Caminho 189" d="M21.2,3A18.2,18.2,0,1,0,39.4,21.2,18.2,18.2,0,0,0,21.2,3Z" transform="translate(-0.345 -0.35)" fill="#8b8e98"/>
    <path id="Caminho_190" data-name="Caminho 190" d="M22.949,37.9A14.949,14.949,0,1,1,37.9,22.949,14.949,14.949,0,0,1,22.949,37.9Z" transform="translate(-2.095 -2.1)" fill="#7e8189"/>
    <path id="Caminho_191" data-name="Caminho 191" d="M26.743,33.26a7.149,7.149,0,0,1,1.9,4.322v3.412c0,.357.149,1.384.585,1.5l-5.785,1.053L17.592,42.5c.468-.1.65-1.15.65-1.508V38.882c-5.063,1.1-6.109-2.795-6.109-2.795a4.872,4.872,0,0,0-2.021-2.665c-1.651-1.124.123-1.1.123-1.1A3.828,3.828,0,0,1,13.043,34.2a4.131,4.131,0,0,0,5.2,2.086,6.257,6.257,0,0,1,1.885-3.009c-4.043-.461-8.293-2.021-8.293-9a7.039,7.039,0,0,1,1.859-4.894,6.558,6.558,0,0,1,.182-4.816s1.527-.487,5,1.865a17.3,17.3,0,0,1,9.1,0c3.471-2.353,5-1.865,5-1.865a6.558,6.558,0,0,1,.214,4.816,7.039,7.039,0,0,1,1.865,4.881C35.05,31.271,30.8,32.811,26.743,33.26Z" transform="translate(-2.588 -4.385)" fill="#faefde"/>
    <path id="Caminho_192" data-name="Caminho 192" d="M20.853,2a18.848,18.848,0,0,0-6.2,36.644.65.65,0,0,0,.357.123A18.848,18.848,0,1,0,20.853,2ZM16.109,37.747a4.043,4.043,0,0,0,.195-1.131V34.5a.65.65,0,0,0-.786-.65c-4.368.949-5.31-2.2-5.349-2.327v-.071a6.135,6.135,0,0,0-1.95-2.756,3.49,3.49,0,0,1,1.664,1.43,4.785,4.785,0,0,0,6.044,2.353.65.65,0,0,0,.377-.5,5.6,5.6,0,0,1,1.664-2.6.65.65,0,0,0-.364-1.131c-3.815-.435-7.715-1.768-7.715-8.345a6.382,6.382,0,0,1,1.7-4.446.65.65,0,0,0,.162-.689,5.746,5.746,0,0,1,0-3.958c.552,0,1.9.253,4.173,1.794a.65.65,0,0,0,.539.091,16.613,16.613,0,0,1,8.761,0,.65.65,0,0,0,.539-.091c2.281-1.547,3.633-1.781,4.166-1.8a5.765,5.765,0,0,1,.045,3.965.65.65,0,0,0,.123.682,6.382,6.382,0,0,1,1.7,4.446c0,6.584-3.9,7.91-7.728,8.332a.65.65,0,0,0-.351,1.137A6.629,6.629,0,0,1,25.4,33.2V36.61a4.081,4.081,0,0,0,.188,1.137,17.458,17.458,0,0,1-9.483,0Zm10.724-.39a2.684,2.684,0,0,1-.13-.734V33.2a7.578,7.578,0,0,0-1.3-3.841c3.607-.611,7.728-2.483,7.728-9.463a7.643,7.643,0,0,0-1.781-5.024,7.435,7.435,0,0,0-.312-4.914.65.65,0,0,0-.4-.377c-.182-.058-1.852-.494-5.317,1.781a17.945,17.945,0,0,0-8.878,0c-3.464-2.275-5.135-1.839-5.317-1.781a.65.65,0,0,0-.4.377,7.422,7.422,0,0,0-.312,4.914,7.637,7.637,0,0,0-1.781,5.024c0,6.922,4.049,8.826,7.624,9.463a6.181,6.181,0,0,0-1.131,2.054A3.55,3.55,0,0,1,11.033,29.5a4.485,4.485,0,0,0-3.347-2.21c-.351,0-1.235.058-1.443.734s.591,1.3.949,1.56l.084.045a4.173,4.173,0,0,1,1.69,2.294c.149.461,1.443,3.965,6.077,3.347V36.61a2.6,2.6,0,0,1-.136.734,17.549,17.549,0,1,1,11.965,0Z" fill="#37474f"/>
    <path id="Caminho_193" data-name="Caminho 193" d="M26.849,26.5a.65.65,0,0,0-.65.65v1.3a.65.65,0,1,0,1.3,0v-1.3A.65.65,0,0,0,26.849,26.5Zm2.99,1.644a.65.65,0,0,0,1.254-.344l-.344-1.248a.65.65,0,0,0-1.254.338Zm-9-3.256a.65.65,0,0,0-.89.24l-.65,1.124a.65.65,0,0,0,1.124.65l.65-1.124a.65.65,0,0,0-.234-.89ZM33.271,26.9a.65.65,0,1,0,1.124-.65l-.65-1.124a.65.65,0,0,0-1.124.65Zm-9.535-.812a.65.65,0,0,0-.793.461L22.605,27.8a.65.65,0,1,0,1.254.338l.338-1.254A.65.65,0,0,0,23.736,26.091ZM33.576,8.6a14.76,14.76,0,0,0-1.495-.65.65.65,0,0,0-.455,1.215,13.714,13.714,0,0,1,1.365.6.648.648,0,0,0,.585-1.157ZM29.222,7.19a15,15,0,0,0-9.749,1.768.651.651,0,0,0,.643,1.131,13.714,13.714,0,0,1,8.9-1.612.658.658,0,0,0,.208-1.3Z" transform="translate(-5.996 -1.752)" fill="#37474f"/>
  </g>
</svg>
