<svg xmlns="http://www.w3.org/2000/svg" width="186" height="140.618" viewBox="0 0 186 140.618">
  <g id="Icons" transform="translate(-707 -773)">
    <g id="Grupo_65" data-name="Grupo 65" transform="translate(0 11)">
      <g id="icons8-css3" transform="translate(703 758)">
        <path id="Caminho_155" data-name="Caminho 155" d="M5.015,7.244,10.481,52.49a4.021,4.021,0,0,0,2.9,3.379l17.535,4.977a4.065,4.065,0,0,0,2.172.013l18.442-5a4.017,4.017,0,0,0,2.955-3.471L59.034,7.205A2.01,2.01,0,0,0,57.025,5H7.019A2.01,2.01,0,0,0,5.015,7.244Z" fill="#7bbeeb"/>
        <path id="Caminho_156" data-name="Caminho 156" d="M57.025,5H32V61a4.093,4.093,0,0,0,1.088-.141l18.442-5a4.017,4.017,0,0,0,2.955-3.471L59.034,7.205A2.01,2.01,0,0,0,57.025,5Z" fill="#ace3ff"/>
        <path id="Caminho_157" data-name="Caminho 157" d="M32.025,62a5.078,5.078,0,0,1-1.383-.192L13.107,56.831a5.01,5.01,0,0,1-3.62-4.221L4.021,7.364a3,3,0,0,1,.733-2.347A3.032,3.032,0,0,1,7.02,4H57.026a3.011,3.011,0,0,1,3,3.306L55.48,52.493a5.046,5.046,0,0,1-3.69,4.334l-18.44,5A5.046,5.046,0,0,1,32.025,62ZM7.02,6a1.011,1.011,0,0,0-.768.344.983.983,0,0,0-.244.78h0L11.474,52.37a3.013,3.013,0,0,0,2.18,2.537L31.19,59.884a3.073,3.073,0,0,0,1.637.01l18.441-5a3.036,3.036,0,0,0,2.223-2.6L58.04,7.1a.993.993,0,0,0-.253-.769A1.017,1.017,0,0,0,57.025,6Z" fill="#37474f"/>
        <path id="Caminho_158" data-name="Caminho 158" d="M7,12a1,1,0,0,1-1-1V9A1,1,0,0,1,8,9v2A1,1,0,0,1,7,12Zm5,0a1,1,0,0,1-1-1V9a1,1,0,0,1,2,0v2A1,1,0,0,1,12,12Zm5,0a1,1,0,0,1-1-1V9a1,1,0,0,1,2,0v2A1,1,0,0,1,17,12Zm5,0a1,1,0,0,1-1-1V9a1,1,0,0,1,2,0v2A1,1,0,0,1,22,12Zm5,0a1,1,0,0,1-1-1V9a1,1,0,0,1,2,0v2A1,1,0,0,1,27,12Zm5,0a1,1,0,0,1-1-1V9a1,1,0,0,1,2,0v2A1,1,0,0,1,32,12Zm5,0a1,1,0,0,1-1-1V9a1,1,0,0,1,2,0v2A1,1,0,0,1,37,12Zm5,0a1,1,0,0,1-1-1V9a1,1,0,0,1,2,0v2A1,1,0,0,1,42,12Zm5,0a1,1,0,0,1-1-1V9a1,1,0,0,1,2,0v2A1,1,0,0,1,47,12Zm5,0a1,1,0,0,1-1-1V9a1,1,0,0,1,2,0v2A1,1,0,0,1,52,12Zm5,0a1,1,0,0,1-1-1V9a1,1,0,0,1,2,0v2A1,1,0,0,1,57,12ZM40,54.806a1,1,0,0,1-.261-1.965l2-.542a1,1,0,0,1,.524,1.93l-2,.542A1,1,0,0,1,40,54.806ZM32.024,57l-5.3-1.5a1,1,0,1,1,.547-1.923l4.763,1.352,3.7-1a1,1,0,0,1,.524,1.93Z" fill="#37474f"/>
        <path id="Caminho_159" data-name="Caminho 159" d="M15.5,30l1.238,2.262L19,33.5l-2.262,1.238L15.5,37l-1.238-2.262L12,33.5l2.262-1.238Zm32,17,.876,1.61L50,49.5l-1.622.876L47.5,52l-.892-1.622L45,49.5l1.61-.892Zm5-24,.531.962L54,24.5l-.966.529L52.5,26l-.538-.973L51,24.5l.966-.536Z" fill="#fff8f8"/>
        <path id="Caminho_160" data-name="Caminho 160" d="M47.018,17H17a1,1,0,0,0-.987,1.155L16.776,23h24.6l-.709,6H25v6H39.956l-.9,7.625-6.961,2.122-6.147-2.082L25.5,39.844A1,1,0,0,0,24.515,39H20.466a1,1,0,0,0-.988,1.156l1.014,6.439a.984.984,0,0,0,.658.78L31.7,50.949a.968.968,0,0,0,.592.009L43.938,47.41a.984.984,0,0,0,.691-.827L47.52,22.118,48,18.1A.984.984,0,0,0,47.018,17Z" fill="#faefde"/>
        <path id="Caminho_161" data-name="Caminho 161" d="M32.014,52a1.961,1.961,0,0,1-.624-.1L20.83,48.322a1.978,1.978,0,0,1-1.325-1.57L18.49,40.311A2,2,0,0,1,20.466,38h4.05a1.991,1.991,0,0,1,1.976,1.69l.35,2.222,5.27,1.784,6.029-1.837.69-5.86H25a1,1,0,0,1-1-1V29a1,1,0,0,1,1-1H39.776l.473-4H16.775a1,1,0,0,1-.988-.845l-.763-4.846A2,2,0,0,1,17,16H47.019a1.982,1.982,0,0,1,1.969,2.217L45.623,46.7a1.986,1.986,0,0,1-1.393,1.666l-11.643,3.55A1.944,1.944,0,0,1,32.014,52ZM20.466,40l1.015,6.439L32.024,50l11.623-3.55L47,18H17l.63,4H41.374a1,1,0,0,1,.993,1.117l-.709,6a1,1,0,0,1-.993.883H26v4H39.956a1,1,0,0,1,.993,1.117l-.9,7.625a1,1,0,0,1-.7.839L32.387,45.7a.985.985,0,0,1-.612-.009l-6.147-2.082a1,1,0,0,1-.668-.792L24.515,40Z" fill="#37474f"/>
      </g>
      <g id="icons8-html-5" transform="translate(770 758)">
        <path id="Caminho_162" data-name="Caminho 162" d="M5.015,7.244,10.481,52.49a4.021,4.021,0,0,0,2.9,3.379l17.535,4.977a4.065,4.065,0,0,0,2.172.013l18.442-5a4.017,4.017,0,0,0,2.955-3.471L59.034,7.205A2.01,2.01,0,0,0,57.025,5H7.019A2.01,2.01,0,0,0,5.015,7.244Z" fill="#f6d397"/>
        <path id="Caminho_163" data-name="Caminho 163" d="M57.025,5H32V61a4.093,4.093,0,0,0,1.088-.141l18.442-5a4.017,4.017,0,0,0,2.955-3.471L59.034,7.205A2.01,2.01,0,0,0,57.025,5Z" fill="#f9e3ae"/>
        <path id="Caminho_164" data-name="Caminho 164" d="M32.025,62a5.078,5.078,0,0,1-1.383-.192L13.107,56.831a5.01,5.01,0,0,1-3.62-4.221L4.021,7.364a3,3,0,0,1,.733-2.347A3.032,3.032,0,0,1,7.02,4H57.026a3.011,3.011,0,0,1,3,3.306L55.48,52.493a5.046,5.046,0,0,1-3.69,4.334l-18.44,5A5.046,5.046,0,0,1,32.025,62ZM7.02,6a1.011,1.011,0,0,0-.768.344.983.983,0,0,0-.244.78h0L11.474,52.37a3.013,3.013,0,0,0,2.18,2.537L31.19,59.884a3.073,3.073,0,0,0,1.637.01l18.441-5a3.036,3.036,0,0,0,2.223-2.6L58.04,7.1a.993.993,0,0,0-.253-.769A1.017,1.017,0,0,0,57.025,6Z" fill="#37474f"/>
        <path id="Caminho_165" data-name="Caminho 165" d="M7,12a1,1,0,0,1-1-1V9A1,1,0,0,1,8,9v2A1,1,0,0,1,7,12Zm5,0a1,1,0,0,1-1-1V9a1,1,0,0,1,2,0v2A1,1,0,0,1,12,12Zm5,0a1,1,0,0,1-1-1V9a1,1,0,0,1,2,0v2A1,1,0,0,1,17,12Zm5,0a1,1,0,0,1-1-1V9a1,1,0,0,1,2,0v2A1,1,0,0,1,22,12Zm5,0a1,1,0,0,1-1-1V9a1,1,0,0,1,2,0v2A1,1,0,0,1,27,12Zm5,0a1,1,0,0,1-1-1V9a1,1,0,0,1,2,0v2A1,1,0,0,1,32,12Zm5,0a1,1,0,0,1-1-1V9a1,1,0,0,1,2,0v2A1,1,0,0,1,37,12Zm5,0a1,1,0,0,1-1-1V9a1,1,0,0,1,2,0v2A1,1,0,0,1,42,12Zm5,0a1,1,0,0,1-1-1V9a1,1,0,0,1,2,0v2A1,1,0,0,1,47,12Zm5,0a1,1,0,0,1-1-1V9a1,1,0,0,1,2,0v2A1,1,0,0,1,52,12Zm5,0a1,1,0,0,1-1-1V9a1,1,0,0,1,2,0v2A1,1,0,0,1,57,12Z" fill="#37474f"/>
        <path id="Caminho_166" data-name="Caminho 166" d="M47.018,17H17a1,1,0,0,0-.987,1.155l2.52,16a1,1,0,0,0,.988.844h19.31a1,1,0,0,1,.993,1.117l-.769,6.508-6.961,2.122-6.147-2.082L25.5,39.844A1,1,0,0,0,24.515,39H20.466a1,1,0,0,0-.988,1.156l1.014,6.439a.984.984,0,0,0,.658.78L31.7,50.949a.968.968,0,0,0,.592.009L43.938,47.41a.984.984,0,0,0,.691-.827l1.945-16.465A1,1,0,0,0,45.582,29H24.65a1,1,0,0,1-.988-.844l-.63-4A1,1,0,0,1,24.02,23H46.527a1,1,0,0,0,.993-.883l.475-4.019A.983.983,0,0,0,47.018,17Z" fill="#faefde"/>
        <path id="Caminho_167" data-name="Caminho 167" d="M32.014,52a1.961,1.961,0,0,1-.624-.1L20.83,48.322a1.978,1.978,0,0,1-1.325-1.57L18.49,40.311A2,2,0,0,1,20.466,38h4.05a1.991,1.991,0,0,1,1.976,1.69l.35,2.222,5.27,1.784,6.029-1.837.69-5.86H19.521a1.991,1.991,0,0,1-1.976-1.69l-2.521-16A2,2,0,0,1,17,16H47.019a1.983,1.983,0,0,1,1.969,2.215l-.475,4.02A2,2,0,0,1,46.527,24H24.02l.631,4H45.583a2,2,0,0,1,1.986,2.235L45.624,46.7a1.985,1.985,0,0,1-1.4,1.667L32.588,51.916A1.989,1.989,0,0,1,32.014,52ZM20.466,40l1.015,6.439L32.024,50l11.623-3.55L45.582,30H24.649a1.991,1.991,0,0,1-1.976-1.69l-.63-4A2,2,0,0,1,24.019,22H46.527L47,18H17l2.521,16h19.31a2,2,0,0,1,1.986,2.235l-.769,6.508a1,1,0,0,1-.7.839L32.386,45.7a.985.985,0,0,1-.612-.009l-6.147-2.082a1,1,0,0,1-.668-.792L24.515,40ZM40,54.806a1,1,0,0,1-.261-1.965l2-.542a1,1,0,0,1,.524,1.93l-2,.542A1,1,0,0,1,40,54.806ZM32.024,57l-5.3-1.5a1,1,0,1,1,.547-1.923l4.763,1.352,3.7-1a1,1,0,0,1,.524,1.93Z" fill="#37474f"/>
        <path id="Caminho_168" data-name="Caminho 168" d="M50.5,23l1.238,2.262L54,26.5l-2.262,1.238L50.5,30l-1.238-2.262L47,26.5l2.262-1.238Zm-3,24,.876,1.61L50,49.5l-1.622.876L47.5,52l-.892-1.622L45,49.5l1.61-.892Zm-35-12,.529.962.962.536-.962.529L12.5,38l-.536-.973L11,36.5l.962-.536Z" fill="#faefde"/>
      </g>
      <g id="icons8-javascript" transform="translate(835 756)">
        <path id="Caminho_169" data-name="Caminho 169" d="M51,7H13a6,6,0,0,0-6,6V51a6,6,0,0,0,6,6H51a6,6,0,0,0,6-6V13A6,6,0,0,0,51,7ZM45.88,52a6.831,6.831,0,0,1-6.2-3.29l1.76-1.21a5.069,5.069,0,0,0,4.34,2.6c2.57,0,3.72-1.59,3.72-3.17,0-2.25-1.71-3.02-3.53-3.83l-1.07-.47c-3.33-1.45-4.57-3-4.57-5.71,0-2.87,2.13-4.8,5.3-4.8a5.278,5.278,0,0,1,4.74,2.22l-1.69,1.11a3.6,3.6,0,0,0-3.05-1.5,2.877,2.877,0,0,0-3.06,2.88c0,2,1.4,2.77,3.24,3.59l1.08.47c3.87,1.7,5.11,3.15,5.11,5.99C52,50.65,48.84,52,45.88,52ZM27.27,52a7.19,7.19,0,0,1-5.92-3.25l2.02-1.2A4.487,4.487,0,0,0,27,49.39c2.24,0,3.33-1.24,3.33-3.79V32.12H33V46.3C33,51.01,29.89,52,27.27,52Z" fill="#f6d397"/>
        <path id="Caminho_170" data-name="Caminho 170" d="M11,7H53a4,4,0,0,1,4,4h0a3,3,0,0,1-3,3H10a3,3,0,0,1-3-3H7A4,4,0,0,1,11,7Z" fill="#f9e3ae"/>
        <path id="Caminho_171" data-name="Caminho 171" d="M51.424,58H12.577A6.585,6.585,0,0,1,6,51.423V12.577A6.585,6.585,0,0,1,12.577,6H51.424A6.583,6.583,0,0,1,58,12.576V51.425A6.583,6.583,0,0,1,51.424,58ZM12.577,8A4.582,4.582,0,0,0,8,12.577V51.423A4.582,4.582,0,0,0,12.577,56H51.424A4.581,4.581,0,0,0,56,51.424V12.576A4.581,4.581,0,0,0,51.424,8Z" fill="#37474f"/>
        <path id="Caminho_172" data-name="Caminho 172" d="M47.69,39.06l-1.07-.47c-1.88-.83-2.05-1.13-2.05-1.76,0-.55.4-.88,1.06-.88.74,0,1.26.22,1.89,1.36a.944.944,0,0,0,.63.49,1,1,0,0,0,.79-.13l3.35-2.2a.989.989,0,0,0,.32-1.32,7.306,7.306,0,0,0-6.98-4.03c-4.23,0-7.3,2.86-7.3,6.8,0,4.43,2.92,6.3,5.76,7.54l1.07.47c2.11.94,2.34,1.24,2.34,2,0,.97-.94,1.17-1.72,1.17-1.55,0-2.3-1.05-3.18-2.52a1,1,0,0,0-1.42-.32L37.8,47.57a1,1,0,0,0-.34,1.27A8.883,8.883,0,0,0,45.88,54C50.81,54,54,51.2,54,46.88,54,42.67,51.58,40.76,47.69,39.06ZM45.88,52a6.831,6.831,0,0,1-6.2-3.29l1.76-1.21a5.069,5.069,0,0,0,4.34,2.6c2.57,0,3.72-1.59,3.72-3.17,0-2.25-1.71-3.02-3.53-3.83l-1.07-.47c-3.33-1.45-4.57-3-4.57-5.71,0-2.87,2.13-4.8,5.3-4.8a5.278,5.278,0,0,1,4.74,2.22l-1.69,1.11a3.6,3.6,0,0,0-3.05-1.5,2.877,2.877,0,0,0-3.06,2.88c0,2,1.4,2.77,3.24,3.59l1.08.47c3.87,1.7,5.11,3.15,5.11,5.99C52,50.65,48.84,52,45.88,52Z" fill="#37474f"/>
        <path id="Caminho_173" data-name="Caminho 173" d="M52,46.88C52,50.65,48.84,52,45.88,52a6.831,6.831,0,0,1-6.2-3.29l1.76-1.21a5.069,5.069,0,0,0,4.34,2.6c2.57,0,3.72-1.59,3.72-3.17,0-2.25-1.71-3.02-3.53-3.83l-1.07-.47c-3.33-1.45-4.57-3-4.57-5.71,0-2.87,2.13-4.8,5.3-4.8a5.278,5.278,0,0,1,4.74,2.22l-1.69,1.11a3.6,3.6,0,0,0-3.05-1.5,2.877,2.877,0,0,0-3.06,2.88c0,2,1.4,2.77,3.24,3.59l1.08.47C50.76,42.59,52,44.04,52,46.88Z" fill="#faefde"/>
        <path id="Caminho_174" data-name="Caminho 174" d="M34,30.12H29.33a1,1,0,0,0-1,1V45.6c0,1.79-.53,1.79-1.33,1.79a2.807,2.807,0,0,1-2.46-1.68,1.025,1.025,0,0,0-.62-.48,1.085,1.085,0,0,0-.77.11l-3.66,2.19a1,1,0,0,0-.39,1.29A9.141,9.141,0,0,0,27.27,54C32.11,54,35,51.12,35,46.3V31.12A1,1,0,0,0,34,30.12ZM33,46.3c0,4.71-3.11,5.7-5.73,5.7a7.19,7.19,0,0,1-5.92-3.25l2.02-1.2A4.487,4.487,0,0,0,27,49.39c2.24,0,3.33-1.24,3.33-3.79V32.12H33Z" fill="#37474f"/>
        <path id="Caminho_175" data-name="Caminho 175" d="M33,32.12V46.3c0,4.71-3.11,5.7-5.73,5.7a7.19,7.19,0,0,1-5.92-3.25l2.02-1.2A4.487,4.487,0,0,0,27,49.39c2.24,0,3.33-1.24,3.33-3.79V32.12Z" fill="#faefde"/>
        <path id="Caminho_176" data-name="Caminho 176" d="M17,12a1,1,0,0,0-1,1v2a1,1,0,0,0,2,0V13A1,1,0,0,0,17,12Zm-5,0a1,1,0,0,0-1,1v2a1,1,0,0,0,2,0V13A1,1,0,0,0,12,12Zm20,0a1,1,0,0,0-1,1v2a1,1,0,0,0,2,0V13A1,1,0,0,0,32,12Zm5,0a1,1,0,0,0-1,1v2a1,1,0,0,0,2,0V13A1,1,0,0,0,37,12Zm5,0a1,1,0,0,0-1,1v2a1,1,0,0,0,2,0V13A1,1,0,0,0,42,12Zm5,0a1,1,0,0,0-1,1v2a1,1,0,0,0,2,0V13A1,1,0,0,0,47,12Zm5,0a1,1,0,0,0-1,1v2a1,1,0,0,0,2,0V13A1,1,0,0,0,52,12ZM22,12a1,1,0,0,0-1,1v2a1,1,0,0,0,2,0V13A1,1,0,0,0,22,12Zm5,0a1,1,0,0,0-1,1v2a1,1,0,0,0,2,0V13A1,1,0,0,0,27,12Z" fill="#37474f"/>
      </g>
    </g>
    <g id="Grupo_64" data-name="Grupo 64" transform="translate(-15 -4)">
      <g id="icons8-nodejs" transform="translate(725 843)">
        <path id="Caminho_177" data-name="Caminho 177" d="M19.987,19.163,12.456,23.33a.864.864,0,0,0-.456.755v8.339a.866.866,0,0,0,.456.755l7.533,4.17a.949.949,0,0,0,.91,0l7.532-4.17a.869.869,0,0,0,.453-.755V24.085a.866.866,0,0,0-.456-.755L20.9,19.163a.949.949,0,0,0-.912,0M58.738,26.67l-1.256.694a.142.142,0,0,0-.075.126V28.88a.145.145,0,0,0,.075.126l1.256.7a.157.157,0,0,0,.152,0l1.256-.7a.145.145,0,0,0,.075-.126V27.489a.144.144,0,0,0-.077-.126l-1.256-.694a.152.152,0,0,0-.15,0" transform="translate(6.418 3.768)" fill="#388e3c"/>
        <path id="Caminho_178" data-name="Caminho 178" d="M41.5,14.093l-3.667-2.046a.373.373,0,0,0-.554.325l0,12.359L33.9,22.86a.949.949,0,0,0-.912,0h0l-7.532,4.167a.864.864,0,0,0-.456.754V36.12a.866.866,0,0,0,.456.755l7.533,4.17a.949.949,0,0,0,.91,0l7.532-4.17a.867.867,0,0,0,.453-.755V14.744A.748.748,0,0,0,41.5,14.093Zm-4.428,20.1-3.423,1.9a.429.429,0,0,1-.413,0l-3.424-1.9a.392.392,0,0,1-.209-.344V30.056a.4.4,0,0,1,.207-.344l3.424-1.894h0a.428.428,0,0,1,.207-.052.446.446,0,0,1,.207.052l3.423,1.894a.4.4,0,0,1,.207.345v3.791A.394.394,0,0,1,37.073,34.191Z" transform="translate(13.371 0)" fill="#37474f"/>
        <path id="Caminho_179" data-name="Caminho 179" d="M19.987,19.163,12,32.424a.866.866,0,0,0,.456.755l7.533,4.17a.949.949,0,0,0,.91,0l7.984-13.264a.866.866,0,0,0-.456-.755L20.9,19.163a.949.949,0,0,0-.912,0" transform="translate(6.418 3.768)" fill="#2e7d32"/>
        <path id="Caminho_180" data-name="Caminho 180" d="M19.987,19.163,12.456,23.33a.864.864,0,0,0-.456.755l7.987,13.264a.949.949,0,0,0,.91,0l7.532-4.17a.868.868,0,0,0,.454-.755L20.9,19.163a.949.949,0,0,0-.912,0" transform="translate(6.418 3.768)" fill="#4caf50"/>
        <path id="Caminho_181" data-name="Caminho 181" d="M73.217,23.284l-7.53-4.167a.949.949,0,0,0-.912,0h0l-7.532,4.167a.881.881,0,0,0-.456.772v8.305a.883.883,0,0,0,.456.772l7.533,4.17a.941.941,0,0,0,.91,0l3.473-1.923a.461.461,0,0,0,0-.807L61.6,30.448a.4.4,0,0,1-.207-.35V26.314a.387.387,0,0,1,.2-.339l3.43-1.9h0a.428.428,0,0,1,.207-.052.446.446,0,0,1,.207.052l3.43,1.9a.387.387,0,0,1,.2.339V29.4a.37.37,0,0,0,.186.321.377.377,0,0,0,.371,0L73.3,27.584a.741.741,0,0,0,.368-.64V24.059A.884.884,0,0,0,73.217,23.284Zm-56.789,0L8.9,19.117a.949.949,0,0,0-.912,0h0L.456,23.284A.881.881,0,0,0,0,24.056V35.513a.37.37,0,0,0,.186.321.377.377,0,0,0,.371,0l3.681-2.138a.74.74,0,0,0,.367-.64V26.312a.387.387,0,0,1,.2-.339l3.43-1.9h0a.428.428,0,0,1,.207-.052.446.446,0,0,1,.207.052l3.43,1.9a.387.387,0,0,1,.2.339v6.743a.738.738,0,0,0,.368.64l3.681,2.138a.369.369,0,0,0,.556-.321V24.057A.883.883,0,0,0,16.428,23.284Z" transform="translate(0 3.744)" fill="#37474f"/>
      </g>
      <g id="icons8-logo-mysql" transform="translate(829 831.839)">
        <path id="Caminho_182" data-name="Caminho 182" d="M0,40.084h3.04V28.866l4.223,9.59A2.428,2.428,0,0,0,9.9,40.074a2.394,2.394,0,0,0,2.6-1.618l4.223-9.345V40.084h3.04V28.592a1.724,1.724,0,0,0-1.344-1.914c-2.164-.681-3.618-.093-4.275,1.381l-4.33,9.753L5.619,28.059C4.989,26.586,3.51,26,1.344,26.678A1.722,1.722,0,0,0,0,28.591V40.082H0Z" transform="translate(0 8.958)" fill="#37474f"/>
        <path id="Caminho_183" data-name="Caminho 183" d="M13.441,29.281h3.04V35.7c-.024.317.1,1.157,1.567,1.18.747.013,4.467,0,4.513,0v-7.6H25.6c.013,0,0,9.449,0,9.489.016,2.331-2.894,2.632-4.232,2.671H13.443v-1.52c.016,0,7.579,0,7.6,0,1.723-.182,1.518-1.131,1.518-1.419v-.1H17.794c-2.644-.024-4.33-1.189-4.349-2.518C13.441,35.76,13.5,29.338,13.441,29.281Z" transform="translate(7.841 10.641)" fill="#37474f"/>
        <path id="Caminho_184" data-name="Caminho 184" d="M22.083,40.081h7.611a6.575,6.575,0,0,0,2.736-.57,2.58,2.58,0,0,0,1.811-2.432V34.913c0-2.337-2.9-2.432-4.56-2.432h-3.04c-1.2,0-1.378-.722-1.52-1.52v-1.52c.143-.608.409-1.425,1.461-1.52H34.24V26.4H27.01c-1.2,0-4.931.142-4.931,3.04V31.32c0,1.33,1.169,2.413,3.705,2.679.285.019.57.038.853.038,0,0,2.954-.057,3.04-.038,1.71,0,1.52,1.33,1.52,1.52v1.52a1.438,1.438,0,0,1-1.537,1.52H22.078v1.522Z" transform="translate(12.879 8.961)" fill="#37474f"/>
        <path id="Caminho_185" data-name="Caminho 185" d="M40.32,36.977c0,1.835,1.037,2.864,3.787,3.07.256.017.515.033.773.033h7.6V38.56H45.458c-1.569,0-2.1-.659-2.1-1.6V26.4H40.32Z" transform="translate(23.52 8.96)" fill="#37474f"/>
        <path id="Caminho_186" data-name="Caminho 186" d="M30.7,37.041v-7.6c0-1.615.792-2.73,3.034-3.04h7.353c2.242.31,3.293,1.423,3.293,3.04v7.572a2.224,2.224,0,0,1-1.45,2.468L45.29,41.6H41.87l-1.694-1.52h-1.99L34.8,40.1a5.9,5.9,0,0,1-1.572-.223C31.53,39.411,30.7,38.518,30.7,37.041Zm3.04,0a1.829,1.829,0,0,0,1.8,1.52H38.5l-1.691-1.52h3.444l.822.763a1,1,0,0,0,.295-.763c0-.523-.025-7.6-.025-7.6a1.994,1.994,0,0,0-1.881-1.52H35.551A1.7,1.7,0,0,0,33.746,29.6l0,7.445Z" transform="translate(17.911 8.961)" fill="#37474f"/>
        <path id="Caminho_187" data-name="Caminho 187" d="M56.352,33.759a9.36,9.36,0,0,0-3.944.556c-.3.128-.785.131-.836.511.166.174.192.435.325.649a5.077,5.077,0,0,0,1.067,1.252c.42.317.852.656,1.3.929.8.486,1.689.765,2.459,1.252.453.287.9.651,1.346.974.218.161.364.41.649.511v-.046c-.149-.19-.188-.451-.325-.651l-.6-.6a9.889,9.889,0,0,0-2.134-2.041c-.635-.456-2.055-1.072-2.321-1.81l-.048-.048a10.248,10.248,0,0,0,1.392-.325c.7-.187,1.321-.138,2.041-.325l.974-.279v-.185c-.364-.374-.625-.868-1.021-1.206a30.039,30.039,0,0,0-3.341-2.506c-.648-.408-1.449-.674-2.134-1.021-.231-.117-.637-.177-.789-.37a9.882,9.882,0,0,1-.834-1.577c-.583-1.121-1.156-2.346-1.67-3.526a19.257,19.257,0,0,0-1.021-2.321,20.506,20.506,0,0,0-7.888-7.611,9.49,9.49,0,0,0-2.6-.836c-.511-.03-1.021-.062-1.533-.093a8.412,8.412,0,0,1-.929-.7c-1.164-.736-4.15-2.335-5.011-.233-.545,1.327.814,2.622,1.3,3.295a9.963,9.963,0,0,1,1.021,1.533c.16.348.188.7.325,1.067a26.489,26.489,0,0,0,1.308,2.785,9.588,9.588,0,0,0,.743,1.252c.171.233.464.336.511.7a5.67,5.67,0,0,0-.464,1.533,8.887,8.887,0,0,0,.6,6.821c.323.519,1.086,1.634,2.134,1.206.917-.374.713-1.531.974-2.552.059-.231.022-.4.139-.556v.048c.279.556.556,1.115.836,1.67A11.433,11.433,0,0,0,41,33.623c.481.364.861.994,1.485,1.207v-.048h-.048c-.12-.188-.31-.266-.464-.418A10.555,10.555,0,0,1,40.9,33.158a28.254,28.254,0,0,1-2.274-3.713c-.325-.625-.608-1.313-.882-1.949-.106-.245-.1-.616-.325-.743a9.276,9.276,0,0,0-.974,1.392,11.9,11.9,0,0,0-.556,3.062c-.082.028-.046.01-.093.046-.646-.157-.874-.82-1.115-1.392a8.765,8.765,0,0,1-.185-5.429c.138-.431.763-1.784.511-2.182-.12-.4-.519-.627-.741-.929a7.251,7.251,0,0,1-.743-1.3c-.5-1.126-.969-2.435-1.493-3.574a10.168,10.168,0,0,0-1.021-1.577A9.164,9.164,0,0,1,29.9,13.293c-.106-.23-.25-.6-.093-.836a.369.369,0,0,1,.279-.279c.269-.209,1.018.068,1.3.185a11.247,11.247,0,0,1,2,1.021c.3.2.608.589.974.7h.418c.654.15,1.385.048,1.995.233a12.032,12.032,0,0,1,2.923,1.392,18.094,18.094,0,0,1,6.359,6.962c.241.462.345.9.556,1.392.427.988.967,2,1.392,2.97a13.874,13.874,0,0,0,1.439,2.739c.317.421,1.536.648,2.088.882a12.371,12.371,0,0,1,1.392.556c.7.424,1.384.929,2.041,1.392C55.289,32.831,56.3,33.34,56.352,33.759Z" transform="translate(16.796 0)" fill="#37474f"/>
        <path id="Caminho_188" data-name="Caminho 188" d="M33.406,14.223a3.254,3.254,0,0,0-.836.093v.047h.048a6.43,6.43,0,0,0,.649.836c.155.325.309.649.464.974l.046-.046a1.134,1.134,0,0,0,.418-1.021c-.116-.122-.133-.274-.233-.418C33.829,14.494,33.572,14.385,33.406,14.223Z" transform="translate(18.999 1.856)" fill="#37474f"/>
      </g>
    </g>
    <path id="expressjs-ar21" d="M33.208,36.866V18.612h.99v2.871a3.755,3.755,0,0,0,.323-.4A4.907,4.907,0,0,1,39,18.3a5.257,5.257,0,0,1,5.17,2.777,8.927,8.927,0,0,1,.215,8.183,5.551,5.551,0,0,1-6.141,2.959,4.966,4.966,0,0,1-3.964-2.615v7.26Zm.99-11.8.222,2.143a4.5,4.5,0,0,0,4.1,4.152,4.658,4.658,0,0,0,5.116-2.959,7.94,7.94,0,0,0-.174-6.525,4.562,4.562,0,0,0-4.806-2.656,4.444,4.444,0,0,0-3.97,3.282,22.669,22.669,0,0,0-.486,2.562ZM65.484,27.55a5.339,5.339,0,0,1-5.218,4.719c-4.152.209-6.1-2.548-6.41-5.73a9.18,9.18,0,0,1,.809-5.056,5.64,5.64,0,0,1,5.871-3.148,5.394,5.394,0,0,1,4.786,4.105,27.7,27.7,0,0,1,.465,3.034h-10.9c-.2,2.885,1.348,5.2,3.545,5.763a4.661,4.661,0,0,0,5.925-3.115c.189-.668.532-.762,1.139-.573Zm-10.61-3h9.754c-.061-3.073-1.975-5.307-4.57-5.332-2.931-.048-5.056,2.1-5.183,5.332ZM67.5,27.618h.956a3.834,3.834,0,0,0,2.251,3.3,5.885,5.885,0,0,0,5.11-.135,2.3,2.3,0,0,0,1.348-2.258,2.083,2.083,0,0,0-1.4-2.083c-1.052-.391-2.17-.607-3.242-.951A23.763,23.763,0,0,1,69.259,24.3c-1.727-.843-1.834-4.125.121-5.164a6.883,6.883,0,0,1,6.579-.1,3.465,3.465,0,0,1,1.753,3.533h-.82c0-.04-.074-.074-.074-.115-.1-2.614-2.3-3.431-4.658-3.2a5.956,5.956,0,0,0-2.022.613,2.159,2.159,0,0,0,.176,3.923c1.03.378,2.123.62,3.188.916l2.574.673a3.042,3.042,0,0,1,2.09,2.744,3.242,3.242,0,0,1-1.746,3.37c-2.251,1.274-5.959.937-7.61-.673a4.493,4.493,0,0,1-1.307-3.2Zm22.8-5.049h-.9a2.038,2.038,0,0,0-.061-.33,2.931,2.931,0,0,0-2.387-2.817,5.885,5.885,0,0,0-3.781.182,2.3,2.3,0,0,0-1.665,2.191,2.115,2.115,0,0,0,1.617,2.13l4.1,1.052a11.4,11.4,0,0,1,1.307.4,3.368,3.368,0,0,1,.174,6.276,7.5,7.5,0,0,1-6.067.061A4.206,4.206,0,0,1,80.1,27.626h.876a4.914,4.914,0,0,0,7.482,3.128A2.408,2.408,0,0,0,89.754,28.5a2.083,2.083,0,0,0-1.423-2.07c-1.052-.391-2.17-.6-3.242-.951A23.882,23.882,0,0,1,81.807,24.3c-1.686-.829-1.82-4.085.1-5.123a6.788,6.788,0,0,1,6.687-.074,3.525,3.525,0,0,1,1.692,3.458Zm-58.718,9.37a1.545,1.545,0,0,1-1.914-.728l-3.485-4.82-.505-.673-4.044,5.5a1.481,1.481,0,0,1-1.82.714l5.21-6.99-4.848-6.316a1.612,1.612,0,0,1,1.921.673L25.7,24.179l3.633-4.86a1.45,1.45,0,0,1,1.807-.674l-1.881,2.5-2.548,3.317a.673.673,0,0,0,0,1l4.853,6.478ZM53.7,18.559v.951a4.887,4.887,0,0,0-5.2,5.049v7.415h-.964V18.619h.951v2.737a5.666,5.666,0,0,1,5.224-2.791Zm-46.369,6.3.425-2.1a5.837,5.837,0,0,1,9.188-3.3c1.914,1.5,2.392,3.633,2.3,6.033H8.458c-.174,4.287,2.919,6.875,6.875,5.554a4.12,4.12,0,0,0,2.608-2.905c.209-.673.554-.789,1.187-.594a5.473,5.473,0,0,1-2.615,4A6.337,6.337,0,0,1,9.131,30.6a6.643,6.643,0,0,1-1.658-3.9,2.673,2.673,0,0,0-.135-.673q-.008-.6-.008-1.172Zm1.139-.29h9.754c-.061-3.107-2.022-5.312-4.638-5.332-2.912-.04-4.995,2.116-5.123,5.319Z" transform="translate(750.568 876.752)" fill="#37474f"/>
  </g>
</svg>
