<svg xmlns="http://www.w3.org/2000/svg" width="37.698" height="37.698" viewBox="0 0 37.698 37.698">
  <g id="icons8-linkedin" transform="translate(-6 -6)">
    <rect id="Retângulo_35" data-name="Retângulo 35" width="36" height="36" rx="6" transform="translate(7 7)" fill="#58b5e8"/>
    <path id="Caminho_194" data-name="Caminho 194" d="M18.537,19a2.537,2.537,0,1,0,2.537,2.537A2.537,2.537,0,0,0,18.537,19Zm14.688,6.525a8.47,8.47,0,0,0-4.487,2.023v-.964a.725.725,0,0,0-.725-.725h-3.69a.725.725,0,0,0-.725.725V41.807a.725.725,0,0,0,.725.725h3.915a.725.725,0,0,0,.725-.725v-7.67c0-2.291,1.29-3.871,2.82-3.871S34.225,32,34.225,34.26v7.561a.725.725,0,0,0,.725.725h3.915a.725.725,0,0,0,.725-.725V33.332C39.488,29.468,38.742,25.525,33.225,25.525ZM16,26.25h5.075V42.2H16Z" transform="translate(-2.75 -3.576)" fill="#faefde"/>
    <path id="Caminho_195" data-name="Caminho 195" d="M9.9,7H40.348a2.9,2.9,0,0,1,2.9,2.9h0a2.175,2.175,0,0,1-2.175,2.175H9.175A2.175,2.175,0,0,1,7,9.9H7A2.9,2.9,0,0,1,9.9,7Z" transform="translate(-0.275 -0.275)" fill="#65c5ef"/>
    <path id="Caminho_196" data-name="Caminho 196" d="M20.8,25.25H15.725a.725.725,0,0,0-.725.725V41.923a.725.725,0,0,0,.725.725H20.8a.725.725,0,0,0,.725-.725V25.974A.725.725,0,0,0,20.8,25.25ZM20.075,41.2H16.45V26.7h3.625ZM33.037,24.844a6.14,6.14,0,0,0-3.944,1.363v-.232a.725.725,0,0,0-.725-.725H23.7a.725.725,0,0,0-.725.725V41.923a.725.725,0,0,0,.725.725h4.857a.725.725,0,0,0,.725-.725V33.869c0-2.4.594-3.3,2.175-3.3s1.805,1.058,1.805,3.422v7.931a.725.725,0,0,0,.725.725h4.864a.725.725,0,0,0,.725-.725v-8.9C39.59,28.976,38.815,24.844,33.037,24.844ZM38.111,41.2H34.726V33.992c0-1.7,0-4.872-3.255-4.872-3.625,0-3.625,3.574-3.625,4.748V41.2H24.424V26.7h3.212v1.45a.783.783,0,0,0,.79.725.725.725,0,0,0,.638-.384,4.4,4.4,0,0,1,3.958-2.175c4.255,0,5.075,2.574,5.075,6.735ZM18.262,18a3.262,3.262,0,1,0,3.262,3.262A3.262,3.262,0,0,0,18.262,18Zm0,5.314a2.052,2.052,0,1,1,2.052-2.052A2.052,2.052,0,0,1,18.262,23.314Z" transform="translate(-2.475 -3.301)" fill="#37474f"/>
    <path id="Caminho_197" data-name="Caminho 197" d="M38.623,6H11.075A5.075,5.075,0,0,0,6,11.075V38.623A5.075,5.075,0,0,0,11.075,43.7H38.623A5.075,5.075,0,0,0,43.7,38.623V11.075A5.075,5.075,0,0,0,38.623,6Zm3.625,32.623a3.625,3.625,0,0,1-3.625,3.625H11.075A3.625,3.625,0,0,1,7.45,38.623V11.075A3.625,3.625,0,0,1,11.075,7.45H38.623a3.625,3.625,0,0,1,3.625,3.625Z" transform="translate(0 0)" fill="#37474f"/>
    <path id="Caminho_198" data-name="Caminho 198" d="M15.35,14.9a.725.725,0,0,0,.725-.725v-1.45a.725.725,0,1,0-1.45,0v1.45A.725.725,0,0,0,15.35,14.9ZM11.725,12a.725.725,0,0,0-.725.725v1.45a.725.725,0,1,0,1.45,0v-1.45A.725.725,0,0,0,11.725,12Zm14.5,2.9a.725.725,0,0,0,.725-.725v-1.45a.725.725,0,1,0-1.45,0v1.45A.725.725,0,0,0,26.224,14.9Zm3.625,0a.725.725,0,0,0,.725-.725v-1.45a.725.725,0,1,0-1.45,0v1.45A.725.725,0,0,0,29.849,14.9Zm3.625,0a.725.725,0,0,0,.725-.725v-1.45a.725.725,0,1,0-1.45,0v1.45A.725.725,0,0,0,33.474,14.9Zm3.625,0a.725.725,0,0,0,.725-.725v-1.45a.725.725,0,1,0-1.45,0v1.45A.725.725,0,0,0,37.1,14.9ZM40.723,12a.725.725,0,0,0-.725.725v1.45a.725.725,0,1,0,1.45,0v-1.45A.725.725,0,0,0,40.723,12ZM18.974,14.9a.725.725,0,0,0,.725-.725v-1.45a.725.725,0,1,0-1.45,0v1.45A.725.725,0,0,0,18.974,14.9Zm3.625,0a.725.725,0,0,0,.725-.725v-1.45a.725.725,0,1,0-1.45,0v1.45A.725.725,0,0,0,22.6,14.9Z" transform="translate(-1.375 -1.65)" fill="#37474f"/>
  </g>
</svg>
