<svg width="90" height="90" viewBox="0 0 90 90" fill="none" xmlns="http://www.w3.org/2000/svg">
<path d="M69 0H21C9.40202 0 0 9.40202 0 21V69C0 80.598 9.40202 90 21 90H69C80.598 90 90 80.598 90 69V21C90 9.40202 80.598 0 69 0Z" fill="#FAA847"/>
<path d="M72 45H18C16.3431 45 15 46.3431 15 48C15 49.6569 16.3431 51 18 51H72C73.6569 51 75 49.6569 75 48C75 46.3431 73.6569 45 72 45Z" fill="white"/>
<path d="M34 15H20C17.2386 15 15 17.2386 15 20V32C15 34.7614 17.2386 37 20 37H34C36.7614 37 39 34.7614 39 32V20C39 17.2386 36.7614 15 34 15Z" fill="white"/>
<path d="M72 15H45C43.3431 15 42 16.3431 42 18C42 19.6569 43.3431 21 45 21H72C73.6569 21 75 19.6569 75 18C75 16.3431 73.6569 15 72 15Z" fill="white"/>
<path d="M72 23H45C43.3431 23 42 24.3431 42 26C42 27.6569 43.3431 29 45 29H72C73.6569 29 75 27.6569 75 26C75 24.3431 73.6569 23 72 23Z" fill="white"/>
<path d="M72 31H45C43.3431 31 42 32.3431 42 34C42 35.6569 43.3431 37 45 37H72C73.6569 37 75 35.6569 75 34C75 32.3431 73.6569 31 72 31Z" fill="white"/>
<path d="M72 53H18C16.3431 53 15 54.3431 15 56C15 57.6569 16.3431 59 18 59H72C73.6569 59 75 57.6569 75 56C75 54.3431 73.6569 53 72 53Z" fill="white"/>
<path d="M72 61H18C16.3431 61 15 62.3431 15 64C15 65.6569 16.3431 67 18 67H72C73.6569 67 75 65.6569 75 64C75 62.3431 73.6569 61 72 61Z" fill="white"/>
<path d="M72 69H18C16.3431 69 15 70.3431 15 72C15 73.6569 16.3431 75 18 75H72C73.6569 75 75 73.6569 75 72C75 70.3431 73.6569 69 72 69Z" fill="white"/>
</svg>
