<svg width="78" height="77" viewBox="0 0 78 77" fill="none" xmlns="http://www.w3.org/2000/svg">
<rect x="4.47714" y="4.24573" width="70.0229" height="69.2543" rx="34.6271" fill="#599155" stroke="#FDFFFC" stroke-width="7"/>
<rect x="4.47714" y="4.24573" width="70.0229" height="69.2543" rx="34.6271" fill="#599155" stroke="#FDFFFC" stroke-width="7"/>
<path d="M37.2149 51.3301C45.5628 51.3301 52.3301 44.5628 52.3301 36.2149C52.3301 27.867 45.5628 21.0997 37.2149 21.0997C28.867 21.0997 22.0996 27.867 22.0996 36.2149C22.0996 44.5628 28.867 51.3301 37.2149 51.3301Z" stroke="#FDFFFC" stroke-width="5" stroke-linecap="round" stroke-linejoin="round"/>
<path d="M56.1089 55.1089L47.89 46.89" stroke="#FDFFFC" stroke-width="5" stroke-linecap="round" stroke-linejoin="round"/>
<path d="M31.4994 25.9231C30.7921 27.0733 30.8386 28.5692 31.6293 30.0561C31.9983 30.7503 32.5877 31.4796 33.1227 31.9042C34.1785 32.7446 35.3716 33.0363 36.37 32.7023C36.9358 32.5133 37.3399 32.1712 37.5656 31.6952C37.7238 31.3616 37.8598 30.8347 37.891 30.4336C37.976 29.3702 37.6317 28.2097 36.9354 27.2105C36.6965 26.868 36.5617 26.7084 36.2357 26.3868C35.6145 25.769 35.0745 25.4059 34.4798 25.2005C33.5749 24.8885 32.7092 24.9582 32.0363 25.3961C31.8521 25.5171 31.5964 25.7691 31.4994 25.9231Z" fill="#FDFFFC"/>
<path d="M25.6488 31.9241C25.2261 32.5289 25.1484 33.4181 25.4422 34.2855C25.602 34.7589 25.832 35.1359 26.2647 35.6327C26.4534 35.851 26.7883 36.1688 27.0167 36.3499C28.3137 37.3764 29.8375 37.8078 31.2037 37.5327C31.4777 37.478 31.8834 37.3395 32.1291 37.2157C32.3031 37.1279 32.3415 37.0996 32.4924 36.9608C32.6918 36.7756 32.8106 36.6202 32.9242 36.3982C33.1003 36.0543 33.1815 35.7108 33.1807 35.3111C33.1792 34.5196 32.8265 33.678 32.1807 32.9207C31.9137 32.6091 31.4569 32.2059 31.0567 31.9333C29.4367 30.8233 27.6392 30.6029 26.3009 31.348C26.0348 31.4975 25.8085 31.6968 25.6488 31.9241Z" fill="#FDFFFC"/>
<path d="M40.0254 26.8345C39.3114 27.8348 39.1591 29.1713 39.605 30.5429C39.8112 31.1749 40.0453 31.6224 40.4935 32.2343C40.6541 32.4528 40.7208 32.5294 40.939 32.7464C41.206 33.0119 41.3535 33.1279 41.6241 33.2871C42.3499 33.7149 43.1673 33.835 43.8073 33.6098C44.1568 33.4869 44.4139 33.3131 44.6336 33.0485C45.169 32.4074 45.4262 31.6175 45.4089 30.6697C45.3889 29.6246 45.005 28.5372 44.3462 27.6519C44.183 27.4308 43.8236 27.0325 43.6594 26.887C42.8138 26.1407 41.6848 25.8718 40.8337 26.2143C40.5048 26.3474 40.217 26.5674 40.0254 26.8345Z" fill="#FDFFFC"/>
<path d="M27.1287 40.4752C26.6664 41.1275 26.5887 41.986 26.932 42.6726C27.0529 42.9155 27.2623 43.2261 27.478 43.484C28.26 44.4202 29.5345 45.0843 30.8156 45.2232C31.7726 45.3262 32.6881 45.1423 33.466 44.6913C34.1197 44.3111 34.4516 43.7156 34.45 42.9292C34.4486 42.2273 34.1103 41.5406 33.434 40.868C33.1709 40.6063 33.0143 40.4762 32.7245 40.28C31.7317 39.6046 30.4579 39.2838 29.2849 39.4134C28.7457 39.473 28.1223 39.6558 27.8063 39.8477C27.5569 39.9985 27.2948 40.2415 27.1287 40.4752Z" fill="#FDFFFC"/>
<path d="M36.8921 36.9184C36.4973 37.4155 36.177 37.9763 35.9348 38.6023C35.5666 39.5604 35.4164 40.6894 35.5349 41.6329C35.7913 43.6699 36.415 45.5276 37.3092 46.9206C37.3645 47.0062 37.4442 47.1391 37.4879 47.2158C37.7141 47.6121 38.0824 47.9502 38.5029 48.146C39.1798 48.4613 39.9535 48.456 40.5945 48.1348C40.9771 47.9426 41.4041 47.5107 41.7808 46.9317C42.0272 46.5556 42.1855 46.2476 42.5999 45.3405C43.1751 44.0768 43.364 43.756 43.9237 43.0777C44.1741 42.7745 44.2227 42.7231 44.4273 42.5456C44.9489 42.0904 45.4402 41.8094 46.482 41.3677C47.4047 40.9763 47.9153 40.7529 48.033 40.6859C49.2152 40.0208 49.8071 38.7814 49.4233 37.7734C49.2534 37.3308 48.7695 36.8189 48.1808 36.4636C47.6076 36.1185 46.5257 35.7099 45.7018 35.5296C43.3759 35.019 41.9411 34.8781 40.5939 35.0263C39.3287 35.1665 38.4737 35.4897 37.6706 36.1356C37.4443 36.317 37.0761 36.6872 36.8921 36.9184Z" fill="#FDFFFC"/>
</svg>
