<svg width="276" height="77" viewBox="0 0 276 77" fill="none" xmlns="http://www.w3.org/2000/svg">
<rect x="31.5114" y="7.74573" width="234.414" height="62.2543" rx="31.1271" fill="#FDFFFC"/>
<path d="M73.3223 41.3174C73.3223 43.0863 72.9176 44.5114 72.1084 45.5928C71.2992 46.6742 70.2035 47.2148 68.8213 47.2148C67.4105 47.2148 66.3005 46.7673 65.4912 45.8721V51.4688H63.5039V35.377H65.3193L65.416 36.666C66.2253 35.6634 67.3496 35.1621 68.7891 35.1621C70.1855 35.1621 71.2884 35.6885 72.0977 36.7412C72.9141 37.7939 73.3223 39.2585 73.3223 41.1348V41.3174ZM71.335 41.0918C71.335 39.7812 71.0557 38.7464 70.4971 37.9873C69.9385 37.2282 69.1722 36.8486 68.1982 36.8486C66.9951 36.8486 66.0928 37.3822 65.4912 38.4492V44.0029C66.0856 45.0628 66.9951 45.5928 68.2197 45.5928C69.1722 45.5928 69.9277 45.2168 70.4863 44.4648C71.0521 43.7057 71.335 42.5814 71.335 41.0918ZM80.6807 47.2148C79.1051 47.2148 77.8232 46.6992 76.835 45.668C75.8467 44.6296 75.3525 43.2438 75.3525 41.5107V41.1455C75.3525 39.9925 75.571 38.9648 76.0078 38.0625C76.4518 37.153 77.0677 36.444 77.8555 35.9355C78.6504 35.4199 79.5098 35.1621 80.4336 35.1621C81.9447 35.1621 83.1191 35.6598 83.957 36.6553C84.7949 37.6507 85.2139 39.0758 85.2139 40.9307V41.7578H77.3398C77.3685 42.9036 77.7015 43.8311 78.3389 44.54C78.9834 45.2419 79.7998 45.5928 80.7881 45.5928C81.4899 45.5928 82.0843 45.4495 82.5713 45.1631C83.0583 44.8766 83.4844 44.4971 83.8496 44.0244L85.0635 44.9697C84.0895 46.4665 82.6286 47.2148 80.6807 47.2148ZM80.4336 36.7949C79.6315 36.7949 78.9583 37.0885 78.4141 37.6758C77.8698 38.2559 77.5332 39.0723 77.4043 40.125H83.2266V39.9746C83.1693 38.9648 82.8971 38.1842 82.4102 37.6328C81.9232 37.0742 81.2643 36.7949 80.4336 36.7949ZM94.291 43.917C94.291 43.3799 94.0869 42.9645 93.6787 42.6709C93.2777 42.3701 92.5723 42.1123 91.5625 41.8975C90.5599 41.6826 89.7614 41.4248 89.167 41.124C88.5798 40.8232 88.1429 40.4652 87.8564 40.0498C87.5771 39.6344 87.4375 39.1403 87.4375 38.5674C87.4375 37.6149 87.8385 36.8092 88.6406 36.1504C89.4499 35.4915 90.4811 35.1621 91.7344 35.1621C93.0521 35.1621 94.1191 35.5023 94.9355 36.1826C95.7591 36.863 96.1709 37.7331 96.1709 38.793H94.1729C94.1729 38.2487 93.9401 37.7796 93.4746 37.3857C93.0163 36.9919 92.4362 36.7949 91.7344 36.7949C91.0111 36.7949 90.4453 36.9525 90.0371 37.2676C89.6289 37.5827 89.4248 37.9945 89.4248 38.5029C89.4248 38.9827 89.6146 39.3444 89.9941 39.5879C90.3737 39.8314 91.0576 40.0641 92.0459 40.2861C93.0413 40.5081 93.847 40.7731 94.4629 41.0811C95.0788 41.389 95.5335 41.7614 95.8271 42.1982C96.1279 42.6279 96.2783 43.1543 96.2783 43.7773C96.2783 44.8158 95.863 45.6501 95.0322 46.2803C94.2015 46.9033 93.1237 47.2148 91.7988 47.2148C90.8678 47.2148 90.0443 47.0501 89.3281 46.7207C88.612 46.3913 88.0498 45.9329 87.6416 45.3457C87.2406 44.7513 87.04 44.1104 87.04 43.4229H89.0273C89.0632 44.0889 89.3281 44.6188 89.8223 45.0127C90.3236 45.3994 90.9824 45.5928 91.7988 45.5928C92.5508 45.5928 93.1523 45.4424 93.6035 45.1416C94.0618 44.8337 94.291 44.4255 94.291 43.917ZM98.3838 41.0918C98.3838 39.2656 98.8027 37.8226 99.6406 36.7627C100.479 35.6956 101.603 35.1621 103.014 35.1621C104.389 35.1621 105.474 35.624 106.269 36.5479L106.354 35.377H108.181V51.4688H106.193V45.9258C105.391 46.7852 104.324 47.2148 102.992 47.2148C101.589 47.2148 100.468 46.6706 99.6299 45.582C98.7992 44.4863 98.3838 43.0361 98.3838 41.2314V41.0918ZM100.371 41.3174C100.371 42.6494 100.65 43.695 101.209 44.4541C101.775 45.2132 102.534 45.5928 103.486 45.5928C104.668 45.5928 105.57 45.07 106.193 44.0244V38.3311C105.563 37.307 104.668 36.7949 103.508 36.7949C102.548 36.7949 101.785 37.1781 101.22 37.9443C100.654 38.7035 100.371 39.8278 100.371 41.3174ZM118.547 45.8506C117.773 46.7601 116.638 47.2148 115.142 47.2148C113.903 47.2148 112.957 46.8568 112.306 46.1406C111.661 45.4173 111.335 44.3503 111.328 42.9395V35.377H113.315V42.8857C113.315 44.6475 114.032 45.5283 115.464 45.5283C116.982 45.5283 117.992 44.9626 118.493 43.8311V35.377H120.48V47H118.59L118.547 45.8506ZM125.669 47H123.682V35.377H125.669V47ZM123.521 32.2939C123.521 31.9717 123.617 31.6995 123.811 31.4775C124.011 31.2555 124.305 31.1445 124.691 31.1445C125.078 31.1445 125.372 31.2555 125.572 31.4775C125.773 31.6995 125.873 31.9717 125.873 32.2939C125.873 32.6162 125.773 32.8848 125.572 33.0996C125.372 33.3145 125.078 33.4219 124.691 33.4219C124.305 33.4219 124.011 33.3145 123.811 33.0996C123.617 32.8848 123.521 32.6162 123.521 32.2939ZM135.627 43.917C135.627 43.3799 135.423 42.9645 135.015 42.6709C134.614 42.3701 133.908 42.1123 132.898 41.8975C131.896 41.6826 131.097 41.4248 130.503 41.124C129.916 40.8232 129.479 40.4652 129.192 40.0498C128.913 39.6344 128.773 39.1403 128.773 38.5674C128.773 37.6149 129.174 36.8092 129.977 36.1504C130.786 35.4915 131.817 35.1621 133.07 35.1621C134.388 35.1621 135.455 35.5023 136.271 36.1826C137.095 36.863 137.507 37.7331 137.507 38.793H135.509C135.509 38.2487 135.276 37.7796 134.811 37.3857C134.352 36.9919 133.772 36.7949 133.07 36.7949C132.347 36.7949 131.781 36.9525 131.373 37.2676C130.965 37.5827 130.761 37.9945 130.761 38.5029C130.761 38.9827 130.951 39.3444 131.33 39.5879C131.71 39.8314 132.394 40.0641 133.382 40.2861C134.377 40.5081 135.183 40.7731 135.799 41.0811C136.415 41.389 136.869 41.7614 137.163 42.1982C137.464 42.6279 137.614 43.1543 137.614 43.7773C137.614 44.8158 137.199 45.6501 136.368 46.2803C135.537 46.9033 134.46 47.2148 133.135 47.2148C132.204 47.2148 131.38 47.0501 130.664 46.7207C129.948 46.3913 129.386 45.9329 128.978 45.3457C128.576 44.7513 128.376 44.1104 128.376 43.4229H130.363C130.399 44.0889 130.664 44.6188 131.158 45.0127C131.66 45.3994 132.318 45.5928 133.135 45.5928C133.887 45.5928 134.488 45.4424 134.939 45.1416C135.398 44.8337 135.627 44.4255 135.627 43.917ZM145.026 47.2148C143.451 47.2148 142.169 46.6992 141.181 45.668C140.192 44.6296 139.698 43.2438 139.698 41.5107V41.1455C139.698 39.9925 139.917 38.9648 140.354 38.0625C140.798 37.153 141.413 36.444 142.201 35.9355C142.996 35.4199 143.855 35.1621 144.779 35.1621C146.29 35.1621 147.465 35.6598 148.303 36.6553C149.141 37.6507 149.56 39.0758 149.56 40.9307V41.7578H141.686C141.714 42.9036 142.047 43.8311 142.685 44.54C143.329 45.2419 144.146 45.5928 145.134 45.5928C145.836 45.5928 146.43 45.4495 146.917 45.1631C147.404 44.8766 147.83 44.4971 148.195 44.0244L149.409 44.9697C148.435 46.4665 146.974 47.2148 145.026 47.2148ZM144.779 36.7949C143.977 36.7949 143.304 37.0885 142.76 37.6758C142.215 38.2559 141.879 39.0723 141.75 40.125H147.572V39.9746C147.515 38.9648 147.243 38.1842 146.756 37.6328C146.269 37.0742 145.61 36.7949 144.779 36.7949ZM164.502 47C164.387 46.7708 164.294 46.3626 164.223 45.7754C163.299 46.735 162.196 47.2148 160.914 47.2148C159.768 47.2148 158.826 46.8926 158.089 46.248C157.358 45.5964 156.993 44.7728 156.993 43.7773C156.993 42.5671 157.451 41.6289 158.368 40.9629C159.292 40.2897 160.588 39.9531 162.257 39.9531H164.19V39.04C164.19 38.3454 163.983 37.7939 163.567 37.3857C163.152 36.9704 162.54 36.7627 161.73 36.7627C161.021 36.7627 160.427 36.9417 159.947 37.2998C159.467 37.6579 159.228 38.0911 159.228 38.5996H157.229C157.229 38.0195 157.434 37.4609 157.842 36.9238C158.257 36.3796 158.816 35.9499 159.518 35.6348C160.227 35.3197 161.004 35.1621 161.849 35.1621C163.188 35.1621 164.237 35.4987 164.996 36.1719C165.755 36.8379 166.149 37.7581 166.178 38.9326V44.2822C166.178 45.3493 166.314 46.1979 166.586 46.8281V47H164.502ZM161.204 45.4854C161.827 45.4854 162.418 45.3242 162.977 45.002C163.535 44.6797 163.94 44.2607 164.19 43.7451V41.3604H162.633C160.198 41.3604 158.98 42.0729 158.98 43.498C158.98 44.1211 159.188 44.6081 159.604 44.959C160.019 45.3099 160.552 45.4854 161.204 45.4854ZM168.81 41.0918C168.81 39.2656 169.229 37.8226 170.066 36.7627C170.904 35.6956 172.029 35.1621 173.439 35.1621C174.814 35.1621 175.899 35.624 176.694 36.5479L176.78 35.377H178.606V51.4688H176.619V45.9258C175.817 46.7852 174.75 47.2148 173.418 47.2148C172.014 47.2148 170.894 46.6706 170.056 45.582C169.225 44.4863 168.81 43.0361 168.81 41.2314V41.0918ZM170.797 41.3174C170.797 42.6494 171.076 43.695 171.635 44.4541C172.201 45.2132 172.96 45.5928 173.912 45.5928C175.094 45.5928 175.996 45.07 176.619 44.0244V38.3311C175.989 37.307 175.094 36.7949 173.934 36.7949C172.974 36.7949 172.211 37.1781 171.646 37.9443C171.08 38.7035 170.797 39.8278 170.797 41.3174ZM188.973 45.8506C188.199 46.7601 187.064 47.2148 185.567 47.2148C184.328 47.2148 183.383 46.8568 182.731 46.1406C182.087 45.4173 181.761 44.3503 181.754 42.9395V35.377H183.741V42.8857C183.741 44.6475 184.457 45.5283 185.89 45.5283C187.408 45.5283 188.418 44.9626 188.919 43.8311V35.377H190.906V47H189.016L188.973 45.8506ZM196.095 47H194.107V35.377H196.095V47ZM193.946 32.2939C193.946 31.9717 194.043 31.6995 194.236 31.4775C194.437 31.2555 194.73 31.1445 195.117 31.1445C195.504 31.1445 195.798 31.2555 195.998 31.4775C196.199 31.6995 196.299 31.9717 196.299 32.2939C196.299 32.6162 196.199 32.8848 195.998 33.0996C195.798 33.3145 195.504 33.4219 195.117 33.4219C194.73 33.4219 194.437 33.3145 194.236 33.0996C194.043 32.8848 193.946 32.6162 193.946 32.2939Z" fill="#D6EDD3"/>
<rect x="202.477" y="4.24573" width="70.0229" height="69.2543" rx="34.6271" fill="#599155" stroke="#FDFFFC" stroke-width="7"/>
<rect x="202.477" y="4.24573" width="70.0229" height="69.2543" rx="34.6271" fill="#599155" stroke="#FDFFFC" stroke-width="7"/>
<path d="M235.215 51.3301C243.563 51.3301 250.33 44.5628 250.33 36.2149C250.33 27.867 243.563 21.0997 235.215 21.0997C226.867 21.0997 220.1 27.867 220.1 36.2149C220.1 44.5628 226.867 51.3301 235.215 51.3301Z" stroke="#FDFFFC" stroke-width="5" stroke-linecap="round" stroke-linejoin="round"/>
<path d="M254.109 55.1089L245.89 46.89" stroke="#FDFFFC" stroke-width="5" stroke-linecap="round" stroke-linejoin="round"/>
<path d="M229.499 25.9231C228.792 27.0733 228.839 28.5692 229.629 30.0561C229.998 30.7503 230.588 31.4796 231.123 31.9042C232.179 32.7446 233.372 33.0363 234.37 32.7023C234.936 32.5133 235.34 32.1712 235.566 31.6952C235.724 31.3616 235.86 30.8347 235.891 30.4336C235.976 29.3702 235.632 28.2097 234.935 27.2105C234.696 26.868 234.562 26.7084 234.236 26.3868C233.615 25.769 233.075 25.4059 232.48 25.2005C231.575 24.8885 230.709 24.9582 230.036 25.3961C229.852 25.5171 229.596 25.7691 229.499 25.9231Z" fill="#FDFFFC"/>
<path d="M223.649 31.9241C223.226 32.5289 223.148 33.4181 223.442 34.2855C223.602 34.7589 223.832 35.1359 224.265 35.6327C224.453 35.851 224.788 36.1688 225.017 36.3499C226.314 37.3764 227.838 37.8078 229.204 37.5327C229.478 37.478 229.883 37.3395 230.129 37.2157C230.303 37.1279 230.342 37.0996 230.492 36.9608C230.692 36.7756 230.811 36.6202 230.924 36.3982C231.1 36.0543 231.182 35.7108 231.181 35.3111C231.179 34.5196 230.827 33.678 230.181 32.9207C229.914 32.6091 229.457 32.2059 229.057 31.9333C227.437 30.8233 225.639 30.6029 224.301 31.348C224.035 31.4975 223.808 31.6968 223.649 31.9241Z" fill="#FDFFFC"/>
<path d="M238.025 26.8345C237.311 27.8348 237.159 29.1713 237.605 30.5429C237.811 31.1749 238.045 31.6224 238.494 32.2343C238.654 32.4528 238.721 32.5294 238.939 32.7464C239.206 33.0119 239.353 33.1279 239.624 33.2871C240.35 33.7149 241.167 33.835 241.807 33.6098C242.157 33.4869 242.414 33.3131 242.634 33.0485C243.169 32.4074 243.426 31.6175 243.409 30.6697C243.389 29.6246 243.005 28.5372 242.346 27.6519C242.183 27.4308 241.824 27.0325 241.659 26.887C240.814 26.1407 239.685 25.8718 238.834 26.2143C238.505 26.3474 238.217 26.5674 238.025 26.8345Z" fill="#FDFFFC"/>
<path d="M225.129 40.4752C224.666 41.1275 224.589 41.986 224.932 42.6726C225.053 42.9155 225.262 43.2261 225.478 43.484C226.26 44.4202 227.534 45.0843 228.816 45.2232C229.773 45.3262 230.688 45.1423 231.466 44.6913C232.12 44.3111 232.452 43.7156 232.45 42.9292C232.449 42.2273 232.11 41.5406 231.434 40.868C231.171 40.6063 231.014 40.4762 230.724 40.28C229.732 39.6046 228.458 39.2838 227.285 39.4134C226.746 39.473 226.122 39.6558 225.806 39.8477C225.557 39.9985 225.295 40.2415 225.129 40.4752Z" fill="#FDFFFC"/>
<path d="M234.892 36.9184C234.497 37.4155 234.177 37.9763 233.935 38.6023C233.567 39.5604 233.416 40.6894 233.535 41.6329C233.791 43.6699 234.415 45.5276 235.309 46.9206C235.364 47.0062 235.444 47.1391 235.488 47.2158C235.714 47.6121 236.082 47.9502 236.503 48.146C237.18 48.4613 237.953 48.456 238.595 48.1348C238.977 47.9426 239.404 47.5107 239.781 46.9317C240.027 46.5556 240.185 46.2476 240.6 45.3405C241.175 44.0768 241.364 43.756 241.924 43.0777C242.174 42.7745 242.223 42.7231 242.427 42.5456C242.949 42.0904 243.44 41.8094 244.482 41.3677C245.405 40.9763 245.915 40.7529 246.033 40.6859C247.215 40.0208 247.807 38.7814 247.423 37.7734C247.253 37.3308 246.769 36.8189 246.181 36.4636C245.608 36.1185 244.526 35.7099 243.702 35.5296C241.376 35.019 239.941 34.8781 238.594 35.0263C237.329 35.1665 236.474 35.4897 235.671 36.1356C235.444 36.317 235.076 36.6872 234.892 36.9184Z" fill="#FDFFFC"/>
</svg>
