<svg width="552" height="393" viewBox="0 0 552 393" fill="none" xmlns="http://www.w3.org/2000/svg">
<path opacity="0.1" d="M495.684 333.776C491.569 335.895 487.257 337.726 483.009 339.522C467.293 346.146 451.334 352.84 434.456 355.115C402.74 359.36 370.019 347.809 338.864 355.017C312.767 361.034 291.184 379.475 265.688 387.687C253.833 391.504 241.499 393 229.054 393H227.447C225.915 393 224.389 392.942 222.858 392.884C210.24 392.411 197.57 390.574 185.2 388.166C146.144 380.658 106.394 366.896 76.5344 341.561C163.479 325.685 342.575 301.325 495.684 333.776Z" fill="#252223"/>
<path opacity="0.3" d="M525.99 143.802V106.841H504.025V143.802H478.015V86.6275H458.94V43.8913H443.334V0H410.965V43.8913H395.359V86.6275H376.863V35.2285H366.459V9.24026H360.101V35.2285H323.108V199.243H294.785V181.918H277.445V199.243H249.123V143.802H198.258V106.841H176.293V143.802H175.137V214.836H152.017V173.255H124.272V214.836H101.152V86.6275H83.2335V43.8913H17.3403V86.6275H0V312.436H101.152H175.137H249.123H323.108H376.863H478.015H552V143.802H525.99Z" fill="#77C171"/>
<path opacity="0.4" d="M35.2586 99.9104H10.9822V113.771H35.2586V99.9104Z" fill="white"/>
<path opacity="0.4" d="M65.3152 113.771H89.5916V99.9104H65.3152V113.771Z" fill="white"/>
<path opacity="0.4" d="M35.2586 127.054H10.9822V140.914H35.2586V127.054Z" fill="white"/>
<path opacity="0.4" d="M65.3152 140.914H89.5916V127.054H65.3152V140.914Z" fill="white"/>
<path opacity="0.4" d="M35.2586 154.197H10.9822V168.057H35.2586V154.197Z" fill="white"/>
<path opacity="0.4" d="M65.3152 168.057H89.5916V154.197H65.3152V168.057Z" fill="white"/>
<path opacity="0.4" d="M35.2586 181.34H10.9822V195.201H35.2586V181.34Z" fill="white"/>
<path opacity="0.4" d="M65.3152 195.201H89.5916V181.34H65.3152V195.201Z" fill="white"/>
<path opacity="0.4" d="M35.2586 208.483H10.9822V222.344H35.2586V208.483Z" fill="white"/>
<path opacity="0.4" d="M65.3152 222.344H89.5916V208.483H65.3152V222.344Z" fill="white"/>
<path opacity="0.4" d="M35.2586 235.627H10.9822V249.487H35.2586V235.627Z" fill="white"/>
<path opacity="0.4" d="M65.3152 249.487H89.5916V235.627H65.3152V249.487Z" fill="white"/>
<path opacity="0.4" d="M35.2586 262.77H10.9822V276.63H35.2586V262.77Z" fill="white"/>
<path opacity="0.4" d="M65.3152 276.63H89.5916V262.77H65.3152V276.63Z" fill="white"/>
<path opacity="0.4" d="M166.467 228.697H109.822V235.627H166.467V228.697Z" fill="white"/>
<path opacity="0.4" d="M166.467 239.092H109.822V246.022H166.467V239.092Z" fill="white"/>
<path opacity="0.4" d="M166.467 249.487H109.822V256.417H166.467V249.487Z" fill="white"/>
<path opacity="0.4" d="M314.438 232.162H257.793V239.092H314.438V232.162Z" fill="white"/>
<path opacity="0.4" d="M314.438 242.557H257.793V249.487H314.438V242.557Z" fill="white"/>
<path opacity="0.4" d="M314.438 252.952H257.793V259.882H314.438V252.952Z" fill="white"/>
<path opacity="0.4" d="M166.467 259.882H109.822V266.813H166.467V259.882Z" fill="white"/>
<path opacity="0.4" d="M166.467 270.278H109.822V277.208H166.467V270.278Z" fill="white"/>
<path opacity="0.4" d="M166.467 280.673H109.822V287.603H166.467V280.673Z" fill="white"/>
<path opacity="0.4" d="M202.882 157.084H187.275V177.298H202.882V157.084Z" fill="white"/>
<path opacity="0.4" d="M221.378 177.298H236.984V157.084H221.378V177.298Z" fill="white"/>
<path opacity="0.4" d="M202.882 189.425H187.275V209.638H202.882V189.425Z" fill="white"/>
<path opacity="0.4" d="M221.378 209.638H236.984V189.425H221.378V209.638Z" fill="white"/>
<path opacity="0.4" d="M202.882 221.766H187.275V241.979H202.882V221.766Z" fill="white"/>
<path opacity="0.4" d="M221.378 241.979H236.984V221.766H221.378V241.979Z" fill="white"/>
<path opacity="0.4" d="M202.882 254.107H187.275V274.32H202.882V254.107Z" fill="white"/>
<path opacity="0.4" d="M221.378 274.32H236.984V254.107H221.378V274.32Z" fill="white"/>
<path opacity="0.4" d="M343.916 48.5114H323.108V75.0771H343.916V48.5114Z" fill="white"/>
<path opacity="0.4" d="M343.916 86.6275H323.108V113.193H343.916V86.6275Z" fill="white"/>
<path opacity="0.4" d="M343.916 124.744H323.108V151.309H343.916V124.744Z" fill="white"/>
<path opacity="0.4" d="M343.916 162.86H323.108V189.425H343.916V162.86Z" fill="white"/>
<path opacity="0.4" d="M343.916 200.976H323.108V227.542H343.916V200.976Z" fill="white"/>
<path opacity="0.4" d="M343.916 239.092H323.108V265.658H343.916V239.092Z" fill="white"/>
<path opacity="0.4" d="M466.165 102.798H388.712V125.321H466.165V102.798Z" fill="white"/>
<path opacity="0.4" d="M466.454 151.309H389.001V173.832H466.454V151.309Z" fill="white"/>
<path opacity="0.4" d="M466.743 199.821H389.29V222.344H466.743V199.821Z" fill="white"/>
<path opacity="0.4" d="M467.032 248.332H389.579V270.855H467.032V248.332Z" fill="white"/>
<path opacity="0.4" d="M27.7445 56.0191H17.3403V77.9647H27.7445V56.0191Z" fill="white"/>
<path opacity="0.4" d="M552 157.084H525.99V190.58H552V157.084Z" fill="white"/>
<path opacity="0.4" d="M552 205.596H525.99V239.092H552V205.596Z" fill="white"/>
<path opacity="0.4" d="M552 254.107H525.99V287.603H552V254.107Z" fill="white"/>
<path d="M28.7098 276.948C28.7098 276.948 -16.797 304.38 67.0897 346.614C67.0897 346.614 85.586 312.332 65.136 284.381C61.1696 278.931 55.3401 275.124 48.7521 273.682C42.1642 272.239 35.2756 273.262 29.3918 276.555L28.7098 276.948Z" fill="#77C171"/>
<path d="M29.2358 276.371C29.2358 276.371 68.1763 306.142 67.0897 346.614" stroke="#535461" stroke-miterlimit="10"/>
<path d="M69.2052 348.173C69.2052 348.173 54.9457 299.8 71.8814 264.196C78.9851 249.256 81.3434 232.479 78.0603 216.263C76.4923 208.563 74.2188 201.023 71.2687 193.739" stroke="#535461" stroke-width="2" stroke-miterlimit="10"/>
<path d="M81.7884 171.268C81.7884 177.194 71.049 194.369 71.049 194.369C71.049 194.369 60.3038 177.176 60.3038 171.268C60.2706 169.838 60.5239 168.415 61.0488 167.084C61.5737 165.753 62.3597 164.54 63.3605 163.516C64.3613 162.493 65.5568 161.68 66.8766 161.125C68.1965 160.569 69.6141 160.283 71.0461 160.283C72.4782 160.283 73.8958 160.569 75.2156 161.125C76.5355 161.68 77.7309 162.493 78.7317 163.516C79.7325 164.54 80.5185 165.753 81.0434 167.084C81.5684 168.415 81.8217 169.838 81.7884 171.268Z" fill="#77C171"/>
<path d="M99.568 204.106C96.3428 209.084 77.9736 217.678 77.9736 217.678C77.9736 217.678 78.303 197.412 81.5283 192.44C83.0949 190.091 85.5241 188.454 88.2902 187.881C91.0564 187.308 93.9369 187.847 96.3084 189.381C98.6799 190.914 100.352 193.319 100.962 196.075C101.572 198.831 101.071 201.716 99.568 204.106Z" fill="#77C171"/>
<path d="M98.7878 260.223C93.4932 262.891 73.2917 261.043 73.2917 261.043C73.2917 261.043 83.8173 243.718 89.1177 241.05C91.6575 239.811 94.5836 239.622 97.2621 240.523C99.9405 241.425 102.156 243.344 103.428 245.866C104.699 248.388 104.926 251.309 104.057 253.996C103.189 256.683 101.296 258.921 98.7878 260.223Z" fill="#77C171"/>
<path d="M88.6321 302.549C83.8635 306.072 63.6447 307.666 63.6447 307.666C63.6447 307.666 71.0837 288.81 75.8581 285.287C78.1526 283.661 80.994 282.998 83.7721 283.442C86.5502 283.886 89.0433 285.4 90.7159 287.661C92.3885 289.921 93.1072 292.746 92.7175 295.53C92.3279 298.314 90.8611 300.834 88.6321 302.549Z" fill="#77C171"/>
<path d="M55.4138 218.827C59.668 222.956 79.4995 227.235 79.4995 227.235C79.4995 227.235 74.6443 207.559 70.3843 203.43C69.3725 202.448 68.177 201.675 66.866 201.154C65.555 200.634 64.1543 200.376 62.7438 200.397C61.3332 200.417 59.9405 200.715 58.6452 201.273C57.3498 201.831 56.1772 202.639 55.1942 203.65C54.2112 204.661 53.4372 205.855 52.9162 207.165C52.3953 208.475 52.1376 209.874 52.158 211.284C52.1784 212.693 52.4765 214.084 53.0351 215.379C53.5937 216.673 54.402 217.845 55.4138 218.827Z" fill="#77C171"/>
<path d="M44.1658 268.476C49.4604 271.15 69.6618 269.302 69.6618 269.302C69.6618 269.302 59.1363 251.976 53.8417 249.308C52.5788 248.64 51.1951 248.23 49.7717 248.102C48.3483 247.975 46.9138 248.133 45.5521 248.566C44.1904 248.999 42.9288 249.699 41.8413 250.626C40.7538 251.552 39.8622 252.686 39.2186 253.961C38.575 255.236 38.1925 256.626 38.0933 258.051C37.9941 259.475 38.1803 260.905 38.641 262.257C39.1017 263.608 39.8276 264.854 40.7763 265.922C41.7249 266.99 42.8772 267.858 44.1658 268.476Z" fill="#77C171"/>
<path d="M39.8596 318.235C44.6282 321.758 64.8528 323.352 64.8528 323.352C64.8528 323.352 57.408 304.496 52.6336 300.973C50.3391 299.346 47.4977 298.684 44.7196 299.127C41.9415 299.571 39.4484 301.086 37.7758 303.346C36.1032 305.606 35.3846 308.432 35.7742 311.216C36.1638 313.999 37.6306 316.52 39.8596 318.235Z" fill="#77C171"/>
<path opacity="0.25" d="M81.7884 171.268C81.7884 177.194 71.049 194.369 71.049 194.369C71.049 194.369 60.3038 177.176 60.3038 171.268C60.2706 169.838 60.5239 168.415 61.0488 167.084C61.5737 165.753 62.3597 164.54 63.3605 163.516C64.3613 162.493 65.5568 161.68 66.8766 161.125C68.1965 160.569 69.6141 160.283 71.0461 160.283C72.4782 160.283 73.8958 160.569 75.2156 161.125C76.5355 161.68 77.7309 162.493 78.7317 163.516C79.7325 164.54 80.5185 165.753 81.0434 167.084C81.5684 168.415 81.8217 169.838 81.7884 171.268Z" fill="black"/>
<path opacity="0.25" d="M99.568 204.106C96.3428 209.084 77.9736 217.678 77.9736 217.678C77.9736 217.678 78.303 197.412 81.5283 192.44C83.0949 190.091 85.5241 188.454 88.2902 187.881C91.0564 187.308 93.9369 187.847 96.3084 189.381C98.6799 190.914 100.352 193.319 100.962 196.075C101.572 198.831 101.071 201.716 99.568 204.106Z" fill="black"/>
<path opacity="0.25" d="M98.7878 260.223C93.4932 262.891 73.2917 261.043 73.2917 261.043C73.2917 261.043 83.8173 243.718 89.1177 241.05C91.6575 239.811 94.5836 239.622 97.2621 240.523C99.9405 241.425 102.156 243.344 103.428 245.866C104.699 248.388 104.926 251.309 104.057 253.996C103.189 256.683 101.296 258.921 98.7878 260.223Z" fill="black"/>
<path opacity="0.25" d="M88.6321 302.549C83.8635 306.072 63.6447 307.666 63.6447 307.666C63.6447 307.666 71.0837 288.81 75.8581 285.287C78.1526 283.661 80.994 282.998 83.7721 283.442C86.5502 283.886 89.0433 285.4 90.7159 287.661C92.3885 289.921 93.1072 292.746 92.7175 295.53C92.3279 298.314 90.8611 300.834 88.6321 302.549Z" fill="black"/>
<path opacity="0.25" d="M55.4138 218.827C59.668 222.956 79.4995 227.235 79.4995 227.235C79.4995 227.235 74.6443 207.559 70.3843 203.43C69.3725 202.448 68.177 201.675 66.866 201.154C65.555 200.634 64.1543 200.376 62.7438 200.397C61.3332 200.417 59.9405 200.715 58.6452 201.273C57.3498 201.831 56.1772 202.639 55.1942 203.65C54.2112 204.661 53.4372 205.855 52.9162 207.165C52.3953 208.475 52.1376 209.874 52.158 211.284C52.1784 212.693 52.4765 214.084 53.0351 215.379C53.5937 216.673 54.402 217.845 55.4138 218.827Z" fill="black"/>
<path opacity="0.25" d="M44.1658 268.476C49.4604 271.15 69.6618 269.302 69.6618 269.302C69.6618 269.302 59.1363 251.976 53.8417 249.308C52.5788 248.64 51.1951 248.23 49.7717 248.102C48.3483 247.975 46.9138 248.133 45.5521 248.566C44.1904 248.999 42.9288 249.699 41.8413 250.626C40.7538 251.552 39.8622 252.686 39.2186 253.961C38.575 255.236 38.1925 256.626 38.0933 258.051C37.9941 259.475 38.1803 260.905 38.641 262.257C39.1017 263.608 39.8276 264.854 40.7763 265.922C41.7249 266.99 42.8772 267.858 44.1658 268.476Z" fill="black"/>
<path opacity="0.25" d="M39.8596 318.235C44.6282 321.758 64.8528 323.352 64.8528 323.352C64.8528 323.352 57.408 304.496 52.6336 300.973C50.3391 299.346 47.4977 298.684 44.7196 299.127C41.9415 299.571 39.4484 301.086 37.7758 303.346C36.1032 305.606 35.3846 308.432 35.7742 311.216C36.1638 313.999 37.6306 316.52 39.8596 318.235Z" fill="black"/>
<path d="M514.302 335.682C514.302 335.682 500.043 287.309 516.978 251.705C524.082 236.764 526.446 219.988 523.163 203.771C521.59 196.072 519.316 188.533 516.371 181.248" stroke="#535461" stroke-width="2" stroke-miterlimit="10"/>
<path d="M526.909 158.777C526.909 164.702 516.163 181.877 516.163 181.877C516.163 181.877 505.418 164.685 505.418 158.777C505.418 155.929 506.55 153.198 508.565 151.185C510.58 149.172 513.314 148.041 516.163 148.041C519.013 148.041 521.746 149.172 523.761 151.185C525.777 153.198 526.909 155.929 526.909 158.777Z" fill="#77C171"/>
<path d="M544.665 191.614C541.44 196.592 523.071 205.186 523.071 205.186C523.071 205.186 523.406 184.921 526.631 179.948C528.179 177.559 530.614 175.882 533.4 175.286C536.186 174.691 539.095 175.225 541.486 176.772C543.878 178.319 545.556 180.752 546.152 183.535C546.748 186.319 546.213 189.225 544.665 191.614Z" fill="#77C171"/>
<path d="M543.89 247.732C538.59 250.4 518.389 248.552 518.389 248.552C518.389 248.552 528.92 231.226 534.215 228.558C536.759 227.276 539.71 227.056 542.416 227.948C545.123 228.839 547.364 230.768 548.647 233.311C549.931 235.853 550.15 238.801 549.258 241.506C548.366 244.21 546.435 246.45 543.89 247.732Z" fill="#77C171"/>
<path d="M533.735 290.058C528.96 293.581 508.742 295.174 508.742 295.174C508.742 295.174 516.186 276.319 520.955 272.796C523.248 271.129 526.106 270.436 528.908 270.866C531.71 271.297 534.229 272.816 535.915 275.093C537.601 277.37 538.317 280.221 537.909 283.024C537.501 285.827 536 288.355 533.735 290.058Z" fill="#77C171"/>
<path d="M500.511 206.318C504.771 210.447 524.597 214.726 524.597 214.726C524.597 214.726 519.741 195.05 515.487 190.921C514.48 189.916 513.283 189.12 511.966 188.581C510.648 188.041 509.237 187.769 507.813 187.779C506.39 187.79 504.982 188.083 503.673 188.641C502.363 189.2 501.178 190.013 500.186 191.033C499.194 192.053 498.414 193.26 497.893 194.583C497.371 195.907 497.118 197.321 497.149 198.743C497.179 200.165 497.492 201.567 498.069 202.868C498.646 204.168 499.476 205.341 500.511 206.318Z" fill="#77C171"/>
<path d="M489.286 255.984C494.586 258.658 514.788 256.81 514.788 256.81C514.788 256.81 504.262 239.485 498.962 236.816C497.699 236.148 496.315 235.738 494.892 235.611C493.468 235.483 492.034 235.641 490.672 236.074C489.31 236.507 488.049 237.208 486.961 238.134C485.874 239.06 484.982 240.194 484.339 241.469C483.695 242.744 483.313 244.134 483.213 245.559C483.114 246.983 483.3 248.413 483.761 249.765C484.222 251.117 484.948 252.363 485.896 253.431C486.845 254.499 487.997 255.367 489.286 255.984Z" fill="#77C171"/>
<path d="M484.957 305.743C489.731 309.266 509.95 310.86 509.95 310.86C509.95 310.86 502.505 292.01 497.736 288.481C495.444 286.815 492.585 286.121 489.783 286.552C486.981 286.982 484.463 288.501 482.777 290.778C481.091 293.056 480.374 295.906 480.782 298.709C481.191 301.512 482.691 304.04 484.957 305.743Z" fill="#77C171"/>
<path d="M449.981 330.975C449.981 330.975 442.317 304.986 451.42 285.848C455.285 277.846 456.451 268.809 454.744 260.09C453.898 255.956 452.675 251.908 451.091 247.997" stroke="#535461" stroke-width="2" stroke-miterlimit="10"/>
<path d="M456.755 235.904C456.755 239.092 450.975 248.332 450.975 248.332C450.975 248.332 445.195 239.092 445.195 235.904C445.195 234.372 445.804 232.903 446.888 231.82C447.972 230.737 449.442 230.129 450.975 230.129C452.508 230.129 453.978 230.737 455.062 231.82C456.146 232.903 456.755 234.372 456.755 235.904Z" fill="#77C171"/>
<path d="M466.298 253.553C464.564 256.227 454.692 260.847 454.692 260.847C454.692 260.847 454.871 249.955 456.605 247.281C457.47 246.072 458.767 245.242 460.229 244.964C461.69 244.686 463.202 244.982 464.451 245.79C465.699 246.598 466.588 247.855 466.932 249.301C467.276 250.747 467.049 252.27 466.298 253.553Z" fill="#77C171"/>
<path d="M465.882 283.705C463.033 285.137 452.178 284.144 452.178 284.144C452.178 284.144 457.836 274.834 460.68 273.402C462.038 272.789 463.58 272.724 464.985 273.22C466.39 273.716 467.55 274.735 468.221 276.064C468.892 277.393 469.023 278.93 468.588 280.354C468.152 281.777 467.183 282.978 465.882 283.705Z" fill="#77C171"/>
<path d="M460.42 306.453C457.859 308.348 446.993 309.202 446.993 309.202C446.993 309.202 450.993 299.073 453.559 297.178C454.164 296.678 454.865 296.307 455.619 296.087C456.373 295.866 457.164 295.802 457.944 295.897C458.724 295.992 459.476 296.245 460.154 296.641C460.833 297.036 461.423 297.566 461.89 298.197C462.357 298.828 462.69 299.548 462.87 300.312C463.049 301.076 463.07 301.868 462.933 302.641C462.795 303.414 462.501 304.15 462.069 304.806C461.637 305.461 461.076 306.022 460.42 306.453Z" fill="#77C171"/>
<path d="M442.571 261.465C444.883 263.682 455.513 265.981 455.513 265.981C455.513 265.981 452.906 255.407 450.617 253.189C450.082 252.619 449.437 252.163 448.721 251.849C448.005 251.535 447.233 251.37 446.451 251.363C445.669 251.356 444.894 251.507 444.172 251.808C443.451 252.109 442.798 252.553 442.253 253.114C441.708 253.674 441.283 254.339 441.003 255.069C440.722 255.798 440.593 256.577 440.623 257.357C440.653 258.138 440.841 258.905 441.176 259.611C441.51 260.317 441.985 260.947 442.571 261.465Z" fill="#77C171"/>
<path d="M436.525 288.146C439.375 289.578 450.23 288.591 450.23 288.591C450.23 288.591 444.571 279.281 441.721 277.843C440.363 277.23 438.821 277.165 437.416 277.661C436.011 278.157 434.852 279.176 434.181 280.505C433.51 281.834 433.378 283.371 433.814 284.795C434.25 286.219 435.219 287.419 436.519 288.146H436.525Z" fill="#77C171"/>
<path d="M434.213 314.891C436.774 316.785 447.64 317.64 447.64 317.64C447.64 317.64 443.623 307.504 441.08 305.61C439.845 304.771 438.333 304.442 436.86 304.692C435.388 304.943 434.069 305.753 433.182 306.953C432.294 308.153 431.905 309.649 432.097 311.129C432.29 312.609 433.048 313.957 434.213 314.891Z" fill="#77C171"/>
<path opacity="0.1" d="M152.988 27.536H149.011C149.387 27.5531 149.763 27.4939 150.116 27.3619C150.468 27.2299 150.79 27.0278 151.063 26.7679C151.335 26.508 151.552 26.1956 151.7 25.8497C151.848 25.5038 151.924 25.1315 151.924 24.7552C151.924 24.379 151.848 24.0067 151.7 23.6608C151.552 23.3149 151.335 23.0025 151.063 22.7426C150.79 22.4827 150.468 22.2806 150.116 22.1486C149.763 22.0166 149.387 21.9574 149.011 21.9745H116.799C116.422 21.9574 116.047 22.0166 115.694 22.1486C115.341 22.2806 115.019 22.4827 114.747 22.7426C114.475 23.0025 114.258 23.3149 114.11 23.6608C113.962 24.0067 113.886 24.379 113.886 24.7552C113.886 25.1315 113.962 25.5038 114.11 25.8497C114.258 26.1956 114.475 26.508 114.747 26.7679C115.019 27.0278 115.341 27.2299 115.694 27.3619C116.047 27.4939 116.422 27.5531 116.799 27.536H120.775C120.036 27.536 119.328 27.8293 118.805 28.3513C118.283 28.8733 117.989 29.5814 117.989 30.3196C117.989 31.0579 118.283 31.7659 118.805 32.2879C119.328 32.81 120.036 33.1032 120.775 33.1032H115.209C114.833 33.0861 114.457 33.1453 114.105 33.2774C113.752 33.4094 113.43 33.6114 113.158 33.8713C112.885 34.1313 112.669 34.4436 112.521 34.7895C112.372 35.1354 112.296 35.5078 112.296 35.884C112.296 36.2602 112.372 36.6325 112.521 36.9785C112.669 37.3244 112.885 37.6367 113.158 37.8966C113.43 38.1565 113.752 38.3586 114.105 38.4906C114.457 38.6226 114.833 38.6819 115.209 38.6647H147.422C147.798 38.6819 148.173 38.6226 148.526 38.4906C148.879 38.3586 149.201 38.1565 149.473 37.8966C149.745 37.6367 149.962 37.3244 150.11 36.9785C150.258 36.6325 150.334 36.2602 150.334 35.884C150.334 35.5078 150.258 35.1354 150.11 34.7895C149.962 34.4436 149.745 34.1313 149.473 33.8713C149.201 33.6114 148.879 33.4094 148.526 33.2774C148.173 33.1453 147.798 33.0861 147.422 33.1032H152.988C153.727 33.1032 154.435 32.81 154.958 32.2879C155.48 31.7659 155.774 31.0579 155.774 30.3196C155.774 29.5814 155.48 28.8733 154.958 28.3513C154.435 27.8293 153.727 27.536 152.988 27.536Z" fill="#252223"/>
<path opacity="0.1" d="M295.178 97.4155H291.202C291.578 97.4326 291.954 97.3734 292.306 97.2414C292.659 97.1093 292.981 96.9073 293.253 96.6474C293.525 96.3875 293.742 96.0751 293.89 95.7292C294.038 95.3833 294.115 95.011 294.115 94.6347C294.115 94.2585 294.038 93.8862 293.89 93.5403C293.742 93.1944 293.525 92.882 293.253 92.6221C292.981 92.3622 292.659 92.1601 292.306 92.0281C291.954 91.8961 291.578 91.8369 291.202 91.854H258.989C258.613 91.8369 258.237 91.8961 257.885 92.0281C257.532 92.1601 257.21 92.3622 256.938 92.6221C256.665 92.882 256.449 93.1944 256.301 93.5403C256.153 93.8862 256.076 94.2585 256.076 94.6347C256.076 95.011 256.153 95.3833 256.301 95.7292C256.449 96.0751 256.665 96.3875 256.938 96.6474C257.21 96.9073 257.532 97.1093 257.885 97.2414C258.237 97.3734 258.613 97.4326 258.989 97.4155H262.966C262.227 97.4155 261.518 97.7088 260.996 98.2308C260.473 98.7528 260.18 99.4608 260.18 100.199C260.18 100.937 260.473 101.645 260.996 102.167C261.518 102.689 262.227 102.983 262.966 102.983H257.4C257.023 102.966 256.648 103.025 256.295 103.157C255.943 103.289 255.62 103.491 255.348 103.751C255.076 104.011 254.859 104.323 254.711 104.669C254.563 105.015 254.487 105.387 254.487 105.763C254.487 106.14 254.563 106.512 254.711 106.858C254.859 107.204 255.076 107.516 255.348 107.776C255.62 108.036 255.943 108.238 256.295 108.37C256.648 108.502 257.023 108.561 257.4 108.544H289.612C289.988 108.561 290.364 108.502 290.717 108.37C291.069 108.238 291.391 108.036 291.664 107.776C291.936 107.516 292.153 107.204 292.301 106.858C292.449 106.512 292.525 106.14 292.525 105.763C292.525 105.387 292.449 105.015 292.301 104.669C292.153 104.323 291.936 104.011 291.664 103.751C291.391 103.491 291.069 103.289 290.717 103.157C290.364 103.025 289.988 102.966 289.612 102.983H295.178C295.544 102.983 295.907 102.911 296.245 102.771C296.583 102.631 296.89 102.426 297.148 102.167C297.407 101.909 297.612 101.602 297.752 101.264C297.892 100.927 297.964 100.565 297.964 100.199C297.964 99.8336 297.892 99.4716 297.752 99.1339C297.612 98.7961 297.407 98.4893 297.148 98.2308C296.89 97.9723 296.583 97.7673 296.245 97.6274C295.907 97.4875 295.544 97.4155 295.178 97.4155Z" fill="#252223"/>
<path opacity="0.1" d="M537.365 53.5644H533.388C533.764 53.5815 534.14 53.5223 534.493 53.3903C534.845 53.2582 535.167 53.0562 535.44 52.7963C535.712 52.5364 535.929 52.224 536.077 51.8781C536.225 51.5322 536.301 51.1599 536.301 50.7836C536.301 50.4074 536.225 50.0351 536.077 49.6892C535.929 49.3432 535.712 49.0309 535.44 48.771C535.167 48.5111 534.845 48.309 534.493 48.177C534.14 48.045 533.764 47.9858 533.388 48.0029H501.176C500.799 47.9858 500.424 48.045 500.071 48.177C499.718 48.309 499.396 48.5111 499.124 48.771C498.852 49.0309 498.635 49.3432 498.487 49.6892C498.339 50.0351 498.263 50.4074 498.263 50.7836C498.263 51.1599 498.339 51.5322 498.487 51.8781C498.635 52.224 498.852 52.5364 499.124 52.7963C499.396 53.0562 499.718 53.2582 500.071 53.3903C500.424 53.5223 500.799 53.5815 501.176 53.5644H505.152C504.413 53.5644 503.705 53.8576 503.182 54.3797C502.66 54.9017 502.366 55.6097 502.366 56.348C502.366 57.0863 502.66 57.7943 503.182 58.3163C503.705 58.8384 504.413 59.1316 505.152 59.1316H499.586C499.21 59.1145 498.834 59.1737 498.482 59.3057C498.129 59.4378 497.807 59.6398 497.535 59.8997C497.262 60.1596 497.046 60.472 496.898 60.8179C496.749 61.1638 496.673 61.5361 496.673 61.9124C496.673 62.2886 496.749 62.6609 496.898 63.0068C497.046 63.3528 497.262 63.6651 497.535 63.925C497.807 64.1849 498.129 64.387 498.482 64.519C498.834 64.651 499.21 64.7102 499.586 64.6931H531.799C532.175 64.7102 532.55 64.651 532.903 64.519C533.256 64.387 533.578 64.1849 533.85 63.925C534.122 63.6651 534.339 63.3528 534.487 63.0068C534.635 62.6609 534.711 62.2886 534.711 61.9124C534.711 61.5361 534.635 61.1638 534.487 60.8179C534.339 60.472 534.122 60.1596 533.85 59.8997C533.578 59.6398 533.256 59.4378 532.903 59.3057C532.55 59.1737 532.175 59.1145 531.799 59.1316H537.365C538.104 59.1316 538.812 58.8384 539.335 58.3163C539.857 57.7943 540.151 57.0863 540.151 56.348C540.151 55.6097 539.857 54.9017 539.335 54.3797C538.812 53.8576 538.104 53.5644 537.365 53.5644Z" fill="#252223"/>
<g opacity="0.5">
<path opacity="0.5" d="M301.739 255.846L293.34 216.343H294.202L294.069 215.674H294.311L289.965 194.305C289.965 194.305 290.184 171.984 291.242 163.351C292.017 157.05 293.242 149.022 292.346 142.265C292.47 142.079 292.584 141.886 292.687 141.688C293.058 140.969 293.282 140.184 293.346 139.378C293.67 137.489 293.416 135.547 292.618 133.805L301.352 128.353C301.548 128.353 301.75 128.393 301.93 128.405C301.93 128.324 301.849 128.197 301.785 128.03C305.917 128.247 310.01 127.14 313.468 124.87C316.926 122.6 319.568 119.286 321.01 115.411C321.779 116.565 322.729 117.586 323.825 118.437C326.177 120.199 329.882 120.591 331.842 118.402C332.555 117.529 333.038 116.49 333.246 115.382C333.362 114.885 333.443 114.377 333.512 113.875C334.622 107.972 332.188 101.885 329.05 96.7109C325.125 90.2485 319.917 84.3983 313.299 80.7253C306.681 77.0522 298.56 75.7355 291.398 78.1842C284.237 80.6329 277.023 87.2801 276.37 94.8167C276.046 98.6687 276.509 100.453 275.711 104.236C275.312 106.119 276.173 109.786 276.162 111.865C276.092 112.247 276.045 112.632 276.023 113.02C275.907 115.33 276.827 117.513 277.497 119.731C268.052 120.204 243.215 122.116 236.042 129.404C227.118 138.465 205.234 141.705 205.234 141.705L168.791 149.034L156.074 154.428L156.219 155.005L155.965 155.115C155.965 155.115 156.415 156.796 157.063 159.013C154.226 161.579 152.369 165.049 151.809 168.831C151.103 172.753 151.479 177.8 153.965 184.239C153.965 184.239 166.513 207.265 167.38 216.551L183.218 248.136C181.859 250.844 168.288 278.219 165.953 293.54C165.768 294.643 165.642 295.756 165.577 296.872C165.577 296.872 165.49 297.681 165.276 299.027C164.346 304.704 161.404 318.662 154.219 325.188L154.311 325.269L154.103 325.471L154.265 325.61C152.109 329.727 155.225 335.306 155.225 335.306L158.768 351.118L162.733 351.76L166.906 350.062L169.218 354.503C169.218 354.503 187.223 357.39 192.339 357.223C197.454 357.055 188.004 348.393 184.692 345.823C182.854 344.402 181.414 338.563 180.501 333.649C180.983 333.258 181.416 332.81 181.79 332.315C181.79 332.315 179.588 320.764 186.218 304.917C189.044 298.172 192.084 290.416 194.657 283.734C196.038 292.708 197.489 301.955 198.558 308.267C200.113 317.409 199.911 322.988 199.431 326.135C199.342 327.233 199.083 328.311 198.662 329.329C198.684 329.358 198.703 329.389 198.72 329.421C198.69 329.503 198.653 329.582 198.61 329.658C198.645 329.716 198.68 329.768 198.708 329.825C195.09 333.96 198.859 340.706 198.859 340.706L202.402 356.472L206.367 357.113L210.54 355.415L212.852 359.856C212.852 359.856 230.857 362.744 235.973 362.576C241.088 362.409 231.638 353.746 228.32 351.176C225.736 349.172 223.944 338.413 223.28 333.799C223.759 333.753 224.025 333.718 224.025 333.718L223.973 333.4H224.083L221.817 320.164C217.945 316.831 218.482 269.492 218.482 269.492C218.482 269.492 216.465 274.442 216.401 274.043C216.598 273.246 217.326 270.994 219.014 266.195C220.005 263.443 220.739 260.604 221.205 257.717C223.037 246.449 219.621 239.56 219.621 239.56C219.846 237.296 217.459 228.5 214.638 219.133L223.499 201.877C224.732 202.34 226.069 202.45 227.36 202.194L234.071 190.066C234.071 190.066 247.943 181.808 251.914 182.449C255.608 183.027 267.18 180.497 271.653 175.681C271.975 175.329 272.269 174.952 272.532 174.554C276.133 169.039 274.653 203.349 274.653 203.349L272.728 215.235L272.624 215.893L278.364 216.008L291.889 262.36C291.889 262.36 292.739 278.08 308.108 281.574C323.478 285.068 301.739 255.846 301.739 255.846ZM209.355 202.275C208.523 199.711 207.795 197.499 207.246 195.842L210.107 193.612C210.107 193.612 210.465 193.913 211.072 194.392L209.355 202.275Z" fill="url(#paint0_linear)"/>
</g>
<path d="M223.303 328.786C223.303 328.786 225.262 345.28 228.505 347.786C231.748 350.293 240.949 358.707 235.961 358.892C230.973 359.077 213.419 356.247 213.419 356.247L211.147 351.915L207.101 353.567L203.234 352.943L199.766 337.53C199.766 337.53 194.899 328.821 201.749 325.304C208.598 321.786 223.303 328.786 223.303 328.786Z" fill="#3A384D"/>
<path opacity="0.1" d="M206.835 193.56C206.835 193.56 220.447 234.039 219.933 239.236C219.933 239.236 224.921 249.285 219.419 264.907C213.916 280.529 218.841 268.447 218.841 268.447C218.841 268.447 218.32 314.585 222.089 317.836L224.297 330.738C224.297 330.738 203.072 333.256 199.5 326.736C199.5 326.736 202.263 321.902 199.558 305.945C196.853 289.988 191.639 254.829 191.639 254.829L177.513 174.629L206.835 193.56Z" fill="black"/>
<path d="M206.887 193.237C206.887 193.237 220.499 233.738 219.985 238.936C219.985 238.936 224.973 248.985 219.471 264.607C213.968 280.228 218.893 268.147 218.893 268.147C218.893 268.147 218.372 314.29 222.141 317.536L224.349 330.443C224.349 330.443 203.124 332.956 199.552 326.435C199.552 326.435 202.315 321.602 199.61 305.645C196.905 289.688 191.686 254.512 191.686 254.512L177.565 174.306L206.887 193.237Z" fill="#BEC7DE"/>
<path opacity="0.1" d="M181.068 176.408L194.911 255.031C194.911 255.031 200.113 290.208 202.835 306.165C205.558 322.121 202.778 326.955 202.778 326.955C203.818 328.855 206.344 329.981 209.407 330.634C205.107 330.132 201.229 328.959 199.876 326.487C199.876 326.487 202.645 321.654 199.94 305.697C197.235 289.74 192.015 254.564 192.015 254.564L177.888 174.358L181.068 176.408Z" fill="black"/>
<path d="M180.854 323.582C180.854 323.582 182.807 340.076 186.056 342.583C189.304 345.089 198.5 353.504 193.512 353.688C188.524 353.873 170.97 351.043 170.97 351.043L168.698 346.712L164.652 348.369L160.785 347.74L157.317 332.326C157.317 332.326 152.45 323.617 159.294 320.1C166.138 316.583 180.854 323.582 180.854 323.582Z" fill="#3A384D"/>
<path opacity="0.1" d="M206.835 193.56C206.835 193.56 220.447 234.039 219.933 239.236C219.933 239.236 224.921 249.285 219.419 264.907C213.916 280.529 218.841 268.447 218.841 268.447C218.841 268.447 218.32 314.585 222.089 317.836L224.297 330.738C224.297 330.738 203.072 333.256 199.5 326.736C199.5 326.736 202.263 321.902 199.558 305.945C196.853 289.988 191.639 254.829 191.639 254.829L177.513 174.629L206.835 193.56Z" fill="black"/>
<path opacity="0.1" d="M163.698 157.87C163.698 157.87 148.549 163.68 156.699 184.805C156.699 184.805 168.935 207.248 169.785 216.303L185.275 247.2C185.275 247.2 168.756 279.865 168.022 294.603C168.022 294.603 165.814 314.388 156.901 322.52C156.901 322.52 176.074 338.823 183.212 329.41C183.212 329.41 181.068 318.171 187.536 302.705C194.003 287.239 201.674 266.38 201.674 266.38C201.674 266.38 220.222 253.853 207.864 228.084L193.992 170.708L193.766 157.795L183.125 154.099L163.698 157.87Z" fill="black"/>
<path opacity="0.1" d="M163.005 158.084C163.005 158.084 147.855 163.893 156.005 185.019C156.005 185.019 168.236 207.467 169.085 216.523L184.576 247.42C184.576 247.42 168.057 280.078 167.334 294.822C167.334 294.822 165.126 314.602 156.207 322.739C156.207 322.739 175.38 339.043 182.524 329.629C182.524 329.629 180.374 318.385 186.842 302.925C193.31 287.465 200.98 266.576 200.98 266.576C200.98 266.576 219.534 254.05 207.176 228.281L193.304 170.904L193.079 157.991L182.443 154.295L163.005 158.084Z" fill="black"/>
<path d="M163.057 157.766C163.057 157.766 147.907 163.582 156.057 184.701C156.057 184.701 165.045 201.189 168.143 211.602C169.496 216.075 171.236 220.42 173.345 224.59L184.628 247.114C184.628 247.114 168.109 279.778 167.38 294.516C167.38 294.516 165.172 314.302 156.254 322.433C156.254 322.433 175.426 338.737 182.57 329.323C182.57 329.323 180.42 318.085 186.888 302.619C193.356 287.153 201.026 266.27 201.026 266.27C201.026 266.27 219.58 253.743 207.223 227.975L193.35 170.598L193.125 157.685L182.489 153.989L163.057 157.766Z" fill="#BEC7DE"/>
<path opacity="0.1" d="M163.057 157.766L182.507 153.972L185.044 154.855L166.924 158.384C166.924 158.384 151.774 164.194 159.924 185.319C159.924 185.319 168.906 201.807 172.01 212.22C173.363 216.692 175.103 221.038 177.212 225.208L188.501 247.732C188.501 247.732 171.958 280.384 171.247 295.123C171.247 295.123 169.033 314.908 160.12 323.04C160.12 323.04 168.38 330.062 176.074 332.228C167.588 332.055 156.254 322.41 156.254 322.41C165.172 314.279 167.38 294.493 167.38 294.493C168.109 279.755 184.628 247.09 184.628 247.09L173.345 224.567C171.236 220.397 169.496 216.051 168.143 211.579C165.045 201.184 156.057 184.678 156.057 184.678C147.907 163.582 163.057 157.766 163.057 157.766Z" fill="black"/>
<path d="M225.476 198.879L213.413 222.355C213.413 222.355 216.95 253.634 210.194 254.523C203.437 255.412 206.147 220.196 206.147 220.196L212.65 190.205L225.476 198.879Z" fill="#BE7C5E"/>
<path d="M291.41 214.149L300.034 254.829C300.034 254.829 321.2 283.341 306.218 279.934C291.236 276.526 290.41 261.182 290.41 261.182L275.96 211.631L291.41 214.149Z" fill="#BE7C5E"/>
<path d="M300.005 130.345L278.676 143.744L271.064 123.363C271.064 123.363 288.716 124.565 290.774 117.964C292.832 111.363 300.005 130.345 300.005 130.345Z" fill="#BE7C5E"/>
<path d="M289.051 138.818L287.687 132.979L266.665 134.209L258.197 168.173L273.971 168.739L282.803 154.977L287.618 141.555L289.051 138.818Z" fill="#BE7C5E"/>
<path opacity="0.1" d="M281.78 132.69L283.514 122.901C283.514 122.901 244.608 123.386 235.909 132.217C227.21 141.047 205.882 144.212 205.882 144.212L170.357 151.35L157.936 156.611C157.936 156.611 161.438 169.721 162.941 170.627C164.444 171.534 181.218 157.726 181.218 157.726L187.576 159.412L166.872 181.161L205.084 218.7L205.789 198.013L210.685 194.19C210.685 194.19 222.32 204.008 227.511 202.518L234.054 190.696C234.054 190.696 247.579 182.645 251.446 183.269C255.047 183.847 266.33 181.369 270.688 176.674C270.994 176.345 271.272 175.991 271.52 175.617C275.035 170.24 273.59 203.684 273.59 203.684L271.613 215.91L292.693 216.343L288.462 195.518C288.462 195.518 288.676 173.763 289.705 165.343C290.733 156.923 292.595 145.344 288.82 138.125L281.399 145.182L268.486 165.892L273.387 147.862L281.78 132.69Z" fill="black"/>
<path d="M281.89 132.043L280.046 122C280.046 122 244.735 122.74 236.036 131.57C227.337 140.4 205.98 143.559 205.98 143.559L170.455 150.703L158.086 155.97C158.086 155.97 161.589 169.08 163.091 169.98C164.594 170.881 181.374 157.084 181.374 157.084L187.732 158.771L167.028 180.52L205.24 218.059L205.945 197.366L210.858 193.537C210.858 193.537 222.494 203.355 227.684 201.871L234.227 190.049C234.227 190.049 247.677 181.999 251.568 182.64C255.169 183.217 266.451 180.734 270.809 176.039C271.115 175.71 271.394 175.356 271.642 174.982C275.156 169.605 273.711 203.055 273.711 203.055L271.734 215.281L292.814 215.714L288.583 194.889C288.583 194.889 288.797 173.128 289.826 164.713C290.855 156.299 292.716 144.708 288.942 137.495L281.52 144.524L268.59 165.216L273.491 147.186L281.89 132.043Z" fill="#7FAFF2"/>
<path opacity="0.1" d="M237.354 144.83C237.354 144.83 216.309 162.565 214.107 172.117L237.354 144.83Z" fill="black"/>
<path opacity="0.1" d="M260.33 160.116C260.33 160.116 244.146 172.36 241.256 180.145L260.33 160.116Z" fill="black"/>
<path opacity="0.1" d="M213.066 178.551C213.066 178.551 211.546 185.897 211.245 189.812L213.066 178.551Z" fill="black"/>
<path opacity="0.1" d="M205.373 195.466C205.373 195.466 181.131 173.723 177.738 174.167L205.373 195.466Z" fill="black"/>
<path opacity="0.1" d="M291.028 118.333C292.999 112.015 299.658 129.144 300.219 130.617C299.585 130.581 298.954 130.512 298.329 130.409C295.801 130.005 293.382 129.09 291.219 127.721C289.057 126.352 287.196 124.557 285.751 122.445C288.346 121.631 290.416 120.343 291.028 118.333Z" fill="black"/>
<path d="M301.091 130.282C311.543 130.282 320.016 121.817 320.016 111.374C320.016 100.932 311.543 92.4662 301.091 92.4662C290.64 92.4662 282.167 100.932 282.167 111.374C282.167 121.817 290.64 130.282 301.091 130.282Z" fill="#BE7C5E"/>
<path opacity="0.1" d="M316.461 114.1C317.946 116.543 319.299 119.194 321.593 120.903C323.888 122.613 327.501 122.999 329.408 120.868C330.102 120.016 330.571 119.003 330.772 117.923C332.171 111.969 329.726 105.795 326.553 100.546C322.726 94.2449 317.646 88.5449 311.201 84.9527C304.756 81.3605 296.831 80.0842 289.849 82.4751C282.867 84.8661 277.133 91.2534 276.555 98.5994C276.237 102.353 277.185 106.182 276.405 109.873C276 111.796 275.127 113.626 275.029 115.59C274.844 119.234 277.341 122.624 277.116 126.268C276.977 128.515 275.827 130.553 275.121 132.696C273.387 137.859 274.324 143.478 273.965 148.907C273.607 154.336 271.231 160.423 266.029 162.028C271.78 164.916 279.711 161.878 282.052 155.883C282.763 154.053 283.023 152.02 284.104 150.38C285.93 147.607 289.728 146.51 291.259 143.565C292.791 140.62 291.462 137.033 289.786 134.174C288.109 131.316 286.017 128.44 285.982 125.131C285.994 123.515 286.499 121.941 287.428 120.618C288.357 119.296 289.667 118.287 291.184 117.727C292.762 117.178 294.467 117.149 296.126 116.964C300.242 116.436 304.172 114.938 307.594 112.593C312.039 109.688 313.23 108.787 316.461 114.1Z" fill="black"/>
<path d="M316.582 113.274C318.068 115.723 319.42 118.368 321.715 120.083C324.01 121.798 327.622 122.179 329.53 120.048C330.222 119.195 330.691 118.183 330.894 117.103C332.292 111.149 329.847 104.975 326.674 99.7255C322.848 93.4191 317.767 87.7247 311.322 84.1326C304.877 80.5404 296.953 79.2699 289.971 81.6551C282.988 84.0402 275.96 90.5257 275.341 97.8717C275.023 101.626 275.48 103.364 274.699 107.048C274.295 108.972 275.237 112.824 275.139 114.776C274.954 118.42 277.451 121.81 277.225 125.454C277.087 127.7 275.936 129.739 275.231 131.876C273.497 137.045 274.434 142.664 274.075 148.093C273.717 153.521 271.341 159.602 266.139 161.208C271.89 164.096 279.821 161.058 282.162 155.063C282.873 153.238 283.133 151.205 284.214 149.565C286.04 146.793 289.838 145.696 291.369 142.751C292.901 139.805 291.572 136.213 289.901 133.354C288.231 130.496 286.127 127.625 286.092 124.31C286.106 122.696 286.61 121.123 287.54 119.802C288.469 118.48 289.778 117.473 291.294 116.912C292.872 116.364 294.577 116.335 296.236 116.15C300.351 115.619 304.281 114.121 307.704 111.778C312.172 108.862 313.363 107.967 316.582 113.274Z" fill="#723647"/>
<path d="M277.309 124.22L285.338 125.516C285.962 125.617 286.549 125.194 286.65 124.572C286.75 123.95 286.326 123.365 285.702 123.264L277.674 121.968C277.05 121.867 276.462 122.289 276.362 122.911C276.261 123.533 276.686 124.119 277.309 124.22Z" fill="#252A62"/>
<path d="M260.764 283.82C260.897 292.864 268.532 299.991 277.584 299.991H278.844C279.957 299.987 281.027 300.418 281.826 301.192C282.433 301.759 282.854 302.496 283.034 303.306C283.12 303.632 283.163 303.968 283.162 304.305V320.273C283.156 323.344 284.034 326.351 285.693 328.936C288.107 332.598 289.415 336.876 289.462 341.26C289.462 342.284 289.666 343.297 290.062 344.241C290.458 345.185 291.038 346.04 291.769 346.757C292.5 347.475 293.366 348.039 294.318 348.418C295.269 348.797 296.287 348.983 297.311 348.964C301.542 348.889 304.86 345.251 304.86 341.018V337.027L306.964 337.27V341.272C306.965 342.294 307.169 343.306 307.565 344.248C307.961 345.191 308.541 346.045 309.272 346.761C310.002 347.477 310.867 348.041 311.818 348.419C312.768 348.797 313.785 348.983 314.808 348.964C319.044 348.889 322.362 345.251 322.362 341.018V338.996C324.46 339.874 336.362 339.874 339.662 338.996L340.558 338.927V341.237C340.555 342.263 340.756 343.278 341.151 344.225C341.546 345.171 342.126 346.03 342.857 346.749C343.588 347.469 344.456 348.036 345.409 348.416C346.362 348.796 347.381 348.983 348.407 348.964C352.638 348.889 355.956 345.251 355.956 341.018V337.703L356.656 337.639V341.278C356.658 342.3 356.863 343.311 357.26 344.253C357.658 345.195 358.238 346.048 358.969 346.764C359.699 347.479 360.565 348.042 361.516 348.42C362.466 348.798 363.482 348.983 364.505 348.964C366.371 348.901 368.153 348.175 369.53 346.916C370.908 345.657 371.79 343.949 372.019 342.098C372.063 341.739 372.086 341.379 372.088 341.018V324.316C372.095 318.579 370.171 313.006 366.626 308.492C366.012 307.693 365.668 306.72 365.644 305.713C365.62 304.706 365.918 303.717 366.493 302.89C370.412 297.155 376.21 287.476 376.019 280.615C376.059 278.755 375.406 276.946 374.187 275.539C374.111 275.452 374.031 275.371 373.955 275.291C368.314 269.388 358.384 274.032 359.245 282.146C359.538 284.863 359.342 287.611 358.667 290.26C358.276 291.755 357.748 293.21 357.089 294.608C356.429 296.011 355.345 297.171 353.989 297.925C352.634 298.678 351.075 298.987 349.534 298.807C348.487 298.679 347.433 298.615 346.379 298.616H314.01C312.11 298.617 310.258 298.023 308.713 296.918C307.168 295.813 306.009 294.252 305.398 292.454C305.069 291.513 304.902 290.523 304.906 289.526V264.347C304.907 263.691 304.775 263.041 304.519 262.437C304.264 261.833 303.889 261.286 303.418 260.829C302.947 260.373 302.389 260.015 301.776 259.778C301.164 259.541 300.511 259.429 299.854 259.449C299.214 259.472 298.585 259.624 298.004 259.895C297.423 260.166 296.902 260.55 296.473 261.026C295.597 261.99 295.11 263.246 295.109 264.549C295.11 264.89 295.043 265.227 294.913 265.542C294.783 265.857 294.592 266.143 294.351 266.384C294.109 266.625 293.823 266.816 293.508 266.946C293.193 267.076 292.855 267.143 292.514 267.142H277.214C275.033 267.142 272.874 267.575 270.862 268.416C268.85 269.257 267.026 270.489 265.495 272.041C263.964 273.593 262.758 275.434 261.945 277.456C261.133 279.478 260.731 281.642 260.764 283.82Z" fill="#F3AD55"/>
<path d="M356.921 343.189C357.355 344.866 358.342 346.348 359.722 347.396C361.102 348.443 362.795 348.996 364.528 348.964C366.394 348.901 368.176 348.175 369.553 346.916C370.931 345.658 371.813 343.949 372.042 342.098C367.326 340.844 360.863 339.978 356.921 343.189Z" fill="#FBDCA3"/>
<path d="M340.795 343.189C341.23 344.866 342.217 346.348 343.598 347.396C344.98 348.444 346.674 348.996 348.407 348.964C350.267 348.894 352.042 348.165 353.412 346.907C354.783 345.648 355.66 343.944 355.887 342.098C351.228 340.844 344.783 339.978 340.795 343.189Z" fill="#FBDCA3"/>
<path d="M307.213 343.189C307.646 344.866 308.633 346.348 310.013 347.396C311.393 348.443 313.086 348.996 314.819 348.964C316.685 348.901 318.467 348.175 319.844 346.916C321.222 345.658 322.104 343.949 322.333 342.098C317.617 340.844 311.166 339.978 307.213 343.189Z" fill="#FBDCA3"/>
<path d="M289.699 343.189C290.133 344.867 291.12 346.35 292.501 347.397C293.883 348.445 295.577 348.997 297.311 348.964C299.171 348.895 300.946 348.165 302.316 346.907C303.687 345.648 304.564 343.944 304.791 342.098C300.132 340.844 293.67 339.978 289.699 343.189Z" fill="#FBDCA3"/>
<path d="M358.621 290.26C364.06 288.077 370.695 284.08 375.961 280.615C376.001 278.755 375.348 276.946 374.129 275.539C374.054 275.452 373.973 275.371 373.898 275.291C368.256 269.388 358.326 274.032 359.187 282.146C359.484 284.862 359.292 287.61 358.621 290.26Z" fill="#FBDCA3"/>
<path d="M352.037 298.663C352.037 298.663 337.061 317.501 312.559 298.616L352.037 298.663Z" fill="#FBDCA3"/>
<path d="M304.86 263.648C304.86 263.648 295.762 275.539 304.86 290.214V263.648Z" fill="#FBDCA3"/>
<path d="M283.162 304.213C283.162 304.213 291.179 314.157 283.266 322.069L283.162 304.213Z" fill="#FBDCA3"/>
<path opacity="0.1" d="M282.462 302.11C283.04 302.688 282.855 303.208 283.04 304.028L309.051 297.219C307.652 296.139 305.912 294.863 305.34 293.176C302.23 295.573 296.063 299.627 282.462 302.11Z" fill="black"/>
<path d="M281.826 301.215C282.433 301.782 282.854 302.519 283.034 303.329L308.403 296.722C306.987 295.631 305.925 294.147 305.351 292.454C302.23 294.874 295.427 298.72 281.826 301.215Z" fill="#383F4D"/>
<path opacity="0.1" d="M304.398 293.852C304.398 293.852 296.462 299.818 283.162 301.666L304.398 293.852Z" fill="black"/>
<path d="M304.398 293.153C304.398 293.153 296.462 299.119 283.162 300.967L304.398 293.153Z" fill="#F3AD55"/>
<path opacity="0.1" d="M284.56 293.719C284.56 293.719 271.266 297.918 267.763 284.629L284.56 293.719Z" fill="black"/>
<path d="M284.56 293.02C284.56 293.02 271.266 297.219 267.763 283.93L284.56 293.02Z" fill="#FBDCA3"/>
<path d="M260.764 284.629C261.536 284.629 262.162 283.533 262.162 282.18C262.162 280.828 261.536 279.732 260.764 279.732C259.991 279.732 259.365 280.828 259.365 282.18C259.365 283.533 259.991 284.629 260.764 284.629Z" fill="#383F4D"/>
<path opacity="0.1" d="M366.805 332.534L364.008 310.155C364.008 310.155 372.406 323.438 366.805 332.534Z" fill="black"/>
<path d="M363.308 310.155C363.308 310.155 371.707 323.438 366.106 332.534L363.308 310.155Z" fill="#FBDCA3"/>
<defs>
<linearGradient id="paint0_linear" x1="146.546" y1="201.425" x2="321.573" y2="229.734" gradientUnits="userSpaceOnUse">
<stop stop-color="#808080" stop-opacity="0.25"/>
<stop offset="0.54" stop-color="#808080" stop-opacity="0.12"/>
<stop offset="1" stop-color="#808080" stop-opacity="0.1"/>
</linearGradient>
</defs>
</svg>
